{
.appVersion = "3135";
.formatVersion = 3;
DisplayStrings = (
"/kha_iMatra-oriya/ca_aaMatra-oriya/ca_oMatra-oriya/tha_iMatra-oriya/dha_iMatra-oriya/ra_aaMatra-oriya/ra_iiMatra-oriya/ra_oMatra-oriya/la_aaMatra-oriya/la_iiMatra-oriya/la_oMatra-oriya/ma_bha-oriya  ଚି ହ   

ଅଭିନାଶ ମାଝୀ ରୋଶନ ରାଉରେକଲାୟ କ୍କଭିନିକିବିତିଲିଲ ସନ୍ଗମକ
ମ୍ମ
ଭଗବତଗୀତା ହ
ରସଗୋଲା ଦ 
ମୀ
ଆସଛ ଜାଉଛ ପକରଛ କଉଠ ନଉଛ
ସେମାନଙ୍କଠାରେ 
ଉଷ୍ଣପ୍ରସ୍ରବଣ ଷ
 

ନ୍ଗନ୍କ
",
"",
"/da_gha-oriya",
"/sa_pa-oriya"
);
axes = (
{
name = Weight;
tag = wght;
}
);
classes = (
{
automatic = 1;

glyphs = (
{
glyphname = A;
kernLeft = A;
kernRight = A;
layers = (
{
layerId = m01;
shapes = (
{
closed = 1;
nodes = (
(31,0,l),
(131,0,l),
(193,157,l),
(501,157,l),
(564,0,l),
(666,0,l),
(383,694,l),
(315,694,l)
);
},
{
closed = 1;
nodes = (
(226,239,l),
(348,543,l),
(469,239,l)
);
}
);
width = 696;
}
);
note = A;
unicode = 65;
},
{
glyphname = B;
kernLeft = B;
layers = (
{
layerId = m01;
shapes = (
{
closed = 1;
nodes = (
(82,0,l),
(350,0,ls),
(495,0,o),
(578,87,o),
(578,196,cs),
(578,274,o),
(536,336,o),
(464,371,c),
(519,405,o),
(547,454,o),
(548,517,cs),
(548,612,o),
(477,694,o),
(342,694,cs),
(82,694,l)
);
},
{
closed = 1;
nodes = (
(340,612,ls),
(409,612,o),
(453,576,o),
(453,509,cs),
(453,442,o),
(411,406,o),
(344,406,cs),
(176,406,l),
(176,612,l)
);
},
{
closed = 1;
nodes = (
(358,324,ls),
(435,324,o),
(483,270,o),
(483,203,cs),
(483,136,o),
(434,82,o),
(355,82,cs),
(176,82,l),
(176,324,l)
);
}
);
width = 623;
}
);
note = B;
unicode = 66;
},
{
glyphname = C;
kernLeft = C;
kernRight = C;
layers = (
{
layerId = m01;
shapes = (
{
closed = 1;
nodes = (
(506,-10,o),
(592,30,o),
(655,96,c),
(590,160,l),
(545,111,o),
(483,80,o),
(396,80,cs),
(250,80,o),
(144,191,o),
(144,347,cs),
(144,502,o),
(249,614,o),
(396,614,cs),
(476,614,o),
(540,584,o),
(585,535,c),
(650,600,l),
(586,664,o),
(505,704,o),
(396,704,cs),
(195,704,o),
(47,546,o),
(47,347,cs),
(47,148,o),
(196,-10,o),
(397,-10,cs)
);
}
);
width = 688;
}
);
note = C;
unicode = 67;
},
{
glyphname = D;
kernLeft = B;
layers = (
{
layerId = m01;
shapes = (
{
closed = 1;
nodes = (
(82,0,l),
(341,0,ls),
(542,0,o),
(692,150,o),
(692,347,cs),
(692,546,o),
(541,694,o),
(339,694,cs),
(82,694,l)
);
},
{
closed = 1;
nodes = (
(337,608,ls),
(489,608,o),
(595,501,o),
(595,348,cs),
(595,194,o),
(489,86,o),
(337,86,cs),
(176,86,l),
(176,608,l)
);
}
);
width = 740;
}
);
note = D;
unicode = 68;
},
{
glyphname = E;
kernLeft = B;
kernRight = AE;
layers = (
{
layerId = m01;
shapes = (
{
closed = 1;
nodes = (
(82,0,l),
(544,0,l),
(544,86,l),
(176,86,l),
(176,314,l),
(511,314,l),
(511,396,l),
(176,396,l),
(176,608,l),
(539,608,l),
(539,694,l),
(82,694,l)
);
}
);
width = 590;
}
);
note = E;
unicode = 69;
},
{
glyphname = F;
kernLeft = B;
layers = (
{
layerId = m01;
shapes = (
{
closed = 1;
nodes = (
(82,0,l),
(176,0,l),
(176,305,l),
(508,305,l),
(508,391,l),
(176,391,l),
(176,608,l),
(525,608,l),
(525,694,l),
(82,694,l)
);
}
);
width = 566;
}
);
note = F;
unicode = 70;
},
{
glyphname = G;
kernLeft = C;
layers = (
{
layerId = m01;
shapes = (
{
closed = 1;
nodes = (
(591,-10,o),
(729,115,o),
(729,356,cs),
(729,370,l),
(389,370,l),
(389,284,l),
(629,284,l),
(614,152,o),
(527,80,o),
(393,81,cs),
(250,81,o),
(144,191,o),
(144,348,cs),
(144,504,o),
(249,614,o),
(402,614,cs),
(487,614,o),
(563,579,o),
(607,515,c),
(672,580,l),
(610,659,o),
(513,704,o),
(402,704,cs),
(200,704,o),
(47,548,o),
(47,348,cs),
(47,148,o),
(201,-10,o),
(396,-10,cs)
);
}
);
width = 773;
}
);
note = G;
unicode = 71;
},
{
glyphname = H;
kernLeft = B;
layers = (
{
layerId = m01;
shapes = (
{
closed = 1;
nodes = (
(82,0,l),
(176,0,l),
(176,316,l),
(530,316,l),
(530,0,l),
(624,0,l),
(624,694,l),
(530,694,l),
(530,402,l),
(176,402,l),
(176,694,l),
(82,694,l)
);
}
);
width = 706;
}
);
note = H;
unicode = 72;
},
{
glyphname = I;
kernLeft = B;
layers = (
{
layerId = m01;
shapes = (
{
closed = 1;
nodes = (
(82,0,l),
(176,0,l),
(176,694,l),
(82,694,l)
);
}
);
width = 258;
}
);
note = I;
unicode = 73;
},
{
glyphname = J;
kernRight = J;
layers = (
{
layerId = m01;
shapes = (
{
closed = 1;
nodes = (
(332,-10,o),
(421,77,o),
(421,217,cs),
(421,694,l),
(327,694,l),
(327,212,ls),
(327,125,o),
(277,80,o),
(207,80,cs),
(160,80,o),
(122,101,o),
(96,138,c),
(30,77,l),
(69,23,o),
(131,-10,o),
(210,-10,cs)
);
}
);
width = 495;
}
);
note = J;
unicode = 74;
},
{
glyphname = K;
kernLeft = B;
layers = (
{
layerId = m01;
shapes = (
{
closed = 1;
nodes = (
(82,0,l),
(176,0,l),
(176,347,l),
(511,0,l),
(636,0,l),
(282,363,l),
(626,694,l),
(504,694,l),
(176,376,l),
(176,694,l),
(82,694,l)
);
}
);
width = 666;
}
);
note = K;
unicode = 75;
},
{
glyphname = L;
kernLeft = B;
layers = (
{
layerId = m01;
shapes = (
{
closed = 1;
nodes = (
(82,0,l),
(518,0,l),
(518,86,l),
(176,86,l),
(176,694,l),
(82,694,l)
);
}
);
width = 552;
}
);
note = L;
unicode = 76;
},
{
glyphname = M;
kernLeft = B;
layers = (
{
layerId = m01;
shapes = (
{
closed = 1;
nodes = (
(82,0,l),
(176,0,l),
(176,488,l),
(387,142,l),
(453,142,l),
(663,488,l),
(663,0,l),
(757,0,l),
(757,694,l),
(691,694,l),
(420,247,l),
(148,694,l),
(82,694,l)
);
}
);
width = 839;
}
);
note = M;
unicode = 77;
},
{
glyphname = N;
kernLeft = B;
layers = (
{
layerId = m01;
shapes = (
{
closed = 1;
nodes = (
(82,0,l),
(176,0,l),
(176,515,l),
(562,0,l),
(628,0,l),
(628,694,l),
(534,694,l),
(534,179,l),
(148,694,l),
(82,694,l)
);
}
);
width = 710;
}
);
note = N;
unicode = 78;
},
{
glyphname = O;
kernLeft = C;
kernRight = O;
layers = (
{
layerId = m01;
shapes = (
{
closed = 1;
nodes = (
(594,-10,o),
(747,148,o),
(747,347,cs),
(747,547,o),
(593,704,o),
(396,704,cs),
(200,704,o),
(47,547,o),
(47,348,cs),
(47,149,o),
(202,-10,o),
(398,-10,cs)
);
},
{
closed = 1;
nodes = (
(249,80,o),
(144,192,o),
(144,348,cs),
(144,503,o),
(249,614,o),
(396,614,cs),
(544,614,o),
(650,502,o),
(650,348,cs),
(650,192,o),
(544,80,o),
(396,80,cs)
);
}
);
width = 794;
}
);
note = O;
unicode = 79;
},
{
glyphname = P;
kernLeft = B;
layers = (
{
layerId = m01;
shapes = (
{
closed = 1;
nodes = (
(82,0,l),
(176,0,l),
(176,270,l),
(340,270,ls),
(467,270,o),
(564,354,o),
(564,482,cs),
(564,611,o),
(467,694,o),
(340,694,cs),
(82,694,l)
);
},
{
closed = 1;
nodes = (
(334,612,ls),
(413,612,o),
(469,562,o),
(469,482,cs),
(469,403,o),
(413,352,o),
(334,352,cs),
(176,352,l),
(176,612,l)
);
}
);
width = 606;
}
);
note = P;
unicode = 80;
},
{
glyphname = Q;
kernLeft = C;
layers = (
{
layerId = m01;
shapes = (
{
closed = 1;
nodes = (
(482,-10,o),
(557,18,o),
(616,66,c),
(731,-49,l),
(791,12,l),
(675,128,l),
(721,188,o),
(747,264,o),
(747,347,cs),
(747,547,o),
(593,704,o),
(397,704,cs),
(200,704,o),
(47,547,o),
(47,348,cs),
(47,149,o),
(202,-10,o),
(399,-10,cs)
);
},
{
closed = 1;
nodes = (
(250,80,o),
(144,192,o),
(144,348,cs),
(144,503,o),
(249,614,o),
(397,614,cs),
(544,614,o),
(650,502,o),
(650,348,cs),
(650,289,o),
(635,237,o),
(609,194,c),
(467,337,l),
(406,276,l),
(551,131,l),
(510,99,o),
(457,80,o),
(397,80,cs)
);
}
);
width = 817;
}
);
note = Q;
unicode = 81;
},
{
glyphname = R;
kernLeft = B;
layers = (
{
layerId = m01;
shapes = (
{
closed = 1;
nodes = (
(82,0,l),
(176,0,l),
(176,302,l),
(237,302,l),
(482,0,l),
(601,0,l),
(352,303,l),
(475,308,o),
(554,384,o),
(554,498,cs),
(554,611,o),
(469,694,o),
(337,694,cs),
(82,694,l)
);
},
{
closed = 1;
nodes = (
(334,612,ls),
(414,612,o),
(460,562,o),
(460,496,cs),
(460,425,o),
(414,381,o),
(333,381,cs),
(176,381,l),
(176,612,l)
);
}
);
width = 630;
}
);
note = R;
unicode = 82;
},
{
glyphname = S;
layers = (
{
layerId = m01;
shapes = (
{
closed = 1;
nodes = (
(419,-10,o),
(510,63,o),
(510,186,cs),
(510,443,o),
(171,360,o),
(171,523,cs),
(171,582,o),
(218,616,o),
(293,616,cs),
(355,616,o),
(400,592,o),
(441,544,c),
(505,608,l),
(459,665,o),
(386,704,o),
(295,704,cs),
(171,704,o),
(77,634,o),
(77,517,cs),
(77,269,o),
(415,358,o),
(415,179,cs),
(415,116,o),
(360,78,o),
(278,78,cs),
(194,78,o),
(140,110,o),
(96,171,c),
(32,107,l),
(91,31,o),
(165,-10,o),
(275,-10,cs)
);
}
);
width = 555;
}
);
note = S;
unicode = 83;
},
{
glyphname = T;
kernLeft = T;
kernRight = T;
layers = (
{
layerId = m01;
shapes = (
{
closed = 1;
nodes = (
(266,0,l),
(360,0,l),
(360,608,l),
(595,608,l),
(595,694,l),
(30,694,l),
(30,608,l),
(266,608,l)
);
}
);
width = 625;
}
);
note = T;
unicode = 84;
},
{
glyphname = U;
kernLeft = U;
kernRight = J;
layers = (
{
layerId = m01;
shapes = (
{
closed = 1;
nodes = (
(496,-10,o),
(610,103,o),
(610,256,cs),
(610,694,l),
(515,694,l),
(515,258,ls),
(515,150,o),
(442,80,o),
(342,80,cs),
(243,80,o),
(168,150,o),
(168,259,cs),
(168,694,l),
(74,694,l),
(74,257,ls),
(74,104,o),
(189,-10,o),
(342,-10,cs)
);
}
);
width = 683;
}
);
note = U;
unicode = 85;
},
{
glyphname = V;
layers = (
{
layerId = m01;
shapes = (
{
closed = 1;
nodes = (
(309,0,l),
(377,0,l),
(657,694,l),
(556,694,l),
(344,154,l),
(133,694,l),
(31,694,l)
);
}
);
width = 688;
}
);
note = V;
unicode = 86;
},
{
glyphname = W;
kernLeft = W;
kernRight = W;
layers = (
{
layerId = m01;
shapes = (
{
closed = 1;
nodes = (
(259,0,l),
(326,0,l),
(490,524,l),
(655,0,l),
(722,0,l),
(948,694,l),
(855,694,l),
(688,170,l),
(524,694,l),
(456,694,l),
(292,170,l),
(126,694,l),
(32,694,l)
);
}
);
width = 981;
}
);
note = W;
unicode = 87;
},
{
glyphname = X;
layers = (
{
layerId = m01;
shapes = (
{
closed = 1;
nodes = (
(30,0,l),
(136,0,l),
(349,295,l),
(551,0,l),
(661,0,l),
(411,360,l),
(650,694,l),
(544,694,l),
(351,421,l),
(154,694,l),
(42,694,l),
(289,355,l)
);
}
);
width = 691;
}
);
note = X;
unicode = 88;
},
{
glyphname = Y;
kernLeft = Y;
kernRight = Y;
layers = (
{
layerId = m01;
shapes = (
{
closed = 1;
nodes = (
(286,0,l),
(380,0,l),
(380,309,l),
(637,694,l),
(530,694,l),
(334,394,l),
(138,694,l),
(29,694,l),
(286,305,l)
);
}
);
width = 665;
}
);
note = Y;
unicode = 89;
},
{
glyphname = Z;
layers = (
{
layerId = m01;
shapes = (
{
closed = 1;
nodes = (
(39,0,l),
(534,0,l),
(534,86,l),
(164,86,l),
(541,630,l),
(541,694,l),
(60,694,l),
(60,608,l),
(416,608,l),
(39,65,l)
);
}
);
width = 583;
}
);
note = Z;
unicode = 90;
},
{
glyphname = a;
kernLeft = a;
layers = (
{
layerId = m01;
shapes = (
{
closed = 1;
nodes = (
(336,-10,o),
(392,18,o),
(426,64,c),
(426,0,l),
(517,0,l),
(517,475,l),
(426,475,l),
(426,410,l),
(392,457,o),
(335,485,o),
(268,485,cs),
(137,485,o),
(36,376,o),
(36,237,cs),
(36,98,o),
(137,-10,o),
(268,-10,cs)
);
},
{
closed = 1;
nodes = (
(193,75,o),
(129,143,o),
(129,238,cs),
(129,333,o),
(192,400,o),
(282,400,cs),
(372,400,o),
(432,334,o),
(432,237,cs),
(432,141,o),
(372,75,o),
(283,75,cs)
);
}
);
width = 582;
}
);
note = a;
unicode = 97;
},
{
glyphname = b;
kernLeft = b;
kernRight = b;
layers = (
{
layerId = m01;
shapes = (
{
closed = 1;
nodes = (
(66,0,l),
(156,0,l),
(156,65,l),
(191,18,o),
(248,-10,o),
(316,-10,cs),
(446,-10,o),
(546,98,o),
(546,237,cs),
(546,377,o),
(446,485,o),
(316,485,cs),
(249,485,o),
(191,456,o),
(156,409,c),
(156,714,l),
(66,714,l)
);
},
{
closed = 1;
nodes = (
(212,75,o),
(151,142,o),
(151,237,cs),
(151,333,o),
(212,400,o),
(302,400,cs),
(391,400,o),
(454,333,o),
(454,238,cs),
(454,142,o),
(391,75,o),
(301,75,cs)
);
}
);
width = 582;
}
);
note = b;
unicode = 98;
},
{
glyphname = c;
kernLeft = a;
kernRight = c;
layers = (
{
layerId = m01;
shapes = (
{
closed = 1;
nodes = (
(356,-10,o),
(422,19,o),
(466,70,c),
(407,130,l),
(377,95,o),
(334,77,o),
(283,77,cs),
(193,77,o),
(128,144,o),
(128,238,cs),
(128,332,o),
(193,398,o),
(283,398,cs),
(333,398,o),
(376,380,o),
(406,345,c),
(466,405,l),
(421,456,o),
(356,485,o),
(283,485,cs),
(143,485,o),
(35,377,o),
(35,238,cs),
(35,98,o),
(143,-10,o),
(283,-10,cs)
);
}
);
width = 489;
}
);
note = c;
unicode = 99;
},
{
glyphname = e;
kernLeft = a;
kernRight = ae;
layers = (
{
layerId = m01;
shapes = (
{
closed = 1;
nodes = (
(361,-10,o),
(429,19,o),
(475,72,c),
(417,131,l),
(386,93,o),
(339,75,o),
(286,75,cs),
(201,75,o),
(141,125,o),
(127,204,c),
(499,204,l),
(503,223,o),
(504,238,o),
(504,252,cs),
(504,387,o),
(410,485,o),
(280,485,cs),
(142,485,o),
(35,377,o),
(35,238,cs),
(35,96,o),
(143,-10,o),
(286,-10,cs)
);
},
{
closed = 1;
nodes = (
(356,402,o),
(406,356,o),
(416,279,c),
(127,279,l),
(141,354,o),
(198,402,o),
(278,402,cs)
);
}
);
width = 536;
}
);
note = e;
unicode = 101;
},
{
glyphname = f;
kernLeft = f;
kernRight = f;
layers = (
{
layerId = m01;
shapes = (
{
closed = 1;
nodes = (
(134,0,l),
(224,0,l),
(224,393,l),
(375,393,l),
(375,475,l),
(224,475,l),
(224,546,ls),
(224,605,o),
(257,640,o),
(314,640,cs),
(344,640,o),
(364,629,o),
(382,611,c),
(441,669,l),
(407,704,o),
(369,724,o),
(315,724,cs),
(208,724,o),
(134,651,o),
(134,546,cs),
(134,475,l),
(17,475,l),
(17,393,l),
(134,393,l)
);
}
);
width = 399;
}
);
note = f;
unicode = 102;
},
{
glyphname = g;
kernLeft = a;
layers = (
{
layerId = m01;
shapes = (
{
closed = 1;
nodes = (
(332,8,o),
(388,35,o),
(423,82,c),
(423,19,ls),
(423,-69,o),
(362,-123,o),
(265,-123,cs),
(192,-123,o),
(139,-96,o),
(101,-47,c),
(43,-106,l),
(89,-172,o),
(165,-209,o),
(263,-209,cs),
(412,-209,o),
(513,-118,o),
(513,19,cs),
(513,475,l),
(423,475,l),
(423,411,l),
(388,458,o),
(332,485,o),
(262,485,cs),
(133,485,o),
(35,382,o),
(35,247,cs),
(35,110,o),
(133,8,o),
(263,8,cs)
);
},
{
closed = 1;
nodes = (
(191,93,o),
(128,156,o),
(128,247,cs),
(128,337,o),
(190,400,o),
(280,400,cs),
(369,400,o),
(428,338,o),
(428,246,cs),
(428,154,o),
(369,93,o),
(281,93,cs)
);
}
);
width = 579;
}
);
note = g;
unicode = 103;
},
{
glyphname = h;
kernLeft = b;
kernRight = T_h;
layers = (
{
layerId = m01;
shapes = (
{
closed = 1;
nodes = (
(66,0,l),
(156,0,l),
(156,277,ls),
(156,349,o),
(208,401,o),
(280,401,cs),
(352,401,o),
(402,350,o),
(402,277,cs),
(402,0,l),
(492,0,l),
(492,295,ls),
(492,406,o),
(414,485,o),
(306,485,cs),
(243,485,o),
(190,458,o),
(156,413,c),
(156,714,l),
(66,714,l)
);
}
);
width = 548;
}
);
note = h;
unicode = 104;
},
{
glyphname = i;
layers = (
{
layerId = m01;
shapes = (
{
closed = 1;
nodes = (
(145,570,o),
(169,595,o),
(169,628,cs),
(169,660,o),
(145,685,o),
(112,685,cs),
(79,685,o),
(55,660,o),
(55,628,cs),
(55,595,o),
(79,570,o),
(112,570,cs)
);
},
{
closed = 1;
nodes = (
(67,0,l),
(157,0,l),
(157,475,l),
(67,475,l)
);
}
);
width = 224;
}
);
note = i;
unicode = 105;
},
{
glyphname = j;
layers = (
{
layerId = m01;
shapes = (
{
closed = 1;
nodes = (
(153,570,o),
(177,595,o),
(177,628,cs),
(177,660,o),
(153,685,o),
(120,685,cs),
(87,685,o),
(64,660,o),
(64,628,cs),
(64,595,o),
(87,570,o),
(120,570,cs)
);
},
{
closed = 1;
nodes = (
(90,-209,o),
(164,-154,o),
(164,-50,cs),
(164,475,l),
(74,475,l),
(74,-51,ls),
(74,-101,o),
(40,-125,o),
(0,-125,cs),
(-30,-125,o),
(-51,-114,o),
(-70,-92,c),
(-128,-151,l),
(-94,-189,o),
(-56,-209,o),
(6,-209,cs)
);
}
);
width = 230;
}
);
note = j;
unicode = 106;
},
{
glyphname = k;
kernLeft = b;
layers = (
{
layerId = m01;
shapes = (
{
closed = 1;
nodes = (
(66,0,l),
(156,0,l),
(156,235,l),
(370,0,l),
(486,0,l),
(258,247,l),
(477,475,l),
(368,475,l),
(156,251,l),
(156,714,l),
(66,714,l)
);
}
);
width = 498;
}
);
note = k;
unicode = 107;
},
{
glyphname = l;
kernLeft = b;
layers = (
{
layerId = m01;
shapes = (
{
closed = 1;
nodes = (
(66,0,l),
(156,0,l),
(156,714,l),
(66,714,l)
);
}
);
width = 222;
}
);
note = l;
unicode = 108;
},
{
glyphname = m;
kernLeft = m;
kernRight = T_h;
layers = (
{
layerId = m01;
shapes = (
{
closed = 1;
nodes = (
(66,0,l),
(156,0,l),
(156,288,ls),
(156,358,o),
(208,401,o),
(273,401,cs),
(339,401,o),
(387,358,o),
(387,287,cs),
(387,0,l),
(477,0,l),
(477,288,ls),
(477,358,o),
(529,401,o),
(595,401,cs),
(660,401,o),
(708,358,o),
(708,287,cs),
(708,0,l),
(799,0,l),
(799,305,ls),
(799,416,o),
(718,485,o),
(616,485,cs),
(548,485,o),
(488,453,o),
(455,399,c),
(424,453,o),
(367,485,o),
(299,485,cs),
(240,485,o),
(189,461,o),
(156,420,c),
(156,475,l),
(66,475,l)
);
}
);
width = 855;
}
);
note = m;
unicode = 109;
},
{
glyphname = n;
kernLeft = m;
kernRight = T_h;
layers = (
{
layerId = m01;
shapes = (
{
closed = 1;
nodes = (
(66,0,l),
(156,0,l),
(156,277,ls),
(156,349,o),
(208,401,o),
(280,401,cs),
(352,401,o),
(402,350,o),
(402,277,cs),
(402,0,l),
(492,0,l),
(492,295,ls),
(492,394,o),
(415,485,o),
(306,485,cs),
(243,485,o),
(190,458,o),
(156,413,c),
(156,475,l),
(66,475,l)
);
}
);
width = 548;
}
);
note = n;
unicode = 110;
},
{
glyphname = o;
kernLeft = a;
kernRight = b;
layers = (
{
layerId = m01;
shapes = (
{
closed = 1;
nodes = (
(422,-10,o),
(531,99,o),
(531,239,cs),
(531,377,o),
(421,485,o),
(283,485,cs),
(143,485,o),
(35,377,o),
(35,239,cs),
(35,100,o),
(144,-10,o),
(283,-10,cs)
);
},
{
closed = 1;
nodes = (
(193,77,o),
(128,145,o),
(128,239,cs),
(128,331,o),
(193,398,o),
(283,398,cs),
(372,398,o),
(438,332,o),
(438,239,cs),
(438,145,o),
(373,77,o),
(283,77,cs)
);
}
);
width = 566;
}
);
note = o;
unicode = 111;
},
{
glyphname = p;
kernLeft = m;
kernRight = b;
layers = (
{
layerId = m01;
shapes = (
{
closed = 1;
nodes = (
(66,-199,l),
(156,-199,l),
(156,65,l),
(191,18,o),
(248,-10,o),
(316,-10,cs),
(446,-10,o),
(546,98,o),
(546,237,cs),
(546,377,o),
(446,485,o),
(316,485,cs),
(249,485,o),
(191,456,o),
(156,409,c),
(156,475,l),
(66,475,l)
);
},
{
closed = 1;
nodes = (
(212,75,o),
(151,142,o),
(151,237,cs),
(151,333,o),
(212,400,o),
(302,400,cs),
(391,400,o),
(454,333,o),
(454,238,cs),
(454,142,o),
(391,75,o),
(301,75,cs)
);
}
);
width = 582;
}
);
note = p;
unicode = 112;
},
{
glyphname = q;
kernLeft = a;
layers = (
{
layerId = m01;
shapes = (
{
closed = 1;
nodes = (
(336,-10,o),
(392,18,o),
(427,64,c),
(427,-199,l),
(517,-199,l),
(517,475,l),
(427,475,l),
(427,410,l),
(392,457,o),
(335,485,o),
(268,485,cs),
(137,485,o),
(36,376,o),
(36,237,cs),
(36,98,o),
(137,-10,o),
(269,-10,cs)
);
},
{
closed = 1;
nodes = (
(193,75,o),
(129,143,o),
(129,238,cs),
(129,333,o),
(193,400,o),
(283,400,cs),
(372,400,o),
(432,334,o),
(432,237,cs),
(432,141,o),
(372,75,o),
(283,75,cs)
);
}
);
width = 583;
}
);
note = q;
unicode = 113;
},
{
glyphname = r;
kernLeft = m;
layers = (
{
layerId = m01;
shapes = (
{
closed = 1;
nodes = (
(66,0,l),
(156,0,l),
(156,271,ls),
(156,357,o),
(203,400,o),
(270,400,cs),
(301,400,o),
(324,391,o),
(345,370,c),
(404,431,l),
(371,469,o),
(333,485,o),
(285,485,cs),
(227,485,o),
(183,461,o),
(156,419,c),
(156,475,l),
(66,475,l)
);
}
);
width = 419;
}
);
note = r;
unicode = 114;
},
{
glyphname = s;
layers = (
{
layerId = m01;
shapes = (
{
closed = 1;
nodes = (
(324,-10,o),
(392,46,o),
(392,135,cs),
(392,312,o),
(138,258,o),
(138,352,cs),
(138,383,o),
(166,403,o),
(218,403,cs),
(268,403,o),
(307,384,o),
(334,349,c),
(392,407,l),
(354,458,o),
(295,485,o),
(221,485,cs),
(116,485,o),
(51,431,o),
(51,345,cs),
(51,172,o),
(306,231,o),
(306,127,cs),
(306,92,o),
(274,72,o),
(218,72,cs),
(162,72,o),
(116,92,o),
(82,135,c),
(24,77,l),
(68,22,o),
(137,-10,o),
(217,-10,cs)
);
}
);
width = 427;
}
);
note = s;
unicode = 115;
},
{
glyphname = t;
kernLeft = f;
kernRight = t;
layers = (
{
layerId = m01;
shapes = (
{
closed = 1;
nodes = (
(139,0,l),
(229,0,l),
(229,393,l),
(346,393,l),
(346,475,l),
(229,475,l),
(229,674,l),
(139,674,l),
(139,475,l),
(22,475,l),
(22,393,l),
(139,393,l)
);
}
);
width = 368;
}
);
note = t;
unicode = 116;
},
{
glyphname = u;
kernLeft = u;
kernRight = u;
layers = (
{
layerId = m01;
shapes = (
{
closed = 1;
nodes = (
(378,-10,o),
(461,75,o),
(461,199,cs),
(461,475,l),
(371,475,l),
(371,203,ls),
(371,124,o),
(329,77,o),
(258,77,cs),
(187,77,o),
(144,125,o),
(144,203,cs),
(144,475,l),
(54,475,l),
(54,199,ls),
(54,76,o),
(138,-10,o),
(258,-10,cs)
);
}
);
width = 516;
}
);
note = u;
unicode = 117;
},
{
glyphname = v;
kernLeft = v;
kernRight = v;
layers = (
{
layerId = m01;
shapes = (
{
closed = 1;
nodes = (
(229,0,l),
(282,0,l),
(500,475,l),
(404,475,l),
(257,140,l),
(111,475,l),
(11,475,l)
);
}
);
width = 511;
}
);
note = v;
unicode = 118;
},
{
glyphname = w;
layers = (
{
layerId = m01;
shapes = (
{
closed = 1;
nodes = (
(202,0,l),
(254,0,l),
(375,315,l),
(496,0,l),
(549,0,l),
(736,475,l),
(642,475,l),
(521,146,l),
(401,475,l),
(349,475,l),
(229,146,l),
(108,475,l),
(14,475,l)
);
}
);
width = 750;
}
);
note = w;
unicode = 119;
},
{
glyphname = x;
layers = (
{
layerId = m01;
shapes = (
{
closed = 1;
nodes = (
(17,0,l),
(123,0,l),
(251,179,l),
(378,0,l),
(487,0,l),
(309,245,l),
(478,475,l),
(373,475,l),
(256,309,l),
(135,475,l),
(26,475,l),
(198,244,l)
);
}
);
width = 504;
}
);
note = x;
unicode = 120;
},
{
glyphname = y;
kernLeft = v;
layers = (
{
layerId = m01;
shapes = (
{
closed = 1;
nodes = (
(86,-199,l),
(186,-199,l),
(276,-4,l),
(498,475,l),
(398,475,l),
(253,138,l),
(116,475,l),
(16,475,l),
(203,41,l)
);
}
);
width = 514;
}
);
note = y;
unicode = 121;
},
{
glyphname = z;
layers = (
{
layerId = m01;
shapes = (
{
closed = 1;
nodes = (
(28,0,l),
(410,0,l),
(410,82,l),
(158,82,l),
(416,426,l),
(416,475,l),
(45,475,l),
(45,393,l),
(285,393,l),
(28,49,l)
);
}
);
width = 447;
}
);
note = z;
unicode = 122;
},
{
glyphname = "ka_iMatra-oriya";
layers = (
{
anchors = (
{
name = am;
pos = (780,659);
},
{
name = below;
pos = (596,-20);
},
{
name = bindu;
pos = (451,-96);
},
{
name = bottom;
pos = (593,17);
},
{
name = bottomtwo;
pos = (442,-258);
},
{
name = chanBin;
pos = (648,702);
},
{
name = nukta;
pos = (451,-50);
},
{
name = reph2;
pos = (713,4);
},
{
name = ru;
pos = (451,-7);
}
);
layerId = m01;
shapes = (
{
closed = 1;
nodes = (
(213,536,l),
(226,586,o),
(271,622,o),
(325,622,cs),
(478,622,l),
(495,622,l),
(557,622,ls),
(621,622,o),
(673,570,o),
(673,505,c),
(751,505,l),
(751,613,o),
(664,700,o),
(557,700,cs),
(495,700,l),
(478,700,l),
(325,700,ls),
(216,700,o),
(128,610,o),
(131,500,c)
);
},
{
closed = 1;
nodes = (
(209,259,o),
(261,311,o),
(325,311,cs),
(390,311,o),
(442,259,o),
(442,194,cs),
(442,130,o),
(390,78,o),
(325,78,cs),
(261,78,o),
(209,130,o),
(209,194,cs)
);
},
{
closed = 1;
nodes = (
(442,0,l),
(520,0,l),
(520,356,l),
(475,311,l),
(718,311,l),
(673,356,l),
(673,0,l),
(751,0,l),
(751,389,l),
(520,389,l),
(485,389,l),
(442,389,l)
);
},
{
closed = 1;
nodes = (
(165,274,l),
(151,287,o),
(142,302,o),
(136,319,cs),
(113,380,o),
(144,446,o),
(205,468,cs),
(248,484,o),
(293,474,o),
(324,445,c),
(376,503,l),
(330,545,o),
(265,562,o),
(202,548,c),
(145,526,l),
(66,480,o),
(29,381,o),
(62,292,cs),
(78,248,o),
(108,214,o),
(144,191,c)
);
},
{
closed = 1;
nodes = (
(520,195,l),
(500,311,o),
(429,389,o),
(325,389,cs),
(245,389,o),
(177,340,o),
(147,272,c),
(131,216,l),
(131,194,ls),
(131,87,o),
(218,0,o),
(325,0,cs),
(429,0,o),
(500,78,o),
(520,194,c)
);
}
);
width = 801;
}
);
},
{
glyphname = "kha_iMatra-oriya";
layers = (
{
anchors = (
{
name = am;
pos = (680,659);
},
{
name = below;
pos = (496,-20);
},
{
name = bindu;
pos = (351,-96);
},
{
name = bottom;
pos = (613,17);
},
{
name = bottomtwo;
pos = (342,-258);
},
{
name = chanBin;
pos = (548,702);
},
{
name = nukta;
pos = (351,-50);
},
{
name = reph2;
pos = (613,4);
},
{
name = ru;
pos = (351,-7);
},
{
name = top;
pos = (351,754);
}
);
layerId = m01;
shapes = (
{
ref = "kha-oriya";
},
{
closed = 1;
nodes = (
(506,-33,l),
(451,-88,l),
(671,-303,l),
(671,-198,l),
(561,-88,l),
(652,-1,l),
(597,54,l)
);
}
);
width = 721;
}
);
},
{
glyphname = "nga_iMatra-oriya";
layers = (
{
anchors = (
{
name = am;
pos = (687,659);
},
{
name = below;
pos = (503,-20);
},
{
name = bindu;
pos = (358,-96);
},
{
name = bottom;
pos = (500,17);
},
{
name = bottomtwo;
pos = (722,-146);
},
{
name = chanBin;
pos = (610,730);
},
{
name = nukta;
pos = (358,-50);
},
{
name = reph2;
pos = (610,4);
},
{
name = ru;
pos = (358,-7);
},
{
name = top;
pos = (358,754);
}
);
hints = (
{
horizontal = 1;
place = (0, 78);
place = (0, 78);
type = Stem;
},
{
horizontal = 1;
origin = (3,16);
target = (3,3);
type = Stem;
},
{
horizontal = 1;
origin = (0,10);
target = (0,4);
type = Stem;
},
{
origin = (4,17);
target = (4,3);
type = Stem;
},
{
place = (124, 71);
place = (124, 71);
type = Stem;
},
{
place = (444, 62);
place = (444, 62);
type = Stem;
},
{
origin = (0,1);
target = (0,7);
type = Stem;
}
);
layerId = m01;
shapes = (
{
closed = 1;
nodes = (
(449,614,l),
(449,595,ls),
(449,537,o),
(496,490,o),
(554,490,cs),
(612,490,o),
(659,537,o),
(659,595,cs),
(659,653,o),
(612,700,o),
(554,700,cs),
(519,700,o),
(489,683,o),
(470,657,c)
);
},
{
closed = 1;
nodes = (
(527,610,o),
(539,622,o),
(554,622,cs),
(569,622,o),
(581,610,o),
(581,595,cs),
(581,580,o),
(569,568,o),
(554,568,cs),
(539,568,o),
(527,580,o),
(527,595,cs)
);
},
{
closed = 1;
nodes = (
(503,334,l),
(448,389,l),
(430,371,ls),
(375,316,o),
(357,297,o),
(325,265,c),
(380,210,l)
);
},
{
closed = 1;
nodes = (
(494,662,l),
(450,687,o),
(402,699,o),
(348,699,cs),
(292,700,o),
(237,676,o),
(198,630,cs),
(170,596,o),
(155,556,o),
(152,516,c),
(235,538,l),
(243,554,o),
(249,566,o),
(260,578,cs),
(283,607,o),
(316,621,o),
(349,621,cs),
(391,621,o),
(429,609,o),
(463,591,c)
);
},
{
closed = 1;
nodes = (
(182,260,l),
(160,275,o),
(145,294,o),
(136,319,cs),
(113,380,o),
(144,446,o),
(205,468,cs),
(248,484,o),
(293,474,o),
(324,445,c),
(376,503,l),
(336,540,o),
(281,558,o),
(227,552,c),
(169,538,l),
(74,499,o),
(26,390,o),
(62,292,cs),
(82,239,o),
(121,200,o),
(168,179,c)
);
},
{
closed = 1;
nodes = (
(450,299,l),
(461,290,o),
(467,279,o),
(473,267,cs),
(500,209,o),
(456,116,o),
(397,89,cs),
(339,62,o),
(270,87,o),
(243,145,cs),
(215,203,o),
(240,272,o),
(298,299,c),
(265,370,l),
(215,347,o),
(180,305,o),
(163,255,c),
(154,202,l),
(153,171,o),
(159,141,o),
(172,112,cs),
(217,15,o),
(333,-27,o),
(430,18,cs),
(528,64,o),
(570,179,o),
(525,276,cs),
(514,298,o),
(502,317,o),
(484,332,c)
);
}
);
width = 689;
}
);
},
{
glyphname = "ca_aaMatra-oriya";
layers = (
{
anchors = (
{
name = am;
pos = (700,659);
},
{
name = below;
pos = (516,-20);
},
{
name = bindu;
pos = (371,-96);
},
{
name = bottom;
pos = (633,17);
},
{
name = bottomtwo;
pos = (362,-258);
},
{
name = chanBin;
pos = (568,702);
},
{
name = nukta;
pos = (371,-50);
},
{
name = reph2;
pos = (633,4);
},
{
name = ru;
pos = (371,-7);
},
{
name = top;
pos = (371,754);
}
);
layerId = m01;
shapes = (
{
pos = (20,0);
ref = "ca-oriya";
},
{
closed = 1;
nodes = (
(611,0,ls),
(675,0,o),
(727,-11,o),
(727,-46,cs),
(727,-101,o),
(675,-103,o),
(611,-103,cs),
(607,-103,o),
(604,-103,o),
(601,-103,cs),
(594,-103,l),
(594,-196,l),
(794,-346,l),
(794,-248,l),
(694,-173,l),
(760,-159,o),
(805,-123,o),
(805,-46,cs),
(805,40,o),
(749,68,o),
(672,75,c),
(672,700,l),
(594,700,l),
(594,0,l)
);
}
);
width = 790;
}
);
},
{
glyphname = "ca_oMatra-oriya";
layers = (
{
anchors = (
{
name = am;
pos = (1290,659);
},
{
name = below;
pos = (1106,-20);
},
{
name = bindu;
pos = (961,-96);
},
{
name = bottom;
pos = (1223,17);
},
{
name = bottomtwo;
pos = (952,-258);
},
{
name = chanBin;
pos = (1158,702);
},
{
name = nukta;
pos = (961,-50);
},
{
name = reph2;
pos = (1223,4);
},
{
name = ru;
pos = (961,-7);
},
{
name = top;
pos = (961,754);
}
);
layerId = m01;
shapes = (
{
pos = (620,0);
ref = "ca-oriya";
},
{
pos = (20,0);
ref = "eMatra-oriya";
},
{
closed = 1;
nodes = (
(1211,0,ls),
(1275,0,o),
(1327,-11,o),
(1327,-46,cs),
(1327,-101,o),
(1275,-103,o),
(1211,-103,cs),
(1197,-103,l),
(1194,-103,l),
(1194,-199,l),
(1394,-349,l),
(1394,-251,l),
(1291,-174,l),
(1358,-160,o),
(1405,-124,o),
(1405,-46,cs),
(1405,40,o),
(1349,68,o),
(1272,75,c),
(1272,700,l),
(1194,700,l),
(1194,0,l)
);
}
);
width = 1390;
}
);
},
{
glyphname = "ca_iMatra-oriya";
layers = (
{
anchors = (
{
name = am;
pos = (686,659);
},
{
name = below;
pos = (502,-20);
},
{
name = bindu;
pos = (357,-96);
},
{
name = bottom;
pos = (499,17);
},
{
name = bottomtwo;
pos = (721,-146);
},
{
name = chanBin;
pos = (554,702);
},
{
name = nukta;
pos = (357,-50);
},
{
name = reph2;
pos = (619,4);
},
{
name = ru;
pos = (357,-7);
},
{
name = top;
pos = (357,754);
}
);
layerId = m01;
shapes = (
{
closed = 1;
nodes = (
(235,538,l),
(243,554,o),
(249,566,o),
(260,578,cs),
(283,607,o),
(316,621,o),
(349,621,cs),
(478,621,o),
(582,517,o),
(583,389,c),
(661,389,l),
(660,560,o),
(521,699,o),
(349,699,cs),
(348,699,ls),
(292,700,o),
(237,676,o),
(198,630,cs),
(170,596,o),
(155,556,o),
(152,516,c)
);
},
{
closed = 1;
nodes = (
(232,259,o),
(284,311,o),
(348,311,cs),
(413,311,o),
(465,259,o),
(465,194,cs),
(465,130,o),
(413,78,o),
(348,78,cs),
(284,78,o),
(232,130,o),
(232,194,cs)
);
},
{
closed = 1;
nodes = (
(154,203,l),
(149,92,o),
(238,0,o),
(348,0,cs),
(456,0,o),
(543,87,o),
(543,194,cs),
(543,302,o),
(456,389,o),
(348,389,cs),
(262,389,o),
(189,333,o),
(163,255,c)
);
},
{
closed = 1;
nodes = (
(181,261,l),
(162,273,o),
(145,294,o),
(136,319,cs),
(113,380,o),
(144,446,o),
(205,468,cs),
(248,484,o),
(293,474,o),
(324,445,c),
(376,503,l),
(336,540,o),
(281,558,o),
(227,552,c),
(169,538,l),
(74,499,o),
(26,390,o),
(62,292,cs),
(82,239,o),
(121,200,o),
(168,179,c)
);
}
);
width = 691;
}
);
},
{
glyphname = "cha_oMatra-oriya";
layers = (
{
anchors = (
{
name = am;
pos = (1310,659);
},
{
name = below;
pos = (1126,-20);
},
{
name = bindu;
pos = (981,-96);
},
{
name = bottom;
pos = (1013,-3);
},
{
name = bottomtwo;
pos = (1345,-146);
},
{
name = chanBin;
pos = (1178,702);
},
{
name = nukta;
pos = (981,-50);
},
{
name = reph2;
pos = (1243,4);
},
{
name = ru;
pos = (981,-7);
},
{
name = top;
pos = (981,754);
}
);
hints = (
{
origin = (7,15);
target = (7,16);
type = Stem;
},
{
origin = (7,17);
target = (7,3);
type = Stem;
},
{
origin = (7,3);
target = (7,4);
type = Stem;
},
{
origin = (7,14);
target = (7,18);
type = Stem;
},
{
origin = (2,8);
target = (7,5);
type = Stem;
},
{
origin = (7,13);
target = (7,19);
type = Stem;
},
{
origin = (7,6);
place = (404, 0);
type = Stem;
},
{
origin = (7,7);
target = (7,9);
type = Stem;
},
{
place = (1751, -1281);
place = (1751, -1281);
target = (2,7);
type = Stem;
},
{
origin = (7,8);
target = (7,10);
type = Stem;
},
{
origin = (7,10);
place = (600, 78);
type = Stem;
},
{
place = (1811, 0);
place = (1811, 0);
type = Stem;
}
);
layerId = m01;
shapes = (
{
closed = 1;
nodes = (
(928,188,o),
(876,240,o),
(876,304,cs),
(876,369,o),
(928,421,o),
(992,421,cs),
(1057,421,o),
(1109,369,o),
(1109,304,cs),
(1109,240,o),
(1057,188,o),
(992,188,cs)
);
},
{
closed = 1;
nodes = (
(405,0,l),
(513,0,o),
(600,87,o),
(600,194,cs),
(600,302,o),
(513,389,o),
(405,389,cs),
(298,389,o),
(211,302,o),
(211,194,cs),
(211,175,o),
(213,159,o),
(220,141,c)
);
},
{
closed = 1;
nodes = (
(289,259,o),
(341,311,o),
(405,311,cs),
(470,311,o),
(522,259,o),
(522,194,cs),
(522,130,o),
(470,78,o),
(405,78,cs),
(341,78,o),
(289,130,o),
(289,194,cs)
);
},
{
closed = 1;
nodes = (
(734,268,l),
(703,241,o),
(683,189,o),
(682,143,cs),
(682,65,o),
(738,0,o),
(807,0,cs),
(900,0,o),
(968,35,o),
(991,87,c),
(1014,35,o),
(1082,0,o),
(1175,0,cs),
(1244,0,o),
(1300,65,o),
(1300,143,cs),
(1299,217,o),
(1246,300,o),
(1187,290,c),
(1187,304,ls),
(1187,412,o),
(1100,499,o),
(992,499,cs),
(885,499,o),
(798,412,o),
(798,304,cs),
(798,278,l)
);
},
{
closed = 1;
nodes = (
(760,173,o),
(773,192,o),
(786,201,c),
(821,176,o),
(860,156,o),
(895,136,cs),
(910,127,o),
(926,121,o),
(943,116,c),
(892,83,o),
(825,78,o),
(807,78,cs),
(792,78,o),
(760,97,o),
(760,142,cs)
);
},
{
closed = 1;
nodes = (
(1091,129,o),
(1134,161,o),
(1160,205,c),
(1165,207,o),
(1169,209,o),
(1174,209,cs),
(1191,209,o),
(1222,191,o),
(1222,142,cs),
(1222,97,o),
(1190,78,o),
(1175,78,cs),
(1157,78,o),
(1090,83,o),
(1040,116,c)
);
},
{
pos = (1273,0);
ref = "aaMatra-oriya";
},
{
closed = 1;
nodes = (
(227,146,ls),
(169,197,o),
(133,270,o),
(133,352,cs),
(133,500,o),
(255,622,o),
(404,622,cs),
(459,622,o),
(509,605,o),
(552,577,c),
(600,638,l),
(544,677,o),
(476,700,o),
(402,700,cs),
(209,700,o),
(52,543,o),
(52,350,cs),
(52,157,o),
(209,0,o),
(402,0,cs),
(405,0,l)
);
},
{
closed = 1;
nodes = (
(809,284,l),
(781,308,o),
(758,338,o),
(758,388,cs),
(758,516,o),
(862,621,o),
(990,621,cs),
(1260,621,o),
(1312,417,o),
(1323,389,c),
(1401,389,l),
(1390,460,o),
(1303,699,o),
(990,699,cs),
(819,699,o),
(680,559,o),
(680,388,cs),
(680,327,o),
(702,282,o),
(733,247,c)
);
}
);
width = 1451;
}
);
},
{
glyphname = "ja_iMatra-oriya";
layers = (
{
anchors = (
{
name = am;
pos = (761,659);
},
{
name = below;
pos = (577,-20);
},
{
name = bindu;
pos = (432,-96);
},
{
name = bottom;
pos = (714,17);
},
{
name = bottomtwo;
pos = (796,-146);
},
{
name = chanBin;
pos = (629,702);
},
{
name = nukta;
pos = (432,-50);
},
{
name = reph2;
pos = (715,4);
},
{
name = ru;
pos = (432,-7);
},
{
name = top;
pos = (432,754);
}
);
layerId = m01;
shapes = (
{
closed = 1;
nodes = (
(213,536,l),
(226,586,o),
(271,622,o),
(325,622,cs),
(478,622,l),
(495,622,l),
(557,622,ls),
(621,622,o),
(673,570,o),
(673,505,c),
(751,505,l),
(751,613,o),
(664,700,o),
(557,700,cs),
(495,700,l),
(478,700,l),
(325,700,ls),
(216,700,o),
(128,610,o),
(131,500,c)
);
},
{
closed = 1;
nodes = (
(131,216,l),
(131,194,ls),
(131,87,o),
(218,0,o),
(325,0,cs),
(432,0,o),
(518,85,o),
(520,190,cs),
(520,330,l),
(476,277,l),
(717,319,l),
(673,356,l),
(673,0,l),
(751,0,l),
(751,389,l),
(673,389,l),
(442,349,l),
(442,194,ls),
(442,130,o),
(390,78,o),
(325,78,cs),
(261,78,o),
(209,130,o),
(209,194,cs),
(209,259,o),
(261,311,o),
(325,311,c),
(325,389,l),
(245,389,o),
(177,340,o),
(147,272,c)
);
},
{
closed = 1;
nodes = (
(165,274,l),
(151,287,o),
(142,302,o),
(136,319,cs),
(113,380,o),
(144,446,o),
(205,468,cs),
(248,484,o),
(293,474,o),
(324,445,c),
(376,503,l),
(330,545,o),
(265,562,o),
(202,548,c),
(145,526,l),
(66,480,o),
(29,381,o),
(62,292,cs),
(78,248,o),
(108,214,o),
(144,191,c)
);
}
);
width = 801;
}
);
},
{
glyphname = "dda_iMatra-oriya";
layers = (
{
anchors = (
{
name = am;
pos = (689,659);
},
{
name = below;
pos = (505,-20);
},
{
name = bindu;
pos = (360,-96);
},
{
name = bottom;
pos = (502,17);
},
{
name = bottomtwo;
pos = (724,-146);
},
{
name = chanBin;
pos = (557,702);
},
{
name = nukta;
pos = (360,-50);
},
{
name = reph2;
pos = (622,4);
},
{
name = ru;
pos = (360,-7);
},
{
name = top;
pos = (360,754);
}
);
layerId = m01;
shapes = (
{
closed = 1;
nodes = (
(235,538,l),
(243,554,o),
(249,566,o),
(260,578,cs),
(283,607,o),
(316,621,o),
(349,621,cs),
(478,621,o),
(582,517,o),
(583,389,c),
(661,389,l),
(660,560,o),
(521,699,o),
(349,699,cs),
(348,699,ls),
(292,700,o),
(237,676,o),
(198,630,cs),
(170,596,o),
(155,556,o),
(152,516,c)
);
},
{
closed = 1;
nodes = (
(505,334,l),
(450,389,l),
(432,371,ls),
(377,316,o),
(359,297,o),
(327,265,c),
(382,210,l)
);
},
{
closed = 1;
nodes = (
(156,201,l),
(155,170,o),
(161,141,o),
(174,112,cs),
(219,15,o),
(335,-27,o),
(432,18,cs),
(530,64,o),
(572,179,o),
(527,276,cs),
(516,298,o),
(504,317,o),
(486,332,c),
(452,299,l),
(463,290,o),
(469,279,o),
(475,267,cs),
(502,209,o),
(458,116,o),
(399,89,cs),
(341,62,o),
(272,87,o),
(245,145,cs),
(217,203,o),
(242,272,o),
(300,299,c),
(267,370,l),
(216,347,o),
(181,304,o),
(165,254,c)
);
},
{
closed = 1;
nodes = (
(169,538,l),
(74,499,o),
(26,390,o),
(62,292,cs),
(82,238,o),
(122,199,o),
(170,178,c),
(182,260,l),
(162,273,o),
(145,294,o),
(136,319,cs),
(113,380,o),
(144,446,o),
(205,468,cs),
(248,484,o),
(293,474,o),
(324,445,c),
(376,503,l),
(336,540,o),
(281,558,o),
(227,552,c)
);
}
);
width = 691;
}
);
},
{
glyphname = "ta_iMatra-oriya";
layers = (
{
anchors = (
{
name = am;
pos = (669,659);
},
{
name = below;
pos = (485,-20);
},
{
name = bindu;
pos = (340,-96);
},
{
name = bottom;
pos = (602,17);
},
{
name = bottomtwo;
pos = (331,-258);
},
{
name = chanBin;
pos = (537,702);
},
{
name = nukta;
pos = (340,-50);
},
{
name = reph2;
pos = (602,4);
},
{
name = ru;
pos = (340,-7);
},
{
name = top;
pos = (340,754);
}
);
layerId = m01;
shapes = (
{
closed = 1;
nodes = (
(235,538,l),
(243,554,o),
(249,566,o),
(260,578,cs),
(283,607,o),
(316,621,o),
(349,621,cs),
(478,621,o),
(582,517,o),
(583,389,c),
(661,389,l),
(660,560,o),
(521,699,o),
(349,699,cs),
(348,699,ls),
(292,700,o),
(237,676,o),
(198,630,cs),
(170,596,o),
(155,556,o),
(152,516,c)
);
},
{
closed = 1;
nodes = (
(156,201,l),
(155,170,o),
(161,141,o),
(174,112,cs),
(219,15,o),
(335,-27,o),
(432,18,cs),
(530,64,o),
(572,179,o),
(527,276,cs),
(506,320,o),
(472,352,o),
(432,371,c),
(399,300,l),
(423,289,o),
(444,270,o),
(456,243,cs),
(483,185,o),
(458,116,o),
(399,89,cs),
(341,62,o),
(272,87,o),
(245,145,cs),
(217,203,o),
(242,272,o),
(300,299,c),
(267,370,l),
(216,347,o),
(181,304,o),
(165,254,c)
);
},
{
closed = 1;
nodes = (
(182,260,l),
(162,273,o),
(145,294,o),
(136,319,cs),
(113,380,o),
(144,446,o),
(205,468,cs),
(248,484,o),
(293,474,o),
(324,445,c),
(376,503,l),
(336,540,o),
(281,558,o),
(227,552,c),
(169,538,l),
(74,499,o),
(26,390,o),
(62,292,cs),
(82,238,o),
(122,199,o),
(170,178,c)
);
}
);
width = 691;
}
);
},
{
glyphname = "tha_iMatra-oriya";
layers = (
{
anchors = (
{
name = am;
pos = (680,659);
},
{
name = below;
pos = (496,-20);
},
{
name = bindu;
pos = (351,-96);
},
{
name = bottom;
pos = (613,17);
},
{
name = bottomtwo;
pos = (342,-258);
},
{
name = chanBin;
pos = (548,702);
},
{
name = nukta;
pos = (351,-50);
},
{
name = reph2;
pos = (613,4);
},
{
name = ru;
pos = (351,-7);
},
{
name = top;
pos = (351,754);
}
);
layerId = m01;
shapes = (
{
ref = "tha-oriya";
},
{
closed = 1;
nodes = (
(522,-34,l),
(467,-89,l),
(687,-304,l),
(687,-199,l),
(577,-89,l),
(669,-1,l),
(614,54,l)
);
}
);
width = 727;
}
);
},
{
glyphname = "da_iMatra-oriya";
layers = (
{
anchors = (
{
name = am;
pos = (668,639);
},
{
name = below;
pos = (484,-40);
},
{
name = bindu;
pos = (339,-116);
},
{
name = bottom;
pos = (489,-2);
},
{
name = bottomtwo;
pos = (703,-166);
},
{
name = chanBin;
pos = (536,682);
},
{
name = nukta;
pos = (339,-70);
},
{
name = reph2;
pos = (601,-16);
},
{
name = ru;
pos = (339,-27);
},
{
name = top;
pos = (339,734);
}
);
guides = (
{
pos = (-340,311);
},
{
angle = -45;
pos = (330,291);
}
);
layerId = m01;
shapes = (
{
closed = 1;
nodes = (
(214,518,l),
(222,534,o),
(228,546,o),
(239,558,cs),
(262,587,o),
(295,601,o),
(328,601,cs),
(457,601,o),
(561,497,o),
(562,369,c),
(640,369,l),
(639,540,o),
(500,679,o),
(328,679,cs),
(327,679,ls),
(271,679,o),
(216,656,o),
(177,610,cs),
(149,576,o),
(134,536,o),
(131,496,c)
);
},
{
closed = 1;
nodes = (
(447,-20,l),
(525,-20,l),
(525,369,l),
(447,368,l)
);
},
{
closed = 1;
nodes = (
(148,518,l),
(53,479,o),
(5,370,o),
(41,272,cs),
(61,218,o),
(102,178,o),
(150,157,c),
(162,239,l),
(142,253,o),
(124,273,o),
(115,299,cs),
(92,360,o),
(123,426,o),
(184,448,cs),
(227,464,o),
(272,454,o),
(303,425,c),
(355,483,l),
(315,520,o),
(260,538,o),
(206,532,c)
);
},
{
closed = 1;
nodes = (
(287,364,l),
(219,349,o),
(165,298,o),
(145,233,c),
(136,181,l),
(132,71,o),
(220,-20,o),
(330,-20,cs),
(380,-20,o),
(424,-2,o),
(459,29,c),
(447,174,l),
(447,110,o),
(395,58,o),
(330,58,cs),
(266,58,o),
(214,110,o),
(214,174,cs),
(214,239,o),
(266,291,o),
(330,291,c),
(330,294,l)
);
}
);
width = 691;
}
);
},
{
glyphname = "dha_iMatra-oriya";
layers = (
{
anchors = (
{
name = am;
pos = (678,659);
},
{
name = below;
pos = (494,-20);
},
{
name = bindu;
pos = (349,-96);
},
{
name = bottom;
pos = (611,17);
},
{
name = bottomtwo;
pos = (340,-258);
},
{
name = chanBin;
pos = (546,702);
},
{
name = nukta;
pos = (349,-50);
},
{
name = reph2;
pos = (611,4);
},
{
name = ru;
pos = (349,-7);
},
{
name = top;
pos = (349,754);
}
);
layerId = m01;
shapes = (
{
ref = "dha-oriya";
},
{
closed = 1;
nodes = (
(525,-33,l),
(470,-88,l),
(690,-303,l),
(690,-198,l),
(580,-88,l),
(671,-1,l),
(616,54,l)
);
}
);
width = 730;
}
);
},
{
glyphname = "na_iMatra-oriya";
layers = (
{
anchors = (
{
name = am;
pos = (665,659);
},
{
name = below;
pos = (481,-20);
},
{
name = bindu;
pos = (336,-96);
},
{
name = bottom;
pos = (472,17);
},
{
name = bottomtwo;
pos = (700,-146);
},
{
name = chanBin;
pos = (533,702);
},
{
name = nukta;
pos = (336,-50);
},
{
name = reph2;
pos = (598,4);
},
{
name = ru;
pos = (336,-7);
},
{
name = top;
pos = (336,754);
}
);
layerId = m01;
shapes = (
{
closed = 1;
nodes = (
(235,538,l),
(243,554,o),
(249,566,o),
(260,578,cs),
(283,607,o),
(316,621,o),
(349,621,cs),
(478,621,o),
(582,517,o),
(583,389,c),
(661,389,l),
(660,560,o),
(521,699,o),
(349,699,cs),
(348,699,ls),
(292,700,o),
(237,676,o),
(198,630,cs),
(170,596,o),
(155,556,o),
(152,516,c)
);
},
{
closed = 1;
nodes = (
(101,39,l),
(169,-1,l),
(337,346,l),
(272,305,l),
(476,305,l),
(431,350,l),
(431,0,l),
(509,0,l),
(509,383,l),
(268,383,l)
);
},
{
closed = 1;
nodes = (
(218,246,l),
(181,254,o),
(150,280,o),
(136,319,cs),
(113,380,o),
(144,446,o),
(205,468,cs),
(248,484,o),
(293,474,o),
(324,445,c),
(376,503,l),
(336,540,o),
(281,558,o),
(227,552,c),
(169,538,l),
(74,499,o),
(26,390,o),
(62,292,cs),
(84,233,o),
(129,193,o),
(184,173,c)
);
}
);
width = 691;
}
);
},
{
glyphname = "ba_iMatra-oriya";
layers = (
{
anchors = (
{
name = am;
pos = (689,659);
},
{
name = below;
pos = (505,-20);
},
{
name = bindu;
pos = (360,-96);
},
{
name = bottom;
pos = (509,18);
},
{
name = bottomtwo;
pos = (724,-146);
},
{
name = chanBin;
pos = (557,702);
},
{
name = nukta;
pos = (360,-50);
},
{
name = reph2;
pos = (614,4);
},
{
name = ru;
pos = (360,-7);
},
{
name = top;
pos = (360,754);
}
);
layerId = m01;
shapes = (
{
closed = 1;
nodes = (
(467,130,o),
(416,78,o),
(351,78,cs),
(287,78,o),
(235,130,o),
(235,194,cs),
(235,259,o),
(287,311,o),
(351,311,cs),
(416,311,o),
(468,259,o),
(468,194,cs)
);
},
{
closed = 1;
nodes = (
(235,538,l),
(243,554,o),
(249,566,o),
(260,578,cs),
(283,607,o),
(316,621,o),
(349,621,cs),
(478,621,o),
(582,517,o),
(583,389,c),
(661,389,l),
(660,560,o),
(521,699,o),
(349,699,cs),
(348,699,ls),
(292,700,o),
(237,676,o),
(198,630,cs),
(170,596,o),
(155,556,o),
(152,516,c)
);
},
{
closed = 1;
nodes = (
(157,201,l),
(153,91,o),
(241,0,o),
(351,0,cs),
(401,0,o),
(441,19,o),
(468,50,c),
(468,0,l),
(546,0,l),
(546,194,ls),
(546,302,o),
(459,389,o),
(351,389,cs),
(264,389,o),
(190,332,o),
(166,253,c)
);
},
{
closed = 1;
nodes = (
(183,259,l),
(163,273,o),
(145,293,o),
(136,319,cs),
(113,380,o),
(144,446,o),
(205,468,cs),
(248,484,o),
(293,474,o),
(324,445,c),
(376,503,l),
(336,540,o),
(281,558,o),
(227,552,c),
(169,538,l),
(74,499,o),
(26,390,o),
(62,292,cs),
(82,238,o),
(123,198,o),
(171,177,c)
);
}
);
width = 691;
}
);
},
{
glyphname = "bha_aaMatra-oriya";
layers = (
{
anchors = (
{
name = am;
pos = (680,659);
},
{
name = below;
pos = (496,-20);
},
{
name = bindu;
pos = (351,-96);
},
{
name = bottom;
pos = (613,17);
},
{
name = bottomtwo;
pos = (715,-146);
},
{
name = chanBin;
pos = (548,702);
},
{
name = nukta;
pos = (351,-50);
},
{
name = reph2;
pos = (635,4);
},
{
name = ru;
pos = (351,-7);
},
{
name = top;
pos = (351,754);
}
);
layerId = m01;
shapes = (
{
closed = 1;
nodes = (
(57,88,o),
(144,8,o),
(252,1,cs),
(399,-9,o),
(487,80,o),
(519,187,cs),
(526,210,o),
(529,244,o),
(531,275,c),
(532,279,o),
(532,283,o),
(532,287,cs),
(532,291,ls),
(532,326,o),
(533,354,o),
(533,354,c),
(532,354,l),
(532,389,l),
(455,389,l),
(455,344,l),
(455,344,o),
(454,318,o),
(454,284,c),
(450,260,o),
(411,240,o),
(388,240,cs),
(361,241,o),
(322,261,o),
(322,288,cs),
(322,312,o),
(323,352,o),
(323,389,c),
(244,390,l),
(243,390,ls),
(179,390,o),
(128,441,o),
(128,505,cs),
(128,541,o),
(144,574,o),
(170,595,cs),
(190,612,o),
(216,622,o),
(244,622,cs),
(382,622,l),
(382,700,l),
(244,700,ls),
(194,700,o),
(148,681,o),
(113,649,cs),
(74,613,o),
(50,562,o),
(50,505,cs),
(50,441,o),
(81,385,o),
(128,350,c),
(84,314,o),
(57,258,o),
(57,195,cs)
);
},
{
closed = 1;
nodes = (
(135,257,o),
(183,312,o),
(244,312,c),
(244,287,ls),
(244,219,o),
(318,163,o),
(387,162,cs),
(407,162,o),
(429,167,o),
(448,176,c),
(430,119,o),
(355,70,o),
(252,79,cs),
(187,84,o),
(135,131,o),
(135,195,cs)
);
},
{
pos = (589,0);
ref = "aaMatra-oriya";
},
{
closed = 1;
nodes = (
(367,622,o),
(368,622,o),
(368,622,cs),
(520,622,o),
(640,502,o),
(640,350,c),
(718,351,l),
(718,546,o),
(563,700,o),
(368,700,cs),
(368,700,o),
(367,700,o),
(367,700,cs),
(367,622,ls)
);
},
{
closed = 1;
nodes = (
(245,23,l),
(465,-192,l),
(465,-87,l),
(300,78,l)
);
}
);
width = 790;
}
);
},
{
glyphname = "bha_iMatra-oriya";
layers = (
{
anchors = (
{
name = am;
pos = (700,659);
},
{
name = below;
pos = (516,-20);
},
{
name = bindu;
pos = (371,-96);
},
{
name = bottom;
pos = (633,17);
},
{
name = bottomtwo;
pos = (362,-258);
},
{
name = chanBin;
pos = (568,702);
},
{
name = nukta;
pos = (371,-50);
},
{
name = reph2;
pos = (633,4);
},
{
name = ru;
pos = (371,-7);
},
{
name = top;
pos = (371,754);
}
);
layerId = m01;
shapes = (
{
closed = 1;
nodes = (
(180,263,l),
(159,275,o),
(145,295,o),
(136,319,cs),
(113,380,o),
(144,446,o),
(205,468,cs),
(248,484,o),
(293,474,o),
(324,445,c),
(376,503,l),
(324,550,o),
(248,567,o),
(178,541,cs),
(77,505,o),
(25,393,o),
(62,292,cs),
(81,240,o),
(119,202,o),
(165,181,c)
);
},
{
closed = 1;
nodes = (
(229,257,o),
(276,307,o),
(337,312,c),
(337,288,ls),
(337,220,o),
(412,164,o),
(481,163,cs),
(502,163,o),
(523,168,o),
(543,177,c),
(525,120,o),
(449,70,o),
(346,79,cs),
(281,84,o),
(229,131,o),
(229,195,cs)
);
},
{
pos = (20,0);
ref = rightfull;
},
{
closed = 1;
nodes = (
(151,205,l),
(146,92,o),
(235,8,o),
(346,1,cs),
(493,-9,o),
(581,80,o),
(613,187,cs),
(620,210,o),
(623,245,o),
(625,277,c),
(626,280,o),
(626,284,o),
(626,288,cs),
(626,291,ls),
(627,326,o),
(627,354,o),
(627,354,c),
(626,354,l),
(626,390,l),
(549,390,l),
(549,344,l),
(549,344,o),
(548,319,o),
(548,285,c),
(544,261,o),
(505,241,o),
(482,241,cs),
(455,242,o),
(415,262,o),
(416,289,c),
(414,313,o),
(418,353,o),
(417,390,c),
(337,390,ls),
(254,386,o),
(186,332,o),
(161,257,c)
);
}
);
width = 868;
}
);
},
{
glyphname = "ra_aaMatra-oriya";
layers = (
{
anchors = (
{
name = am;
pos = (680,659);
},
{
name = below;
pos = (496,-20);
},
{
name = bindu;
pos = (351,-96);
},
{
name = bottom;
pos = (613,17);
},
{
name = bottomtwo;
pos = (715,-146);
},
{
name = chanBin;
pos = (548,702);
},
{
name = nukta;
pos = (351,-50);
},
{
name = reph2;
pos = (575,4);
},
{
name = ru;
pos = (351,-7);
},
{
name = top;
pos = (351,754);
}
);
layerId = m01;
shapes = (
{
closed = 1;
nodes = (
(180,78,o),
(128,130,o),
(128,194,cs),
(128,259,o),
(180,311,o),
(244,311,cs),
(309,311,o),
(361,259,o),
(361,194,cs),
(361,130,o),
(309,78,o),
(244,78,cs)
);
},
{
closed = 1;
nodes = (
(244,389,l),
(180,389,o),
(128,441,o),
(128,505,cs),
(128,570,o),
(180,622,o),
(244,622,cs),
(277,622,l),
(327,622,l),
(327,700,l),
(277,700,l),
(244,700,ls),
(137,700,o),
(50,613,o),
(50,505,cs),
(50,436,o),
(86,375,o),
(140,341,c)
);
},
{
pos = (550,0);
ref = "aaMatra-oriya";
},
{
pos = (-107,0);
ref = topright;
},
{
closed = 1;
nodes = (
(193,15,l),
(405,-192,l),
(405,-87,l),
(297,21,l)
);
},
{
closed = 1;
nodes = (
(293,5,l),
(376,27,o),
(439,103,o),
(439,194,cs),
(439,319,o),
(324,415,o),
(191,383,c),
(109,357,o),
(50,284,o),
(50,194,cs),
(50,95,o),
(124,12,o),
(220,1,c)
);
}
);
width = 728;
}
);
},
{
glyphname = "ra_iiMatra-oriya";
layers = (
{
anchors = (
{
name = am;
pos = (680,659);
},
{
name = below;
pos = (496,-20);
},
{
name = bindu;
pos = (351,-96);
},
{
name = bottom;
pos = (613,17);
},
{
name = bottomtwo;
pos = (715,-146);
},
{
name = chanBin;
pos = (548,702);
},
{
name = nukta;
pos = (351,-50);
},
{
name = reph2;
pos = (575,4);
},
{
name = ru;
pos = (351,-7);
},
{
name = top;
pos = (351,754);
}
);
layerId = m01;
shapes = (
{
closed = 1;
nodes = (
(180,78,o),
(128,130,o),
(128,194,cs),
(128,259,o),
(180,311,o),
(244,311,cs),
(309,311,o),
(361,259,o),
(361,194,cs),
(361,130,o),
(309,78,o),
(244,78,cs)
);
},
{
closed = 1;
nodes = (
(193,15,l),
(405,-192,l),
(405,-87,l),
(297,21,l)
);
},
{
pos = (563,0);
ref = "iiMatra-oriya";
},
{
pos = (-113,0);
ref = topright2;
},
{
closed = 1;
nodes = (
(245,389,l),
(244,389,ls),
(180,389,o),
(128,441,o),
(128,505,cs),
(128,570,o),
(180,622,o),
(244,622,cs),
(277,622,l),
(327,622,l),
(327,700,l),
(277,700,l),
(244,700,ls),
(137,700,o),
(50,613,o),
(50,505,cs),
(50,436,o),
(86,375,o),
(140,341,c)
);
},
{
closed = 1;
nodes = (
(106,354,o),
(50,281,o),
(50,194,cs),
(50,95,o),
(124,12,o),
(220,1,c),
(293,5,l),
(376,27,o),
(439,103,o),
(439,194,cs),
(439,322,o),
(319,418,o),
(184,381,c)
);
}
);
width = 881;
}
);
},
{
glyphname = "ra_oMatra-oriya";
layers = (
{
anchors = (
{
name = am;
pos = (1320,659);
},
{
name = below;
pos = (1136,-20);
},
{
name = bindu;
pos = (991,-96);
},
{
name = bottom;
pos = (1253,17);
},
{
name = bottomtwo;
pos = (982,-258);
},
{
name = chanBin;
pos = (1188,702);
},
{
name = nukta;
pos = (991,-50);
},
{
name = reph2;
pos = (1253,4);
},
{
name = ru;
pos = (991,-7);
},
{
name = top;
pos = (991,754);
}
);
layerId = m01;
shapes = (
{
pos = (20,0);
ref = "eMatra-oriya";
},
{
closed = 1;
nodes = (
(800,78,o),
(748,130,o),
(748,194,cs),
(748,259,o),
(800,311,o),
(864,311,cs),
(929,311,o),
(981,259,o),
(981,194,cs),
(981,130,o),
(929,78,o),
(864,78,cs)
);
},
{
closed = 1;
nodes = (
(865,389,l),
(864,389,ls),
(800,389,o),
(748,441,o),
(748,505,cs),
(748,570,o),
(800,622,o),
(864,622,cs),
(897,622,l),
(947,622,l),
(947,700,l),
(897,700,l),
(864,700,ls),
(757,700,o),
(670,613,o),
(670,505,cs),
(670,436,o),
(706,375,o),
(760,341,c)
);
},
{
pos = (1171,0);
ref = "aaMatra-oriya";
},
{
pos = (513,0);
ref = topright;
},
{
closed = 1;
nodes = (
(817,14,l),
(1028,-192,l),
(1028,-87,l),
(919,22,l)
);
},
{
closed = 1;
nodes = (
(974,2,o),
(1059,88,o),
(1059,194,cs),
(1059,322,o),
(939,418,o),
(804,381,c),
(726,354,o),
(670,281,o),
(670,194,cs),
(670,85,o),
(759,-3,o),
(869,0,cs)
);
}
);
width = 1348;
}
);
},
{
glyphname = "ra_iMatra-oriya";
layers = (
{
anchors = (
{
name = am;
pos = (780,659);
},
{
name = below;
pos = (596,-20);
},
{
name = bindu;
pos = (451,-96);
},
{
name = bottom;
pos = (713,17);
},
{
name = bottomtwo;
pos = (815,-146);
},
{
name = chanBin;
pos = (648,702);
},
{
name = nukta;
pos = (451,-50);
},
{
name = reph2;
pos = (675,4);
},
{
name = ru;
pos = (451,-7);
},
{
name = top;
pos = (451,754);
}
);
layerId = m01;
shapes = (
{
closed = 1;
nodes = (
(213,536,l),
(226,586,o),
(271,622,o),
(325,622,cs),
(445,622,l),
(445,700,l),
(325,700,ls),
(216,700,o),
(128,610,o),
(131,500,c)
);
},
{
closed = 1;
nodes = (
(228,259,o),
(280,311,o),
(344,311,cs),
(409,311,o),
(461,259,o),
(461,194,cs),
(461,130,o),
(409,78,o),
(344,78,cs),
(280,78,o),
(228,130,o),
(228,194,cs)
);
},
{
closed = 1;
nodes = (
(452,622,l),
(445,622,ls)
);
},
{
closed = 1;
nodes = (
(452,700,l),
(445,700,l)
);
},
{
pos = (-10,0);
ref = right;
},
{
closed = 1;
nodes = (
(150,205,l),
(144,93,o),
(233,0,o),
(344,0,cs),
(452,0,o),
(539,87,o),
(539,194,cs),
(539,302,o),
(452,389,o),
(344,389,cs),
(259,389,o),
(186,334,o),
(160,257,c)
);
},
{
closed = 1;
nodes = (
(178,261,l),
(159,277,o),
(145,295,o),
(136,319,cs),
(113,380,o),
(144,446,o),
(205,468,cs),
(248,484,o),
(293,474,o),
(324,445,c),
(376,503,l),
(330,545,o),
(265,562,o),
(202,548,c),
(145,526,l),
(66,480,o),
(29,381,o),
(62,292,cs),
(81,241,o),
(119,202,o),
(164,181,c)
);
}
);
width = 825;
}
);
},
{
glyphname = "la_aaMatra-oriya";
layers = (
{
anchors = (
{
name = am;
pos = (680,659);
},
{
name = below;
pos = (496,-20);
},
{
name = bindu;
pos = (351,-96);
},
{
name = bottom;
pos = (613,17);
},
{
name = bottomtwo;
pos = (715,-146);
},
{
name = chanBin;
pos = (548,702);
},
{
name = nukta;
pos = (351,-50);
},
{
name = reph2;
pos = (685,4);
},
{
name = ru;
pos = (351,-7);
},
{
name = top;
pos = (351,754);
}
);
hints = (
{
horizontal = 1;
place = (-700, 78);
place = (-700, 78);
type = Stem;
},
{
horizontal = 1;
place = (-389, 78);
place = (-389, 78);
type = Stem;
},
{
horizontal = 1;
place = (622, 78);
place = (622, 78);
type = Stem;
},
{
place = (-16, 46);
place = (-16, 46);
type = Stem;
},
{
place = (447, 50);
place = (447, 50);
type = Stem;
}
);
layerId = m01;
shapes = (
{
closed = 1;
nodes = (
(234,384,l),
(172,407,o),
(128,444,o),
(128,505,cs),
(128,570,o),
(180,622,o),
(244,622,cs),
(277,622,l),
(434,622,l),
(435,622,ls),
(587,622,o),
(707,502,o),
(707,350,c),
(785,351,l),
(785,545,o),
(631,699,o),
(437,700,cs),
(434,700,l),
(277,700,l),
(244,700,ls),
(137,700,o),
(50,613,o),
(50,505,cs),
(50,445,o),
(77,392,o),
(120,357,c)
);
},
{
pos = (657,0);
ref = "aaMatra-oriya";
},
{
closed = 1;
nodes = (
(292,13,l),
(502,-192,l),
(502,-87,l),
(326,89,l)
);
},
{
closed = 1;
nodes = (
(337,2,l),
(337,267,ls),
(337,284,o),
(355,315,o),
(404,315,cs),
(449,315,o),
(468,283,o),
(468,268,cs),
(468,2,l),
(546,2,l),
(546,268,ls),
(546,337,o),
(481,393,o),
(403,393,cs),
(362,392,o),
(325,377,o),
(298,353,c),
(273,377,o),
(239,392,o),
(200,392,c),
(123,376,l),
(80,354,o),
(50,313,o),
(50,268,cs),
(50,2,l),
(128,2,l),
(128,267,ls),
(128,284,o),
(146,315,o),
(195,315,cs),
(240,315,o),
(259,283,o),
(259,268,cs),
(259,2,l)
);
}
);
width = 849;
}
);
},
{
glyphname = "la_iiMatra-oriya";
layers = (
{
anchors = (
{
name = am;
pos = (680,659);
},
{
name = below;
pos = (496,-20);
},
{
name = bindu;
pos = (351,-96);
},
{
name = bottom;
pos = (613,17);
},
{
name = bottomtwo;
pos = (715,-146);
},
{
name = chanBin;
pos = (548,702);
},
{
name = nukta;
pos = (351,-50);
},
{
name = reph2;
pos = (685,4);
},
{
name = ru;
pos = (351,-7);
},
{
name = top;
pos = (351,754);
}
);
hints = (
{
horizontal = 1;
place = (-700, 78);
place = (-700, 78);
type = Stem;
},
{
horizontal = 1;
place = (-389, 78);
place = (-389, 78);
type = Stem;
},
{
horizontal = 1;
place = (622, 78);
place = (622, 78);
type = Stem;
},
{
place = (-16, 46);
place = (-16, 46);
type = Stem;
},
{
place = (447, 50);
place = (447, 50);
type = Stem;
}
);
layerId = m01;
shapes = (
{
closed = 1;
nodes = (
(292,13,l),
(502,-192,l),
(502,-87,l),
(326,89,l)
);
},
{
pos = (627,0);
ref = "iiMatra-oriya";
},
{
pos = (-50,0);
ref = topright2;
},
{
closed = 1;
nodes = (
(234,384,l),
(172,407,o),
(128,444,o),
(128,505,cs),
(128,570,o),
(180,622,o),
(244,622,cs),
(277,622,l),
(387,622,l),
(387,700,l),
(277,700,l),
(244,700,ls),
(137,700,o),
(50,613,o),
(50,505,cs),
(50,445,o),
(77,392,o),
(120,357,c)
);
},
{
closed = 1;
nodes = (
(123,376,l),
(80,354,o),
(50,313,o),
(50,268,cs),
(50,2,l),
(128,2,l),
(128,267,ls),
(128,284,o),
(146,315,o),
(195,315,cs),
(240,315,o),
(259,283,o),
(259,268,cs),
(259,2,l),
(337,2,l),
(337,267,ls),
(337,284,o),
(355,315,o),
(404,315,cs),
(449,315,o),
(468,283,o),
(468,268,cs),
(468,2,l),
(546,2,l),
(546,268,ls),
(546,337,o),
(481,393,o),
(403,393,cs),
(362,392,o),
(325,377,o),
(298,353,c),
(273,377,o),
(239,392,o),
(200,392,c)
);
}
);
width = 961;
}
);
},
{
glyphname = "la_oMatra-oriya";
layers = (
{
anchors = (
{
name = am;
pos = (1310,659);
},
{
name = below;
pos = (1126,-20);
},
{
name = bindu;
pos = (981,-96);
},
{
name = bottom;
pos = (1243,17);
},
{
name = bottomtwo;
pos = (972,-258);
},
{
name = chanBin;
pos = (1178,702);
},
{
name = nukta;
pos = (981,-50);
},
{
name = reph2;
pos = (1243,4);
},
{
name = ru;
pos = (981,-7);
},
{
name = top;
pos = (981,754);
}
);
layerId = m01;
shapes = (
{
pos = (20,0);
ref = "eMatra-oriya";
},
{
closed = 1;
nodes = (
(931,13,l),
(1141,-192,l),
(1141,-87,l),
(966,88,l)
);
},
{
pos = (1297,0);
ref = "aaMatra-oriya";
},
{
closed = 1;
nodes = (
(874,384,l),
(812,407,o),
(768,444,o),
(768,505,cs),
(768,570,o),
(820,622,o),
(884,622,cs),
(917,622,l),
(1074,622,l),
(1075,622,ls),
(1227,622,o),
(1347,502,o),
(1347,350,c),
(1425,351,l),
(1425,545,o),
(1271,699,o),
(1077,700,cs),
(1074,700,l),
(917,700,l),
(884,700,ls),
(777,700,o),
(690,613,o),
(690,505,cs),
(690,445,o),
(717,392,o),
(760,357,c)
);
},
{
closed = 1;
nodes = (
(763,376,l),
(720,354,o),
(690,313,o),
(690,268,cs),
(690,2,l),
(768,2,l),
(768,267,ls),
(768,284,o),
(786,315,o),
(835,315,cs),
(880,315,o),
(899,283,o),
(899,268,cs),
(899,2,l),
(977,2,l),
(977,267,ls),
(977,284,o),
(995,315,o),
(1044,315,cs),
(1089,315,o),
(1108,283,o),
(1108,268,cs),
(1108,2,l),
(1186,2,l),
(1186,268,ls),
(1186,337,o),
(1121,393,o),
(1043,393,cs),
(1002,392,o),
(965,377,o),
(938,353,c),
(913,377,o),
(879,392,o),
(840,392,c)
);
}
);
width = 1494;
}
);
},
{
glyphname = "la_iMatra-oriya";
layers = (
{
anchors = (
{
name = am;
pos = (780,659);
},
{
name = below;
pos = (596,-20);
},
{
name = bindu;
pos = (451,-96);
},
{
name = bottom;
pos = (713,17);
},
{
name = bottomtwo;
pos = (815,-146);
},
{
name = chanBin;
pos = (648,702);
},
{
name = nukta;
pos = (451,-50);
},
{
name = reph2;
pos = (785,4);
},
{
name = ru;
pos = (451,-7);
},
{
name = top;
pos = (451,754);
}
);
hints = (
{
horizontal = 1;
place = (-700, 78);
place = (-700, 78);
type = Stem;
},
{
horizontal = 1;
place = (-389, 78);
place = (-389, 78);
type = Stem;
},
{
horizontal = 1;
place = (622, 78);
place = (622, 78);
type = Stem;
},
{
place = (-16, 46);
place = (-16, 46);
type = Stem;
},
{
place = (447, 50);
place = (447, 50);
type = Stem;
}
);
layerId = m01;
shapes = (
{
closed = 1;
nodes = (
(213,536,l),
(226,586,o),
(271,622,o),
(325,622,cs),
(543,622,l),
(543,700,l),
(325,700,ls),
(216,700,o),
(128,610,o),
(131,500,c)
);
},
{
closed = 1;
nodes = (
(550,622,l),
(543,622,ls)
);
},
{
closed = 1;
nodes = (
(550,700,l),
(543,700,l)
);
},
{
pos = (99,0);
ref = right;
},
{
closed = 1;
nodes = (
(150,204,l),
(150,2,l),
(228,2,l),
(228,267,ls),
(228,284,o),
(246,315,o),
(295,315,cs),
(340,315,o),
(359,283,o),
(359,268,cs),
(359,2,l),
(437,2,l),
(437,267,ls),
(437,284,o),
(455,315,o),
(504,315,cs),
(549,315,o),
(568,283,o),
(568,268,cs),
(568,2,l),
(646,2,l),
(646,268,ls),
(646,337,o),
(581,393,o),
(503,393,cs),
(462,392,o),
(425,377,o),
(398,353,c),
(372,378,o),
(335,393,o),
(294,393,cs),
(217,392,o),
(153,339,o),
(150,273,c)
);
},
{
closed = 1;
nodes = (
(163,274,l),
(150,289,o),
(142,303,o),
(136,319,cs),
(113,380,o),
(144,446,o),
(205,468,cs),
(248,484,o),
(293,474,o),
(324,445,c),
(376,503,l),
(330,545,o),
(265,562,o),
(202,548,c),
(145,526,l),
(66,480,o),
(29,381,o),
(62,292,cs),
(81,241,o),
(119,202,o),
(164,181,c)
);
}
);
width = 975;
}
);
},
{
glyphname = "lla_iMatra-oriya";
layers = (
{
anchors = (
{
name = am;
pos = (649,659);
},
{
name = below;
pos = (465,-20);
},
{
name = bindu;
pos = (320,-96);
},
{
name = bottom;
pos = (542,19);
},
{
name = bottomtwo;
pos = (684,-146);
},
{
name = chanBin;
pos = (517,702);
},
{
name = nukta;
pos = (320,-50);
},
{
name = reph2;
pos = (544,4);
},
{
name = ru;
pos = (320,-7);
},
{
name = top;
pos = (320,754);
}
);
layerId = m01;
shapes = (
{
closed = 1;
nodes = (
(215,538,l),
(223,554,o),
(229,566,o),
(240,578,cs),
(263,607,o),
(296,621,o),
(329,621,cs),
(458,621,o),
(562,517,o),
(563,389,c),
(641,389,l),
(640,560,o),
(501,699,o),
(329,699,cs),
(328,699,ls),
(272,700,o),
(217,676,o),
(178,630,cs),
(150,596,o),
(135,556,o),
(132,516,c)
);
},
{
closed = 1;
nodes = (
(82,274,l),
(82,13,o),
(81,69,o),
(82,2,c),
(162,2,l),
(163,39,o),
(159,239,o),
(161,263,c),
(160,290,o),
(200,310,o),
(227,311,cs),
(247,311,o),
(280,296,o),
(290,276,c),
(289,272,o),
(289,268,o),
(289,264,cs),
(289,15,o),
(288,69,o),
(289,2,c),
(371,2,l),
(372,104,o),
(371,11,o),
(371,264,cs),
(371,268,o),
(371,271,o),
(370,275,c),
(379,296,o),
(411,310,o),
(434,311,cs),
(458,311,o),
(500,289,o),
(500,264,cs),
(500,239,o),
(502,55,o),
(501,2,c),
(578,2,l),
(579,104,o),
(578,11,o),
(578,264,cs),
(578,333,o),
(501,389,o),
(433,389,cs),
(396,388,o),
(358,372,o),
(330,347,c),
(302,373,o),
(263,389,o),
(226,389,cs),
(179,388,o),
(128,362,o),
(102,323,c)
);
},
{
closed = 1;
nodes = (
(116,319,l),
(93,380,o),
(124,446,o),
(185,468,cs),
(228,484,o),
(273,474,o),
(304,445,c),
(356,503,l),
(316,540,o),
(261,558,o),
(207,552,c),
(149,538,l),
(54,499,o),
(6,390,o),
(42,292,cs),
(54,262,o),
(70,236,o),
(93,215,c)
);
}
);
width = 681;
}
);
},
{
glyphname = "rra_iMatra-oriya";
layers = (
{
layerId = m01;
shapes = (
{
closed = 1;
nodes = (
(215,538,l),
(223,554,o),
(229,566,o),
(240,578,cs),
(263,607,o),
(296,621,o),
(329,621,cs),
(458,621,o),
(562,517,o),
(563,389,c),
(641,389,l),
(640,560,o),
(501,699,o),
(329,699,cs),
(328,699,ls),
(272,700,o),
(217,676,o),
(178,630,cs),
(150,596,o),
(135,556,o),
(132,516,c)
);
},
{
closed = 1;
nodes = (
(256,-60,o),
(285,-31,o),
(320,-31,cs),
(356,-31,o),
(385,-60,o),
(385,-96,cs),
(385,-131,o),
(356,-160,o),
(320,-160,cs),
(285,-160,o),
(256,-131,o),
(256,-96,cs)
);
},
{
closed = 1;
nodes = (
(486,334,l),
(431,389,l),
(413,371,ls),
(358,316,o),
(340,297,o),
(308,265,c),
(363,210,l)
);
},
{
closed = 1;
nodes = (
(137,199,l),
(136,171,o),
(142,140,o),
(155,112,cs),
(200,15,o),
(316,-27,o),
(413,18,cs),
(511,64,o),
(553,179,o),
(508,276,cs),
(497,298,o),
(485,317,o),
(467,332,c),
(433,299,l),
(444,290,o),
(450,279,o),
(456,267,cs),
(483,209,o),
(439,116,o),
(380,89,cs),
(322,62,o),
(253,87,o),
(226,145,cs),
(198,203,o),
(223,272,o),
(281,299,c),
(248,370,l),
(197,347,o),
(162,304,o),
(146,253,c)
);
},
{
closed = 1;
nodes = (
(149,538,l),
(54,499,o),
(6,390,o),
(42,292,cs),
(62,238,o),
(103,198,o),
(151,177,c),
(163,259,l),
(143,273,o),
(125,293,o),
(116,319,cs),
(93,380,o),
(124,446,o),
(185,468,cs),
(228,484,o),
(273,474,o),
(304,445,c),
(356,503,l),
(316,540,o),
(261,558,o),
(207,552,c)
);
}
);
width = 691;
}
);
},
{
glyphname = "a-oriya";
layers = (
{
anchors = (
{
name = chanBin;
pos = (548,702);
}
);
layerId = m01;
shapes = (
{
closed = 1;
nodes = (
(337,1,l),
(337,79,l),
(244,79,ls),
(180,79,o),
(128,131,o),
(128,196,cs),
(128,260,o),
(180,312,o),
(244,312,cs),
(258,312,ls),
(360,311,o),
(227,312,o),
(382,312,cs),
(431,312,o),
(544,367,o),
(547,493,cs),
(547,575,ls),
(547,644,o),
(482,700,o),
(404,700,cs),
(363,699,o),
(326,684,o),
(299,660,c),
(273,685,o),
(236,700,o),
(195,700,cs),
(116,699,o),
(51,643,o),
(51,575,cs),
(51,439,l),
(129,439,l),
(129,574,ls),
(129,591,o),
(147,622,o),
(196,622,cs),
(241,622,o),
(260,590,o),
(260,575,cs),
(260,439,l),
(338,439,l),
(338,574,ls),
(338,591,o),
(356,622,o),
(405,622,cs),
(450,622,o),
(469,590,o),
(469,575,cs),
(469,496,l),
(469,493,ls),
(468,411,o),
(387,390,o),
(382,390,cs),
(327,390,l),
(258,390,l),
(244,390,ls),
(137,390,o),
(50,303,o),
(50,196,cs),
(50,88,o),
(137,1,o),
(244,1,cs)
);
},
{
closed = 1;
nodes = (
(361,1,l),
(337,1,ls)
);
},
{
closed = 1;
nodes = (
(361,79,l),
(337,79,l)
);
},
{
closed = 1;
nodes = (
(679,0,l),
(679,700,l),
(601,700,l),
(601,0,l)
);
},
{
angle = -90;
pos = (-21,786);
ref = topright;
}
);
width = 729;
}
);
unicode = 2821;
},
{
glyphname = "i-oriya";
layers = (
{
anchors = (
{
name = chanBin;
pos = (548,702);
}
);
guides = (
{
angle = 45;
pos = (384,350);
},
{
angle = 90;
pos = (382,295);
},
{
pos = (833,352);
},
{
angle = 99.9811;
pos = (834,353);
}
);
layerId = m01;
shapes = (
{
closed = 1;
nodes = (
(437,700,l),
(244,700,ls),
(137,700,o),
(50,613,o),
(50,505,cs),
(50,398,o),
(137,311,o),
(244,311,cs),
(245,311,l),
(243,382,l),
(176,403,o),
(128,441,o),
(128,505,cs),
(128,570,o),
(180,622,o),
(244,622,cs),
(437,622,l)
);
},
{
ref = right;
},
{
pos = (-64,0);
ref = circles.oriya;
}
);
width = 815;
}
);
unicode = 2823;
},
{
glyphname = "ii-oriya";
layers = (
{
anchors = (
{
name = chanBin;
pos = (748,702);
}
);
guides = (
{
pos = (495,456);
}
);
layerId = m01;
shapes = (
{
closed = 1;
nodes = (
(259,503,l),
(259,505,ls),
(259,570,o),
(311,622,o),
(375,622,cs),
(558,622,l),
(558,700,l),
(375,700,ls),
(268,700,o),
(181,613,o),
(181,505,cs),
(181,499,o),
(181,493,o),
(182,487,c)
);
},
{
pos = (52,0);
ref = circles.oriya;
},
{
pos = (80,7);
ref = matrai;
},
{
pos = (115,0);
ref = right;
}
);
width = 975;
}
);
unicode = 2824;
},
{
glyphname = "u-oriya";
layers = (
{
anchors = (
{
name = chanBin;
pos = (548,702);
}
);
layerId = m01;
shapes = (
{
closed = 1;
nodes = (
(355,272,l),
(367,254,o),
(374,231,o),
(374,207,cs),
(374,123,o),
(295,78,o),
(230,78,cs),
(166,78,o),
(114,130,o),
(115,193,cs),
(113,258,o),
(166,310,o),
(229,310,c),
(229,311,l),
(230,311,l),
(230,389,l),
(229,389,ls),
(165,389,o),
(113,441,o),
(113,505,cs),
(113,570,o),
(165,622,o),
(229,622,cs),
(262,622,l),
(312,622,l),
(312,700,l),
(262,700,l),
(229,700,ls),
(122,700,o),
(35,613,o),
(35,505,cs),
(35,441,o),
(66,385,o),
(113,349,c),
(66,314,o),
(36,257,o),
(36,194,cs),
(36,87,o),
(124,0,o),
(230,0,cs),
(338,0,o),
(425,86,o),
(425,194,cs),
(425,237,o),
(411,276,o),
(388,308,c)
);
},
{
pos = (-123,0);
ref = right;
},
{
closed = 1;
nodes = (
(386,289,l),
(432,335,l),
(377,390,l),
(309,321,o),
(290,301,o),
(255,266,c),
(310,211,l),
(370,271,l)
);
}
);
width = 691;
}
);
unicode = 2825;
},
{
glyphname = "uu-oriya";
layers = (
{
anchors = (
{
name = chanBin;
pos = (548,702);
}
);
layerId = m01;
shapes = (
{
closed = 1;
nodes = (
(347,283,l),
(364,262,o),
(374,236,o),
(374,207,cs),
(374,123,o),
(295,78,o),
(230,78,cs),
(166,78,o),
(114,130,o),
(115,193,cs),
(113,258,o),
(166,310,o),
(229,310,c),
(229,388,l),
(123,389,o),
(36,301,o),
(36,194,cs),
(36,87,o),
(124,0,o),
(230,0,cs),
(338,0,o),
(425,86,o),
(425,194,cs),
(425,242,o),
(408,285,o),
(380,319,c)
);
},
{
closed = 1;
nodes = (
(377,390,l),
(377,390,o),
(377,390,o),
(377,390,cs),
(309,321,o),
(290,301,o),
(255,266,c),
(310,211,l),
(338,239,o),
(394,297,o),
(432,335,cs),
(432,335,o),
(432,335,o),
(432,335,c)
);
},
{
closed = 1;
nodes = (
(312,700,l),
(312,700,o),
(262,700,o),
(262,700,cs),
(262,700,o),
(253,700,o),
(229,700,cs),
(122,700,o),
(35,613,o),
(35,505,cs),
(35,398,o),
(122,311,o),
(229,311,cs),
(337,311,o),
(230,311,o),
(230,311,c),
(230,389,l),
(230,389,o),
(294,389,o),
(229,389,cs),
(165,389,o),
(113,441,o),
(113,505,cs),
(113,570,o),
(165,622,o),
(229,622,cs),
(294,622,o),
(262,622,o),
(262,622,cs),
(262,622,o),
(312,622,o),
(312,622,c)
);
},
{
closed = 1;
nodes = (
(584,351,o),
(584,351,o),
(584,351,cs),
(577,279,o),
(520,288,o),
(481,288,c),
(461,210,l),
(526,210,o),
(662,226,o),
(662,351,cs),
(662,351,o),
(662,351,o),
(662,351,cs),
(584,351,ls)
);
},
{
closed = 1;
nodes = (
(311,622,o),
(312,622,o),
(312,622,cs),
(464,622,o),
(584,502,o),
(584,350,c),
(662,351,l),
(662,546,o),
(507,700,o),
(312,700,cs),
(312,700,o),
(311,700,o),
(311,700,cs),
(311,622,ls)
);
},
{
closed = 1;
nodes = (
(522,-1,l),
(525,-1,o),
(527,-1,o),
(529,-1,cs),
(597,-1,o),
(653,74,o),
(654,143,c),
(654,211,o),
(598,289,o),
(529,288,c),
(481,288,l),
(461,211,l),
(434,212,o),
(504,210,o),
(529,210,cs),
(554,210,o),
(576,168,o),
(576,144,c),
(575,117,o),
(555,77,o),
(528,76,cs),
(517,76,o),
(506,76,o),
(494,77,c)
);
},
{
closed = 1;
nodes = (
(410,77,l),
(630,-138,l),
(630,-33,l),
(489,108,l)
);
}
);
width = 692;
}
);
unicode = 2826;
},
{
glyphname = "rVocalic-oriya";
layers = (
{
anchors = (
{
name = chanBin;
pos = (548,702);
}
);
layerId = m01;
shapes = (
{
closed = 1;
nodes = (
(489,108,l),
(410,77,l),
(630,-138,l),
(630,-33,l)
);
},
{
closed = 1;
nodes = (
(113,259,o),
(165,311,o),
(229,311,cs),
(294,311,o),
(346,259,o),
(346,194,cs),
(346,130,o),
(294,78,o),
(229,78,cs),
(165,78,o),
(113,130,o),
(113,194,cs)
);
},
{
closed = 1;
nodes = (
(452,211,o),
(454,211,o),
(461,211,cs)
);
},
{
closed = 1;
nodes = (
(95,359,o),
(35,284,o),
(35,194,cs),
(35,87,o),
(122,0,o),
(229,0,cs),
(337,0,o),
(424,87,o),
(424,194,cs),
(424,319,o),
(307,417,o),
(175,382,cs)
);
},
{
closed = 1;
nodes = (
(568,8,l),
(618,29,o),
(653,88,o),
(654,143,cs),
(654,180,o),
(637,220,o),
(611,248,c),
(641,269,o),
(662,302,o),
(662,351,cs),
(662,546,o),
(507,700,o),
(312,700,cs),
(311,700,ls),
(304,700,o),
(262,700,o),
(262,700,c),
(229,700,ls),
(122,700,o),
(35,613,o),
(35,505,cs),
(35,436,o),
(71,375,o),
(125,341,c),
(230,389,l),
(229,389,ls),
(165,389,o),
(113,441,o),
(113,505,cs),
(113,570,o),
(165,622,o),
(229,622,cs),
(262,622,l),
(262,622,o),
(304,622,o),
(311,622,cs),
(312,622,ls),
(464,622,o),
(583,503,o),
(584,351,c),
(579,301,o),
(550,290,o),
(519,288,cs),
(481,288,l),
(461,211,l),
(461,210,l),
(468,210,o),
(476,210,o),
(484,211,c),
(500,210,o),
(519,210,o),
(529,210,cs),
(554,210,o),
(576,168,o),
(576,144,cs),
(575,117,o),
(555,77,o),
(528,76,cs),
(505,76,l)
);
}
);
width = 692;
}
);
unicode = 2827;
},
{
glyphname = "rrVocalic-oriya";
layers = (
{
anchors = (
{
name = chanBin;
pos = (548,702);
}
);
layerId = m01;
shapes = (
{
closed = 1;
nodes = (
(469,138,l),
(453,59,l),
(520,58,o),
(440,59,o),
(529,59,cs),
(540,59,ls),
(560,59,o),
(576,48,o),
(576,28,cs),
(575,1,o),
(555,-13,o),
(528,-14,cs),
(504,-14,o),
(480,-14,o),
(469,-14,c),
(390,-44,l),
(610,-259,l),
(610,-154,l),
(546,-90,l),
(606,-83,o),
(653,-36,o),
(654,27,cs),
(654,85,o),
(612,125,o),
(558,138,c)
);
},
{
closed = 1;
nodes = (
(113,259,o),
(165,311,o),
(229,311,cs),
(294,311,o),
(346,259,o),
(346,194,cs),
(346,130,o),
(294,78,o),
(229,78,cs),
(165,78,o),
(113,130,o),
(113,194,cs)
);
},
{
closed = 1;
nodes = (
(469,138,ls),
(443,137,ls)
);
},
{
closed = 1;
nodes = (
(91,354,o),
(35,281,o),
(35,194,cs),
(35,87,o),
(122,0,o),
(229,0,cs),
(337,0,o),
(424,87,o),
(424,194,cs),
(424,322,o),
(304,418,o),
(169,381,c)
);
},
{
closed = 1;
nodes = (
(614,90,l),
(638,111,o),
(654,141,o),
(654,177,cs),
(654,209,o),
(641,236,o),
(621,256,c),
(645,277,o),
(662,307,o),
(662,351,cs),
(662,546,o),
(507,700,o),
(312,700,cs),
(311,700,l),
(262,700,l),
(229,700,ls),
(122,700,o),
(35,613,o),
(35,505,cs),
(35,436,o),
(71,375,o),
(125,341,c),
(230,389,l),
(229,389,ls),
(165,389,o),
(113,441,o),
(113,505,cs),
(113,570,o),
(165,622,o),
(229,622,cs),
(262,622,l),
(311,622,l),
(312,622,ls),
(464,622,o),
(583,503,o),
(584,351,c),
(579,301,o),
(550,288,o),
(519,288,cs),
(481,288,l),
(461,211,l),
(461,210,l),
(468,210,o),
(519,210,o),
(529,210,cs),
(554,210,o),
(576,202,o),
(576,178,cs),
(575,150,o),
(552,135,o),
(523,137,c)
);
}
);
width = 692;
}
);
unicode = 2912;
},
{
glyphname = "lVocalic-oriya";
layers = (
{
anchors = (
{
name = chanBin;
pos = (577,702);
}
);
layerId = m01;
shapes = (
{
closed = 1;
nodes = (
(443,0,l),
(549,0,o),
(635,85,o),
(637,190,cs),
(637,191,l),
(637,192,l),
(637,194,ls),
(635,275,o),
(569,340,o),
(488,340,cs),
(406,340,o),
(339,273,o),
(339,191,cs),
(339,131,o),
(375,89,o),
(426,72,c)
);
},
{
closed = 1;
nodes = (
(417,221,o),
(449,262,o),
(488,262,cs),
(527,262,o),
(558,231,o),
(559,192,cs),
(558,143,o),
(527,102,o),
(483,85,c),
(447,90,o),
(417,145,o),
(417,182,cs)
);
},
{
closed = 1;
nodes = (
(427,78,l),
(225,78,l),
(224,78,ls),
(160,78,o),
(108,130,o),
(108,194,cs),
(108,259,o),
(160,311,o),
(224,311,cs),
(300,311,ls),
(407,311,o),
(494,398,o),
(494,506,cs),
(494,612,o),
(409,698,o),
(303,700,cs),
(302,700,l),
(300,700,ls),
(194,698,o),
(109,612,o),
(109,506,cs),
(109,439,l),
(187,439,l),
(187,506,ls),
(187,569,o),
(238,621,o),
(302,622,cs),
(365,621,o),
(416,569,o),
(416,506,cs),
(416,441,o),
(364,389,o),
(300,389,cs),
(224,389,ls),
(117,389,o),
(30,302,o),
(30,194,cs),
(30,87,o),
(117,0,o),
(224,0,cs),
(225,0,l),
(443,0,l)
);
}
);
width = 667;
}
);
unicode = 2828;
},
{
glyphname = "llVocalic-oriya";
layers = (
{
anchors = (
{
name = chanBin;
pos = (577,702);
}
);
layerId = m01;
shapes = (
{
closed = 1;
nodes = (
(492,6,l),
(573,28,o),
(635,101,o),
(637,190,cs),
(637,191,l),
(637,192,l),
(637,194,ls),
(635,275,o),
(569,340,o),
(488,340,cs),
(406,340,o),
(354,271,o),
(339,190,cs),
(332,150,o),
(334,105,o),
(350,62,c),
(382,9,l),
(422,-39,o),
(490,-75,o),
(598,-75,cs),
(600,-75,l),
(600,0,l),
(598,0,ls),
(572,0,o),
(527,0,o),
(490,18,c),
(433,67,l),
(419,93,o),
(411,130,o),
(417,182,cs),
(421,221,o),
(449,262,o),
(488,262,cs),
(527,262,o),
(558,231,o),
(559,192,cs),
(558,129,o),
(506,78,o),
(443,78,cs),
(412,78,l)
);
},
{
closed = 1;
nodes = (
(361,78,l),
(225,78,l),
(224,78,ls),
(160,78,o),
(108,130,o),
(108,194,cs),
(108,259,o),
(160,311,o),
(224,311,cs),
(300,311,ls),
(407,311,o),
(494,398,o),
(494,506,cs),
(494,612,o),
(409,698,o),
(303,700,cs),
(302,700,l),
(300,700,ls),
(194,698,o),
(109,612,o),
(109,506,cs),
(109,439,l),
(187,439,l),
(187,506,ls),
(187,569,o),
(238,621,o),
(302,622,cs),
(365,621,o),
(416,569,o),
(416,506,cs),
(416,441,o),
(364,389,o),
(300,389,cs),
(224,389,ls),
(117,389,o),
(30,302,o),
(30,194,cs),
(30,87,o),
(117,0,o),
(224,0,cs),
(406,0,l)
);
}
);
width = 667;
}
);
unicode = 2913;
},
{
glyphname = "e-oriya";
layers = (
{
anchors = (
{
name = chanBin;
pos = (548,702);
}
);
layerId = m01;
shapes = (
{
closed = 1;
nodes = (
(516,4,o),
(655,142,o),
(656,312,cs),
(656,331,o),
(680,458,o),
(541,639,c),
(489,700,l),
(336,606,o),
(431,381,o),
(241,343,c),
(290,283,l),
(463,305,o),
(432,474,o),
(480,576,c),
(586,442,o),
(586,389,o),
(576,310,cs),
(559,181,o),
(472,81,o),
(345,80,cs),
(217,81,o),
(130,181,o),
(113,310,cs),
(102,393,o),
(116,540,o),
(201,700,c),
(116,700,l),
(7,459,o),
(33,331,o),
(33,312,cs),
(34,142,o),
(173,4,o),
(343,2,cs),
(345,2,l),
(346,2,ls)
);
}
);
width = 686;
}
);
unicode = 2831;
},
{
glyphname = "ai-oriya";
layers = (
{
anchors = (
{
name = chanBin;
pos = (988,702);
}
);
layerId = m01;
shapes = (
{
pos = (640,0);
ref = "ya-oriya.below";
},
{
pos = (1122,0);
ref = "aiLength-oriya";
},
{
closed = 1;
nodes = (
(536,4,o),
(675,142,o),
(676,312,cs),
(676,331,o),
(700,458,o),
(561,639,c),
(509,700,l),
(356,606,o),
(451,381,o),
(261,343,c),
(310,283,l),
(483,305,o),
(452,474,o),
(500,576,c),
(606,442,o),
(606,389,o),
(596,310,cs),
(579,181,o),
(492,81,o),
(365,80,cs),
(237,81,o),
(150,181,o),
(133,310,cs),
(122,393,o),
(136,540,o),
(221,700,c),
(136,700,l),
(27,459,o),
(53,331,o),
(53,312,cs),
(54,142,o),
(193,4,o),
(363,2,cs),
(365,2,l),
(366,2,ls)
);
}
);
width = 1072;
}
);
unicode = 2832;
},
{
glyphname = "o-oriya";
layers = (
{
anchors = (
{
name = chanBin;
pos = (548,702);
}
);
guides = (
{
angle = -10;
pos = (740,241);
}
);
layerId = m01;
shapes = (
{
closed = 1;
nodes = (
(560,400,l),
(600,365,o),
(623,296,o),
(614,246,cs),
(598,158,o),
(498,80,o),
(387,80,cs),
(258,80,o),
(170,180,o),
(153,310,cs),
(142,393,o),
(156,540,o),
(241,700,c),
(156,700,l),
(47,459,o),
(73,331,o),
(73,312,cs),
(74,141,o),
(215,2,o),
(387,2,cs),
(537,2,o),
(661,86,o),
(691,232,cs),
(706,318,o),
(664,424,o),
(593,472,c)
);
},
{
closed = 1;
nodes = (
(601,447,l),
(628,538,o),
(585,638,o),
(497,680,cs),
(399,725,o),
(284,683,o),
(238,587,cs),
(218,542,o),
(216,496,o),
(227,453,c),
(302,473,l),
(295,499,o),
(296,527,o),
(309,553,cs),
(336,611,o),
(405,637,o),
(464,609,cs),
(522,582,o),
(547,513,o),
(520,455,cs),
(494,396,o),
(425,371,o),
(367,398,c),
(334,327,l),
(423,286,o),
(530,320,o),
(580,403,c)
);
}
);
width = 724;
}
);
unicode = 2835;
},
{
glyphname = "au-oriya";
layers = (
{
anchors = (
{
name = chanBin;
pos = (968,702);
}
);
layerId = m01;
shapes = (
{
closed = 1;
nodes = (
(540,400,l),
(580,365,o),
(603,296,o),
(594,246,cs),
(578,158,o),
(478,80,o),
(367,80,cs),
(238,80,o),
(150,180,o),
(133,310,cs),
(122,393,o),
(136,540,o),
(221,700,c),
(136,700,l),
(27,459,o),
(53,331,o),
(53,312,cs),
(54,141,o),
(195,2,o),
(367,2,cs),
(517,2,o),
(641,86,o),
(671,232,cs),
(686,318,o),
(644,424,o),
(573,472,c)
);
},
{
pos = (627,0);
ref = "ya-oriya.below";
},
{
pos = (1111,0);
ref = "aiLength-oriya";
},
{
closed = 1;
nodes = (
(581,447,l),
(608,538,o),
(565,638,o),
(477,680,cs),
(379,725,o),
(264,683,o),
(218,587,cs),
(198,542,o),
(196,496,o),
(207,453,c),
(282,473,l),
(275,499,o),
(276,527,o),
(289,553,cs),
(316,611,o),
(385,637,o),
(444,609,cs),
(502,582,o),
(527,513,o),
(500,455,cs),
(474,396,o),
(405,371,o),
(347,398,c),
(314,327,l),
(403,286,o),
(510,320,o),
(560,403,c)
);
}
);
width = 1059;
}
);
unicode = 2836;
},
{
glyphname = "ka-oriya";
layers = (
{
anchors = (
{
name = am;
pos = (680,659);
},
{
name = below;
pos = (496,-20);
},
{
name = bindu;
pos = (351,-96);
},
{
name = bottom;
pos = (613,17);
},
{
name = bottomtwo;
pos = (342,-258);
},
{
name = chanBin;
pos = (548,702);
},
{
name = hal;
pos = (686,703);
},
{
name = nukta;
pos = (351,-50);
},
{
name = reph2;
pos = (613,4);
},
{
name = reph3;
pos = (611,-258);
},
{
name = ru;
pos = (351,-7);
},
{
name = top;
pos = (351,754);
}
);
guides = (
{
angle = 45;
pos = (412,350);
},
{
angle = 90;
pos = (410,295);
},
{
pos = (861,352);
},
{
angle = 90;
pos = (30,295);
},
{
angle = 90;
pos = (650,295);
}
);
layerId = m01;
shapes = (
{
closed = 1;
nodes = (
(224,389,l),
(160,389,o),
(108,441,o),
(108,505,cs),
(108,570,o),
(160,622,o),
(224,622,cs),
(276,622,l),
(394,622,l),
(456,622,ls),
(520,622,o),
(572,570,o),
(572,505,c),
(650,505,l),
(650,613,o),
(563,700,o),
(456,700,cs),
(394,700,l),
(276,700,l),
(224,700,ls),
(117,700,o),
(30,613,o),
(30,505,cs),
(30,436,o),
(66,375,o),
(120,341,c)
);
},
{
closed = 1;
nodes = (
(108,259,o),
(160,311,o),
(224,311,cs),
(289,311,o),
(341,259,o),
(341,194,cs),
(341,130,o),
(289,78,o),
(224,78,cs),
(160,78,o),
(108,130,o),
(108,194,cs)
);
},
{
closed = 1;
nodes = (
(341,0,l),
(419,0,l),
(419,356,l),
(374,311,l),
(617,311,l),
(572,356,l),
(572,0,l),
(650,0,l),
(650,389,l),
(419,389,l),
(384,389,l),
(341,389,l)
);
},
{
closed = 1;
nodes = (
(353,340,l),
(319,370,o),
(275,389,o),
(225,389,cs),
(224,389,l),
(120,359,l),
(66,324,o),
(30,264,o),
(30,194,cs),
(30,87,o),
(117,0,o),
(224,0,cs),
(274,0,o),
(318,18,o),
(353,49,c)
);
}
);
width = 700;
}
);
unicode = 2837;
},
{
glyphname = "ka-oriya.base";
layers = (
{
layerId = m01;
shapes = (
{
closed = 1;
nodes = (
(447,-41,l),
(416,-41,o),
(398,-15,o),
(398,16,cs),
(398,49,o),
(423,71,o),
(454,71,cs),
(570,71,ls),
(601,71,o),
(626,49,o),
(626,16,c),
(685,16,l),
(685,77,o),
(636,125,o),
(577,125,cs),
(542,125,l),
(476,125,l),
(447,125,ls),
(388,125,o),
(339,77,o),
(339,16,cs),
(339,-23,o),
(360,-56,o),
(390,-75,c)
);
},
{
closed = 1;
nodes = (
(397,-121,o),
(420,-97,o),
(447,-97,cs),
(476,-97,o),
(498,-121,o),
(498,-149,cs),
(498,-176,o),
(476,-200,o),
(447,-200,cs),
(420,-200,o),
(397,-176,o),
(397,-149,cs)
);
},
{
closed = 1;
nodes = (
(447,125,ls),
(400,125,l)
);
},
{
closed = 1;
nodes = (
(498,-258,l),
(558,-258,l),
(558,-102,l),
(626,-102,l),
(626,-258,l),
(686,-258,l),
(686,-42,l),
(558,-42,l),
(543,-42,l),
(498,-42,l)
);
},
{
closed = 1;
nodes = (
(389,-57,l),
(360,-76,o),
(339,-109,o),
(339,-149,cs),
(339,-209,o),
(388,-258,o),
(447,-258,cs),
(470,-258,o),
(494,-250,o),
(511,-239,c),
(511,-61,l),
(494,-48,o),
(470,-41,o),
(447,-41,c)
);
}
);
width = 680;
}
);
},
{
glyphname = "kha-oriya";
layers = (
{
anchors = (
{
name = am;
pos = (680,659);
},
{
name = below;
pos = (496,-20);
},
{
name = bindu;
pos = (351,-96);
},
{
name = bottom;
pos = (614,17);
},
{
name = bottomtwo;
pos = (715,-146);
},
{
name = chanBin;
pos = (603,730);
},
{
name = nukta;
pos = (351,-50);
},
{
name = reph2;
pos = (614,4);
},
{
name = reph3;
pos = (611,-258);
},
{
name = ru;
pos = (351,-7);
},
{
name = top;
pos = (351,754);
}
);
layerId = m01;
shapes = (
{
closed = 1;
nodes = (
(352,0,o),
(439,87,o),
(439,194,cs),
(439,302,o),
(352,389,o),
(244,389,cs),
(137,389,o),
(50,302,o),
(50,194,cs),
(50,87,o),
(137,0,o),
(244,0,cs)
);
},
{
closed = 1;
nodes = (
(180,78,o),
(128,130,o),
(128,194,cs),
(128,259,o),
(180,311,o),
(244,311,cs),
(309,311,o),
(361,259,o),
(361,194,cs),
(361,130,o),
(309,78,o),
(244,78,cs)
);
},
{
closed = 1;
nodes = (
(404,700,l),
(404,700,o),
(361,700,o),
(361,700,c),
(244,700,ls),
(137,700,o),
(50,613,o),
(50,505,cs),
(50,398,o),
(137,311,o),
(244,311,cs),
(245,311,l),
(245,389,l),
(244,389,ls),
(180,389,o),
(128,441,o),
(128,505,cs),
(128,570,o),
(180,622,o),
(244,622,cs),
(309,622,o),
(361,622,o),
(361,622,c),
(404,622,l)
);
},
{
closed = 1;
nodes = (
(422,-22,o)
);
},
{
closed = 1;
nodes = (
(651,0,l),
(651,700,l),
(573,700,l),
(573,0,l)
);
},
{
closed = 1;
nodes = (
(575,647,o),
(573,539,o),
(573,514,cs),
(573,489,o),
(531,467,o),
(507,467,c),
(480,468,o),
(440,488,o),
(441,515,cs),
(439,539,o),
(443,579,o),
(442,616,cs),
(442,616,o),
(442,700,o),
(442,700,c),
(362,700,l),
(362,700,o),
(362,616,o),
(362,616,cs),
(361,549,o),
(362,603,o),
(362,514,cs),
(362,446,o),
(437,390,o),
(506,389,c),
(574,389,o),
(651,445,o),
(651,514,cs),
(651,607,o),
(652,598,o),
(651,700,c),
(574,700,l)
);
}
);
width = 701;
}
);
unicode = 2838;
},
{
glyphname = "kha-oriya.base";
layers = (
{
layerId = m01;
shapes = (
{
closed = 1;
nodes = (
(447,-41,l),
(416,-41,o),
(398,-15,o),
(398,16,cs),
(398,49,o),
(423,75,o),
(454,75,cs),
(503,75,l),
(517,75,l),
(517,21,ls),
(517,-17,o),
(559,-48,o),
(597,-48,cs),
(606,-48,o),
(614,-46,o),
(623,-44,c),
(623,-258,l),
(683,-258,l),
(683,125,l),
(623,125,l),
(623,21,l),
(619,14,o),
(606,7,o),
(598,7,cs),
(587,8,o),
(572,16,o),
(572,26,cs),
(571,35,o),
(572,52,o),
(572,66,cs),
(573,125,l),
(521,125,l),
(517,125,l),
(505,125,l),
(503,125,l),
(447,125,ls),
(388,125,o),
(339,77,o),
(339,16,cs),
(339,-23,o),
(360,-56,o),
(390,-75,c)
);
},
{
closed = 1;
nodes = (
(397,-121,o),
(420,-97,o),
(447,-97,cs),
(476,-97,o),
(498,-121,o),
(498,-149,cs),
(498,-176,o),
(476,-200,o),
(447,-200,cs),
(420,-200,o),
(397,-176,o),
(397,-149,cs)
);
},
{
closed = 1;
nodes = (
(389,-57,l),
(360,-76,o),
(339,-109,o),
(339,-149,cs),
(339,-209,o),
(388,-258,o),
(447,-258,cs),
(507,-258,o),
(558,-209,o),
(558,-149,cs),
(558,-88,o),
(507,-41,o),
(447,-41,c)
);
}
);
width = 600;
}
);
},
{
glyphname = "ga-oriya";
layers = (
{
anchors = (
{
name = am;
pos = (680,659);
},
{
name = below;
pos = (496,-20);
},
{
name = bindu;
pos = (351,-96);
},
{
name = bottom;
pos = (635,17);
},
{
name = bottomtwo;
pos = (715,-146);
},
{
name = chanBin;
pos = (603,730);
},
{
name = hal;
pos = (686,703);
},
{
name = nukta;
pos = (351,-50);
},
{
name = reph2;
pos = (636,4);
},
{
name = reph3;
pos = (611,-258);
},
{
name = ru;
pos = (351,-7);
},
{
name = top;
pos = (351,754);
}
);
layerId = m01;
shapes = (
{
closed = 1;
nodes = (
(244,388,l),
(180,388,o),
(128,440,o),
(128,505,cs),
(128,569,o),
(180,621,o),
(244,621,cs),
(327,621,l),
(327,699,l),
(244,699,ls),
(137,699,o),
(50,612,o),
(50,505,cs),
(50,435,o),
(86,375,o),
(141,340,c)
);
},
{
closed = 1;
nodes = (
(128,258,o),
(180,310,o),
(244,310,cs),
(309,310,o),
(361,258,o),
(361,193,cs),
(361,129,o),
(309,77,o),
(244,77,cs),
(180,77,o),
(128,129,o),
(128,193,cs)
);
},
{
closed = 1;
nodes = (
(671,0,l),
(671,700,l),
(593,700,l),
(593,0,l)
);
},
{
pos = (-114,-1);
ref = topright;
},
{
closed = 1;
nodes = (
(108,355,o),
(50,282,o),
(50,193,cs),
(50,86,o),
(137,-1,o),
(244,-1,cs),
(352,-1,o),
(439,86,o),
(439,193,cs),
(439,318,o),
(322,415,o),
(191,381,c)
);
}
);
width = 722;
}
);
unicode = 2839;
},
{
glyphname = "ga-oriya.base";
layers = (
{
layerId = m01;
shapes = (
{
closed = 1;
nodes = (
(619,-258,l),
(679,-258,l),
(679,125,l),
(619,125,l)
);
},
{
closed = 1;
nodes = (
(397,-121,o),
(420,-97,o),
(447,-97,cs),
(476,-97,o),
(498,-121,o),
(498,-149,cs),
(498,-176,o),
(476,-200,o),
(447,-200,cs),
(420,-200,o),
(397,-176,o),
(397,-149,cs)
);
},
{
closed = 1;
nodes = (
(507,125,l),
(505,125,l)
);
},
{
closed = 1;
nodes = (
(377,-54,o),
(339,-95,o),
(339,-149,cs),
(339,-209,o),
(388,-258,o),
(447,-258,cs),
(507,-258,o),
(558,-209,o),
(558,-149,cs),
(558,-88,o),
(507,-41,o),
(447,-41,cs),
(424,-41,l)
);
},
{
closed = 1;
nodes = (
(457,-41,l),
(423,-47,o),
(401,-19,o),
(401,14,cs),
(401,46,o),
(425,68,o),
(456,68,cs),
(505,68,ls),
(572,68,o),
(621,16,o),
(620,-51,c),
(630,69,l),
(599,102,o),
(555,124,o),
(505,125,cs),
(503,125,l),
(447,125,ls),
(388,125,o),
(339,77,o),
(339,16,cs),
(339,-23,o),
(360,-56,o),
(390,-75,c)
);
}
);
width = 600;
}
);
},
{
glyphname = "gha-oriya";
layers = (
{
anchors = (
{
name = am;
pos = (680,659);
},
{
name = below;
pos = (496,-20);
},
{
name = bindu;
pos = (351,-96);
},
{
name = bottom;
pos = (636,17);
},
{
name = bottomtwo;
pos = (715,-146);
},
{
name = chanBin;
pos = (603,730);
},
{
name = hal;
pos = (686,703);
},
{
name = nukta;
pos = (351,-50);
},
{
name = reph2;
pos = (637,4);
},
{
name = reph3;
pos = (611,-258);
},
{
name = ru;
pos = (351,-7);
},
{
name = top;
pos = (351,754);
}
);
layerId = m01;
shapes = (
{
closed = 1;
nodes = (
(672,0,l),
(672,700,l),
(594,700,l),
(594,175,ls),
(594,121,o),
(563,78,o),
(509,78,cs),
(462,78,o),
(444,111,o),
(440,155,c),
(440,310,l),
(362,310,l),
(362,194,ls),
(362,187,o),
(361,180,o),
(360,173,cs),
(350,119,o),
(303,78,o),
(245,78,cs),
(181,78,o),
(129,130,o),
(129,194,cs),
(129,255,o),
(174,304,o),
(233,310,c),
(244,310,l),
(244,311,l),
(245,311,l),
(245,389,l),
(232,389,l),
(174,394,o),
(128,444,o),
(128,505,cs),
(128,569,o),
(180,621,o),
(244,621,cs),
(327,621,l),
(327,699,l),
(244,699,ls),
(137,699,o),
(50,612,o),
(50,505,cs),
(50,441,o),
(80,385,o),
(127,349,c),
(81,314,o),
(51,257,o),
(51,194,cs),
(51,87,o),
(138,0,o),
(245,0,cs),
(302,0,o),
(354,25,o),
(389,64,c),
(414,25,o),
(455,0,o),
(509,0,cs),
(548,0,o),
(575,12,o),
(594,33,c),
(594,0,l)
);
},
{
closed = 1;
nodes = (
(261,310,l),
(244,310,ls)
);
},
{
closed = 1;
nodes = (
(261,388,l),
(245,388,ls)
);
},
{
pos = (-113,-1);
ref = topright;
}
);
width = 722;
}
);
unicode = 2840;
},
{
glyphname = "gha-oriya.base";
layers = (
{
layerId = m01;
shapes = (
{
closed = 1;
nodes = (
(619,-258,l),
(679,-258,l),
(679,125,l),
(619,125,l)
);
},
{
closed = 1;
nodes = (
(507,125,l),
(505,125,l)
);
},
{
closed = 1;
nodes = (
(622,-183,l),
(628,-192,o),
(600,-203,o),
(590,-203,cs),
(579,-202,o),
(554,-194,o),
(554,-184,cs),
(553,-177,o),
(554,-167,o),
(554,-156,cs),
(554,-150,l),
(554,-144,l),
(555,-85,l),
(499,-85,l),
(499,-132,l),
(499,-150,ls),
(499,-176,o),
(476,-200,o),
(447,-200,cs),
(420,-200,o),
(397,-176,o),
(397,-149,cs),
(397,-121,o),
(420,-97,o),
(447,-97,c),
(447,-92,l),
(448,-92,l),
(448,-48,l),
(448,-48,o),
(450,-42,o),
(449,-42,cs),
(447,-42,l),
(447,-41,l),
(440,-41,l),
(416,-37,o),
(401,-13,o),
(401,14,cs),
(401,46,o),
(425,68,o),
(456,68,cs),
(505,68,ls),
(572,68,o),
(621,16,o),
(620,-51,c),
(630,69,l),
(599,102,o),
(555,124,o),
(505,125,cs),
(503,125,l),
(447,125,ls),
(388,125,o),
(339,77,o),
(339,16,cs),
(339,-17,o),
(354,-46,o),
(377,-66,c),
(354,-86,o),
(339,-115,o),
(339,-149,cs),
(339,-209,o),
(388,-258,o),
(447,-258,cs),
(475,-258,o),
(501,-247,o),
(520,-230,c),
(538,-247,o),
(566,-258,o),
(589,-258,cs),
(604,-258,o),
(619,-254,o),
(634,-245,c)
);
}
);
width = 600;
}
);
},
{
glyphname = "nga-oriya";
layers = (
{
anchors = (
{
name = am;
pos = (680,659);
},
{
name = below;
pos = (496,-20);
},
{
name = bindu;
pos = (351,-96);
},
{
name = bottom;
pos = (493,17);
},
{
name = bottomtwo;
pos = (715,-146);
},
{
name = chanBin;
pos = (603,730);
},
{
name = hal;
pos = (416,703);
},
{
name = nukta;
pos = (351,-50);
},
{
name = reph2;
pos = (603,4);
},
{
name = reph3;
pos = (611,-258);
},
{
name = ru;
pos = (351,-7);
},
{
name = top;
pos = (351,754);
}
);
hints = (
{
horizontal = 1;
place = (0, 78);
place = (0, 78);
type = Stem;
},
{
horizontal = 1;
origin = (0,6);
target = (0,25);
type = Stem;
},
{
horizontal = 1;
origin = (0,19);
target = (0,13);
type = Stem;
},
{
origin = (0,28);
target = (0,3);
type = Stem;
},
{
place = (124, 71);
place = (124, 71);
type = Stem;
},
{
place = (444, 62);
place = (444, 62);
type = Stem;
},
{
origin = (0,10);
target = (0,16);
type = Stem;
}
);
layerId = m01;
shapes = (
{
closed = 1;
nodes = (
(164,237,l),
(129,277,o),
(108,330,o),
(108,388,cs),
(108,516,o),
(212,621,o),
(340,621,cs),
(377,621,o),
(411,612,o),
(442,597,c),
(442,595,ls),
(442,537,o),
(489,490,o),
(547,490,cs),
(605,490,o),
(652,537,o),
(652,595,cs),
(652,653,o),
(605,700,o),
(547,700,cs),
(518,700,o),
(492,688,o),
(473,669,c),
(433,689,o),
(388,699,o),
(340,699,cs),
(169,699,o),
(30,559,o),
(30,388,cs),
(30,280,o),
(85,185,o),
(168,129,c)
);
},
{
closed = 1;
nodes = (
(520,610,o),
(532,622,o),
(547,622,cs),
(562,622,o),
(574,610,o),
(574,595,cs),
(574,580,o),
(562,568,o),
(547,568,cs),
(532,568,o),
(520,580,o),
(520,595,cs)
);
},
{
closed = 1;
nodes = (
(496,334,l),
(441,389,l),
(423,371,ls),
(368,316,o),
(350,297,o),
(318,265,c),
(373,210,l)
);
},
{
closed = 1;
nodes = (
(443,299,l),
(454,290,o),
(460,279,o),
(466,267,cs),
(493,209,o),
(449,116,o),
(390,89,cs),
(332,62,o),
(263,87,o),
(236,145,cs),
(208,203,o),
(233,272,o),
(291,299,c),
(258,370,l),
(200,344,o),
(162,291,o),
(150,234,c),
(150,155,l),
(155,138,o),
(159,126,o),
(165,112,cs),
(210,15,o),
(326,-27,o),
(423,18,cs),
(521,64,o),
(563,179,o),
(518,276,cs),
(507,298,o),
(495,317,o),
(477,332,c)
);
}
);
width = 682;
}
);
unicode = 2841;
},
{
glyphname = "ca-oriya";
layers = (
{
anchors = (
{
name = am;
pos = (680,659);
},
{
name = below;
pos = (496,-20);
},
{
name = bindu;
pos = (351,-96);
},
{
name = bottom;
pos = (493,17);
},
{
name = bottomtwo;
pos = (715,-146);
},
{
name = chanBin;
pos = (548,702);
},
{
name = hal;
pos = (416,703);
},
{
name = nukta;
pos = (351,-50);
},
{
name = reph2;
pos = (613,4);
},
{
name = reph3;
pos = (611,-258);
},
{
name = ru;
pos = (351,-7);
},
{
name = top;
pos = (351,754);
}
);
layerId = m01;
shapes = (
{
closed = 1;
nodes = (
(165,235,l),
(130,276,o),
(108,329,o),
(108,388,cs),
(108,516,o),
(212,621,o),
(340,621,cs),
(469,621,o),
(573,517,o),
(574,389,c),
(652,389,l),
(651,560,o),
(512,699,o),
(340,699,cs),
(169,699,o),
(30,559,o),
(30,388,cs),
(30,279,o),
(86,184,o),
(169,128,c)
);
},
{
closed = 1;
nodes = (
(226,259,o),
(278,311,o),
(342,311,cs),
(407,311,o),
(459,259,o),
(459,194,cs),
(459,130,o),
(407,78,o),
(342,78,cs),
(278,78,o),
(226,130,o),
(226,194,cs)
);
},
{
closed = 1;
nodes = (
(152,153,l),
(171,66,o),
(249,0,o),
(342,0,cs),
(450,0,o),
(537,87,o),
(537,194,cs),
(537,302,o),
(450,389,o),
(342,389,cs),
(247,389,o),
(169,321,o),
(151,231,c)
);
}
);
width = 682;
}
);
unicode = 2842;
},
{
glyphname = "ca-oriya.base";
layers = (
{
layerId = m01;
shapes = (
{
closed = 1;
nodes = (
(476,-111,l),
(459,-91,o),
(449,-68,o),
(449,-41,cs),
(449,21,o),
(499,72,o),
(561,72,cs),
(623,72,o),
(672,23,o),
(673,-39,c),
(735,-41,l),
(734,53,o),
(657,132,o),
(561,132,cs),
(465,132,o),
(387,53,o),
(387,-43,cs),
(387,-105,o),
(420,-158,o),
(470,-189,c)
);
},
{
closed = 1;
nodes = (
(511,-121,o),
(534,-97,o),
(561,-97,cs),
(590,-97,o),
(612,-121,o),
(612,-149,cs),
(612,-176,o),
(590,-200,o),
(561,-200,cs),
(534,-200,o),
(511,-176,o),
(511,-149,cs)
);
},
{
closed = 1;
nodes = (
(453,-164,l),
(462,-217,o),
(506,-258,o),
(561,-258,cs),
(621,-258,o),
(672,-209,o),
(672,-149,cs),
(672,-88,o),
(621,-41,o),
(561,-41,cs),
(514,-41,o),
(474,-71,o),
(460,-113,c)
);
}
);
width = 600;
}
);
},
{
glyphname = "cha-oriya";
layers = (
{
anchors = (
{
name = am;
pos = (680,659);
},
{
name = below;
pos = (496,-20);
},
{
name = bindu;
pos = (351,-96);
},
{
name = bottom;
pos = (383,-3);
},
{
name = bottomtwo;
pos = (715,-146);
},
{
name = chanBin;
pos = (548,702);
},
{
name = hal;
pos = (416,703);
},
{
name = nukta;
pos = (351,-50);
},
{
name = reph2;
pos = (613,4);
},
{
name = reph3;
pos = (611,-258);
},
{
name = ru;
pos = (351,-7);
},
{
name = top;
pos = (351,754);
}
);
layerId = m01;
shapes = (
{
closed = 1;
nodes = (
(298,188,o),
(246,240,o),
(246,304,cs),
(246,369,o),
(298,421,o),
(362,421,cs),
(427,421,o),
(479,369,o),
(479,304,cs),
(479,240,o),
(427,188,o),
(362,188,cs)
);
},
{
closed = 1;
nodes = (
(104,268,l),
(73,241,o),
(53,189,o),
(52,143,cs),
(52,65,o),
(108,0,o),
(177,0,cs),
(270,0,o),
(338,35,o),
(361,87,c),
(384,35,o),
(452,0,o),
(545,0,cs),
(614,0,o),
(670,65,o),
(670,143,cs),
(669,217,o),
(616,300,o),
(557,290,c),
(557,304,ls),
(557,412,o),
(470,499,o),
(362,499,cs),
(255,499,o),
(168,412,o),
(168,304,cs),
(168,278,l)
);
},
{
closed = 1;
nodes = (
(130,173,o),
(143,192,o),
(156,201,c),
(191,176,o),
(230,156,o),
(265,136,cs),
(280,127,o),
(296,121,o),
(313,116,c),
(262,83,o),
(195,78,o),
(177,78,cs),
(162,78,o),
(130,97,o),
(130,142,cs)
);
},
{
closed = 1;
nodes = (
(461,129,o),
(504,161,o),
(530,205,c),
(535,207,o),
(539,209,o),
(544,209,cs),
(561,209,o),
(592,191,o),
(592,142,cs),
(592,97,o),
(560,78,o),
(545,78,cs),
(527,78,o),
(460,83,o),
(410,116,c)
);
},
{
closed = 1;
nodes = (
(179,284,l),
(151,308,o),
(128,338,o),
(128,388,cs),
(128,516,o),
(232,621,o),
(360,621,cs),
(489,621,o),
(593,517,o),
(594,389,c),
(672,389,l),
(671,560,o),
(532,699,o),
(360,699,cs),
(189,699,o),
(50,559,o),
(50,388,cs),
(50,327,o),
(72,282,o),
(103,247,c)
);
}
);
width = 722;
}
);
unicode = 2843;
},
{
glyphname = "cha-oriya.base";
layers = (
{
layerId = m01;
shapes = (
{
closed = 1;
nodes = (
(534,-200,o),
(511,-176,o),
(511,-149,cs),
(511,-121,o),
(534,-97,o),
(561,-97,cs),
(590,-97,o),
(612,-121,o),
(612,-149,cs),
(612,-176,o),
(590,-200,o),
(561,-200,cs)
);
},
{
closed = 1;
nodes = (
(456,-165,l),
(456,-181,o),
(462,-197,o),
(473,-212,c),
(453,-223,o),
(439,-244,o),
(439,-269,cs),
(439,-306,o),
(469,-336,o),
(506,-336,cs),
(528,-336,o),
(549,-325,o),
(561,-308,c),
(573,-325,o),
(593,-336,o),
(616,-336,cs),
(652,-336,o),
(684,-306,o),
(684,-269,cs),
(684,-245,o),
(670,-224,o),
(651,-213,c),
(664,-195,o),
(672,-173,o),
(672,-149,cs),
(672,-88,o),
(621,-41,o),
(561,-41,cs),
(514,-41,o),
(474,-71,o),
(460,-113,c)
);
},
{
closed = 1;
nodes = (
(484,-257,o),
(494,-246,o),
(506,-246,cs),
(518,-246,o),
(528,-257,o),
(528,-269,cs),
(528,-281,o),
(518,-292,o),
(506,-292,cs),
(494,-292,o),
(484,-281,o),
(484,-269,cs)
);
},
{
closed = 1;
nodes = (
(594,-257,o),
(604,-246,o),
(616,-246,cs),
(628,-246,o),
(638,-257,o),
(638,-269,cs),
(638,-281,o),
(628,-292,o),
(616,-292,cs),
(604,-292,o),
(594,-281,o),
(594,-269,cs)
);
},
{
closed = 1;
nodes = (
(476,-111,l),
(459,-91,o),
(449,-68,o),
(449,-41,cs),
(449,21,o),
(499,72,o),
(561,72,cs),
(623,72,o),
(672,23,o),
(673,-39,c),
(735,-41,l),
(734,53,o),
(657,132,o),
(561,132,cs),
(465,132,o),
(387,53,o),
(387,-43,cs),
(387,-105,o),
(420,-158,o),
(471,-189,c)
);
}
);
width = 600;
}
);
},
{
glyphname = "ja-oriya";
layers = (
{
anchors = (
{
name = am;
pos = (680,659);
},
{
name = below;
pos = (496,-20);
},
{
name = bindu;
pos = (351,-96);
},
{
name = bottom;
pos = (633,17);
},
{
name = bottomtwo;
pos = (715,-146);
},
{
name = chanBin;
pos = (548,702);
},
{
name = hal;
pos = (686,703);
},
{
name = nukta;
pos = (351,-50);
},
{
name = reph2;
pos = (634,4);
},
{
name = reph3;
pos = (611,-258);
},
{
name = ru;
pos = (351,-7);
},
{
name = top;
pos = (351,754);
}
);
layerId = m01;
shapes = (
{
closed = 1;
nodes = (
(50,87,o),
(137,0,o),
(244,0,cs),
(351,0,o),
(437,85,o),
(439,190,cs),
(439,330,l),
(395,277,l),
(636,319,l),
(592,356,l),
(592,0,l),
(670,0,l),
(670,389,l),
(592,389,l),
(361,349,l),
(361,194,ls),
(361,130,o),
(309,78,o),
(244,78,cs),
(180,78,o),
(128,130,o),
(128,194,cs),
(128,259,o),
(180,311,o),
(244,311,cs),
(245,311,l),
(245,389,l),
(244,389,ls),
(180,389,o),
(128,441,o),
(128,505,cs),
(128,570,o),
(180,622,o),
(244,622,cs),
(296,622,l),
(414,622,l),
(476,622,ls),
(540,622,o),
(592,570,o),
(592,505,c),
(670,505,l),
(670,613,o),
(583,700,o),
(476,700,cs),
(414,700,l),
(296,700,l),
(244,700,ls),
(137,700,o),
(50,613,o),
(50,505,cs),
(50,442,o),
(80,385,o),
(127,350,c),
(80,314,o),
(50,258,o),
(50,194,cs)
);
}
);
width = 720;
}
);
unicode = 2844;
},
{
glyphname = "ja-oriya.base";
layers = (
{
guides = (
{
angle = 270;
pos = (398,-84);
}
);
layerId = m01;
shapes = (
{
closed = 1;
nodes = (
(498,-140,ls),
(497,-167,o),
(476,-190,o),
(447,-190,cs),
(420,-190,o),
(397,-166,o),
(397,-139,cs),
(397,-111,o),
(420,-87,o),
(447,-87,c),
(447,-31,l),
(388,-31,o),
(339,-78,o),
(339,-139,cs),
(339,-199,o),
(388,-248,o),
(447,-248,cs),
(507,-248,o),
(556,-201,o),
(558,-141,cs),
(558,-104,l),
(626,-92,l),
(626,-255,l),
(686,-255,l),
(686,-38,l),
(626,-38,l),
(498,-61,l)
);
}
);
width = 600;
}
);
},
{
glyphname = "jha-oriya";
layers = (
{
anchors = (
{
name = am;
pos = (680,659);
},
{
name = below;
pos = (496,-20);
},
{
name = bindu;
pos = (351,-96);
},
{
name = bottom;
pos = (493,17);
},
{
name = bottomtwo;
pos = (715,-146);
},
{
name = chanBin;
pos = (548,702);
},
{
name = hal;
pos = (416,703);
},
{
name = nukta;
pos = (351,-50);
},
{
name = reph2;
pos = (613,4);
},
{
name = reph3;
pos = (611,-258);
},
{
name = ru;
pos = (351,-7);
},
{
name = top;
pos = (351,754);
}
);
layerId = m01;
shapes = (
{
closed = 1;
nodes = (
(166,236,l),
(130,277,o),
(108,330,o),
(108,389,cs),
(108,517,o),
(212,622,o),
(340,622,c),
(340,514,ls),
(340,446,o),
(415,390,o),
(484,389,cs),
(552,389,o),
(629,445,o),
(629,514,cs),
(629,607,o),
(630,598,o),
(629,700,c),
(552,700,l),
(553,647,o),
(551,539,o),
(551,514,cs),
(551,489,o),
(509,467,o),
(485,467,cs),
(458,468,o),
(418,488,o),
(419,515,c),
(417,539,o),
(420,579,o),
(420,616,cs),
(420,700,l),
(340,700,ls),
(169,700,o),
(30,560,o),
(30,389,cs),
(30,280,o),
(86,185,o),
(169,129,c)
);
},
{
closed = 1;
nodes = (
(226,259,o),
(278,311,o),
(342,311,cs),
(407,311,o),
(459,259,o),
(459,194,cs),
(459,130,o),
(407,78,o),
(342,78,cs),
(278,78,o),
(226,130,o),
(226,194,cs)
);
},
{
closed = 1;
nodes = (
(487,84,l),
(601,84,l),
(651,162,l),
(518,162,l)
);
},
{
closed = 1;
nodes = (
(530,148,ls),
(535,161,o),
(537,178,o),
(537,194,cs),
(537,302,o),
(450,389,o),
(342,389,cs),
(248,389,o),
(169,322,o),
(152,232,c),
(152,154,l),
(171,66,o),
(248,0,o),
(342,0,cs),
(415,0,o),
(478,39,o),
(511,97,c)
);
}
);
width = 681;
}
);
unicode = 2845;
},
{
glyphname = "jha-oriya.base";
layers = (
{
layerId = m01;
shapes = (
{
closed = 1;
nodes = (
(371,-101,l),
(352,-86,o),
(341,-61,o),
(341,-34,cs),
(341,17,o),
(382,58,o),
(432,58,cs),
(435,58,o),
(443,58,o),
(451,59,c),
(451,31,ls),
(451,-7,o),
(493,-38,o),
(531,-38,cs),
(569,-38,o),
(612,-7,o),
(612,31,cs),
(612,83,o),
(613,78,o),
(612,135,c),
(558,135,l),
(558,35,ls),
(558,26,o),
(541,17,o),
(532,17,cs),
(521,18,o),
(506,26,o),
(506,36,cs),
(505,45,o),
(506,62,o),
(506,76,cs),
(507,135,l),
(451,135,ls),
(356,135,o),
(279,57,o),
(279,-38,cs),
(279,-101,o),
(312,-156,o),
(361,-187,c)
);
},
{
closed = 1;
nodes = (
(407,-121,o),
(427,-101,o),
(452,-101,cs),
(479,-101,o),
(499,-121,o),
(499,-147,cs),
(499,-173,o),
(479,-193,o),
(452,-193,cs),
(427,-193,o),
(407,-173,o),
(407,-147,cs)
);
},
{
closed = 1;
nodes = (
(540,-180,l),
(581,-180,l),
(609,-117,l),
(541,-117,l)
);
},
{
closed = 1;
nodes = (
(560,-85,o),
(512,-38,o),
(452,-38,cs),
(407,-38,o),
(369,-66,o),
(353,-104,c),
(344,-162,l),
(353,-215,o),
(397,-255,o),
(452,-255,cs),
(513,-255,o),
(561,-207,o),
(561,-146,c)
);
}
);
width = 600;
}
);
},
{
glyphname = "nya-oriya";
layers = (
{
anchors = (
{
name = am;
pos = (680,659);
},
{
name = below;
pos = (496,-20);
},
{
name = bindu;
pos = (351,-96);
},
{
name = bottom;
pos = (643,-3);
},
{
name = bottomtwo;
pos = (715,-146);
},
{
name = chanBin;
pos = (648,702);
},
{
name = hal;
pos = (536,703);
},
{
name = nukta;
pos = (351,-50);
},
{
name = reph2;
pos = (613,4);
},
{
name = reph3;
pos = (611,-258);
},
{
name = ru;
pos = (351,-7);
},
{
name = top;
pos = (351,754);
}
);
guides = (
{
angle = -90;
pos = (695,497);
},
{
pos = (1037,350);
},
{
angle = 270;
pos = (434,564);
}
);
hints = (
{
horizontal = 1;
place = (3, 78);
place = (3, 78);
type = Stem;
},
{
horizontal = 1;
place = (318, 71);
place = (318, 71);
type = Stem;
},
{
horizontal = 1;
place = (620, 80);
place = (620, 80);
type = Stem;
},
{
horizontal = 1;
place = (190, 187);
place = (190, 187);
type = Stem;
},
{
horizontal = 1;
place = (311, 66);
place = (311, 66);
type = Stem;
},
{
horizontal = 1;
place = (618, 81);
place = (618, 81);
type = Stem;
},
{
horizontal = 1;
place = (440, 192);
place = (440, 192);
type = Stem;
},
{
place = (37, 86);
place = (37, 86);
type = Stem;
},
{
place = (225, 80);
place = (225, 80);
type = Stem;
},
{
place = (398, 69);
place = (398, 69);
type = Stem;
},
{
place = (576, 78);
place = (576, 78);
type = Stem;
}
);
layerId = m01;
shapes = (
{
closed = 1;
nodes = (
(703,379,o),
(776,446,o),
(776,521,cs),
(776,575,ls),
(776,644,o),
(711,700,o),
(633,700,cs),
(592,699,o),
(554,684,o),
(528,660,c),
(502,684,o),
(464,700,o),
(423,700,cs),
(344,699,o),
(279,643,o),
(279,575,cs),
(279,473,l),
(357,473,l),
(357,574,ls),
(357,591,o),
(375,622,o),
(424,622,cs),
(469,622,o),
(488,590,o),
(488,575,cs),
(488,473,l),
(567,473,l),
(567,574,ls),
(567,591,o),
(585,622,o),
(634,622,cs),
(679,622,o),
(698,590,o),
(698,575,cs),
(698,524,ls),
(698,478,o),
(629,423,o),
(547,420,cs),
(436,416,o),
(312,415,o),
(232,461,cs),
(192,484,o),
(164,514,o),
(153,559,c),
(131,469,l),
(146,431,o),
(171,415,o),
(197,394,cs),
(259,346,o),
(456,333,o),
(617,357,c)
);
},
{
closed = 1;
nodes = (
(381,435,o),
(279,359,o),
(279,275,cs),
(279,173,l),
(357,173,l),
(357,274,ls),
(357,291,o),
(375,322,o),
(424,322,cs),
(469,322,o),
(488,290,o),
(488,275,cs),
(488,173,l),
(567,173,l),
(567,274,ls),
(567,291,o),
(585,322,o),
(634,322,cs),
(679,322,o),
(698,290,o),
(698,275,cs),
(698,224,ls),
(698,132,o),
(564,81,o),
(431,81,cs),
(302,81,o),
(140,183,o),
(133,310,cs),
(131,351,o),
(131,407,o),
(142,471,cs),
(154,529,l),
(168,583,o),
(189,640,o),
(221,700,c),
(136,700,l),
(27,459,o),
(53,331,o),
(53,312,cs),
(54,118,o),
(256,0,o),
(428,0,cs),
(611,0,o),
(776,65,o),
(776,221,cs),
(776,275,ls),
(776,383,o),
(620,455,o),
(496,350,c)
);
}
);
width = 827;
}
);
unicode = 2846;
},
{
glyphname = "tta-oriya";
layers = (
{
anchors = (
{
name = am;
pos = (680,659);
},
{
name = below;
pos = (496,-20);
},
{
name = bindu;
pos = (351,-96);
},
{
name = bottom;
pos = (493,17);
},
{
name = bottomtwo;
pos = (715,-146);
},
{
name = chanBin;
pos = (548,702);
},
{
name = hal;
pos = (416,703);
},
{
name = nukta;
pos = (351,-50);
},
{
name = reph2;
pos = (613,4);
},
{
name = reph3;
pos = (611,-258);
},
{
name = ru;
pos = (351,-7);
},
{
name = top;
pos = (351,754);
}
);
layerId = m01;
shapes = (
{
closed = 1;
nodes = (
(573,389,l),
(652,389,l),
(652,397,o),
(652,405,o),
(651,412,c),
(651,653,l),
(573,703,l)
);
},
{
closed = 1;
nodes = (
(226,259,o),
(278,311,o),
(342,311,cs),
(407,311,o),
(459,259,o),
(459,194,cs),
(459,130,o),
(407,78,o),
(342,78,cs),
(278,78,o),
(226,130,o),
(226,194,cs)
);
},
{
closed = 1;
nodes = (
(152,153,l),
(171,66,o),
(249,0,o),
(342,0,cs),
(450,0,o),
(537,87,o),
(537,194,cs),
(537,302,o),
(450,389,o),
(342,389,cs),
(247,389,o),
(169,321,o),
(151,231,c)
);
},
{
closed = 1;
nodes = (
(583,583,l),
(526,654,o),
(439,699,o),
(340,699,cs),
(169,699,o),
(30,559,o),
(30,388,cs),
(30,279,o),
(86,184,o),
(169,128,c),
(165,235,l),
(130,276,o),
(108,329,o),
(108,388,cs),
(108,516,o),
(212,621,o),
(340,621,cs),
(468,621,o),
(571,519,o),
(574,392,c)
);
}
);
width = 682;
}
);
unicode = 2847;
},
{
glyphname = "tta-oriya.base";
layers = (
{
layerId = m01;
shapes = (
{
closed = 1;
nodes = (
(672,-39,l),
(673,-39,l),
(735,-41,l),
(735,109,l),
(672,137,l)
);
},
{
closed = 1;
nodes = (
(511,-121,o),
(534,-97,o),
(561,-97,cs),
(590,-97,o),
(612,-121,o),
(612,-149,cs),
(612,-176,o),
(590,-200,o),
(561,-200,cs),
(534,-200,o),
(511,-176,o),
(511,-149,cs)
);
},
{
closed = 1;
nodes = (
(453,-164,l),
(462,-217,o),
(506,-258,o),
(561,-258,cs),
(621,-258,o),
(672,-209,o),
(672,-149,cs),
(672,-88,o),
(621,-41,o),
(561,-41,cs),
(514,-41,o),
(474,-71,o),
(460,-113,c)
);
},
{
closed = 1;
nodes = (
(683,80,l),
(652,113,o),
(609,132,o),
(561,132,cs),
(465,132,o),
(387,53,o),
(387,-43,cs),
(387,-105,o),
(420,-158,o),
(470,-189,c),
(476,-111,l),
(459,-91,o),
(449,-68,o),
(449,-41,cs),
(449,21,o),
(499,72,o),
(561,72,cs),
(624,72,o),
(674,21,o),
(673,-42,c)
);
}
);
width = 600;
}
);
},
{
glyphname = "ttha-oriya";
layers = (
{
anchors = (
{
name = am;
pos = (680,659);
},
{
name = below;
pos = (496,-20);
},
{
name = bindu;
pos = (351,-96);
},
{
name = bottom;
pos = (343,-3);
},
{
name = bottomtwo;
pos = (715,-146);
},
{
name = chanBin;
pos = (548,702);
},
{
name = hal;
pos = (466,703);
},
{
name = nukta;
pos = (351,-50);
},
{
name = reph2;
pos = (613,4);
},
{
name = reph3;
pos = (611,-258);
},
{
name = ru;
pos = (351,-7);
},
{
name = top;
pos = (351,754);
}
);
layerId = m01;
shapes = (
{
closed = 1;
nodes = (
(573,0,o),
(730,157,o),
(730,350,cs),
(730,543,o),
(573,700,o),
(380,700,cs),
(187,700,o),
(30,543,o),
(30,350,cs),
(30,157,o),
(187,0,o),
(380,0,cs)
);
},
{
closed = 1;
nodes = (
(111,500,o),
(233,622,o),
(382,622,cs),
(530,622,o),
(652,500,o),
(652,352,cs),
(652,203,o),
(530,78,o),
(382,78,cs),
(233,78,o),
(111,203,o),
(111,352,cs)
);
}
);
width = 760;
}
);
unicode = 2848;
},
{
glyphname = "ttha-oriya.base";
layers = (
{
layerId = m01;
shapes = (
{
closed = 1;
nodes = (
(738,-258,o),
(825,-171,o),
(825,-63,cs),
(825,45,o),
(738,132,o),
(630,132,cs),
(522,132,o),
(435,45,o),
(435,-63,cs),
(435,-171,o),
(522,-258,o),
(630,-258,cs)
);
},
{
closed = 1;
nodes = (
(500,9,o),
(559,68,o),
(631,68,cs),
(703,68,o),
(761,9,o),
(761,-62,cs),
(761,-134,o),
(703,-194,o),
(631,-194,cs),
(559,-194,o),
(500,-134,o),
(500,-62,cs)
);
}
);
width = 760;
}
);
},
{
glyphname = "dda-oriya";
layers = (
{
anchors = (
{
name = am;
pos = (680,659);
},
{
name = below;
pos = (496,-20);
},
{
name = bindu;
pos = (351,-96);
},
{
name = bottom;
pos = (493,17);
},
{
name = bottomtwo;
pos = (715,-146);
},
{
name = chanBin;
pos = (548,702);
},
{
name = hal;
pos = (416,703);
},
{
name = nukta;
pos = (351,-50);
},
{
name = reph2;
pos = (613,4);
},
{
name = reph3;
pos = (611,-258);
},
{
name = ru;
pos = (351,-7);
},
{
name = top;
pos = (351,754);
}
);
layerId = m01;
shapes = (
{
closed = 1;
nodes = (
(164,237,l),
(129,277,o),
(108,330,o),
(108,388,cs),
(108,516,o),
(212,621,o),
(340,621,cs),
(469,621,o),
(573,517,o),
(574,389,c),
(652,389,l),
(651,560,o),
(512,699,o),
(340,699,cs),
(169,699,o),
(30,559,o),
(30,388,cs),
(30,280,o),
(85,185,o),
(168,129,c)
);
},
{
closed = 1;
nodes = (
(496,334,l),
(441,389,l),
(423,371,ls),
(368,316,o),
(350,297,o),
(318,265,c),
(373,210,l)
);
},
{
closed = 1;
nodes = (
(443,299,l),
(454,290,o),
(460,279,o),
(466,267,cs),
(493,209,o),
(449,116,o),
(390,89,cs),
(332,62,o),
(263,87,o),
(236,145,cs),
(208,203,o),
(233,272,o),
(291,299,c),
(258,370,l),
(200,344,o),
(162,291,o),
(150,234,c),
(150,155,l),
(155,138,o),
(159,126,o),
(165,112,cs),
(210,15,o),
(326,-27,o),
(423,18,cs),
(521,64,o),
(563,179,o),
(518,276,cs),
(507,298,o),
(495,317,o),
(477,332,c)
);
}
);
width = 682;
}
);
unicode = 2849;
},
{
glyphname = "dda-oriya.base";
layers = (
{
layerId = m01;
shapes = (
{
closed = 1;
nodes = (
(474,-111,l),
(459,-91,o),
(449,-68,o),
(449,-41,cs),
(449,21,o),
(499,72,o),
(561,72,cs),
(623,72,o),
(672,23,o),
(673,-39,c),
(735,-41,l),
(734,53,o),
(657,132,o),
(561,132,cs),
(465,132,o),
(387,53,o),
(387,-43,cs),
(387,-105,o),
(420,-158,o),
(470,-189,c)
);
},
{
closed = 1;
nodes = (
(648,-109,l),
(669,-88,l),
(628,-48,l),
(550,-128,l),
(592,-167,l),
(623,-136,l)
);
},
{
closed = 1;
nodes = (
(453,-164,l),
(462,-217,o),
(506,-258,o),
(561,-258,cs),
(621,-258,o),
(672,-209,o),
(672,-149,cs),
(672,-126,o),
(664,-102,o),
(651,-85,c),
(612,-131,l),
(612,-149,ls),
(612,-176,o),
(590,-200,o),
(561,-200,cs),
(534,-200,o),
(511,-176,o),
(511,-149,cs),
(511,-133,o),
(519,-118,o),
(531,-108,c),
(501,-59,l),
(482,-72,o),
(467,-90,o),
(458,-113,c)
);
}
);
width = 600;
}
);
},
{
glyphname = "ddha-oriya";
layers = (
{
anchors = (
{
name = am;
pos = (680,659);
},
{
name = below;
pos = (496,-20);
},
{
name = bindu;
pos = (351,-96);
},
{
name = bottom;
pos = (493,17);
},
{
name = bottomtwo;
pos = (715,-146);
},
{
name = chanBin;
pos = (548,702);
},
{
name = hal;
pos = (416,703);
},
{
name = nukta;
pos = (351,-50);
},
{
name = reph2;
pos = (613,4);
},
{
name = reph3;
pos = (611,-258);
},
{
name = ru;
pos = (351,-7);
},
{
name = top;
pos = (351,754);
}
);
guides = (
{
angle = 225;
pos = (365,239);
},
{
pos = (719,204);
}
);
hints = (
{
horizontal = 1;
origin = (1,3);
target = (1,28);
type = Stem;
},
{
horizontal = 1;
origin = (0,10);
target = (1,16);
type = Stem;
},
{
horizontal = 1;
origin = (2,6);
target = (2,13);
type = Stem;
},
{
origin = (2,16);
target = (2,3);
type = Stem;
},
{
origin = (1,22);
target = (0,7);
type = Stem;
},
{
origin = (0,13);
target = (1,12);
type = Stem;
}
);
layerId = m01;
shapes = (
{
closed = 1;
nodes = (
(430,194,ls),
(430,181,o),
(428,168,o),
(424,156,c),
(382,156,ls),
(355,156,o),
(334,177,o),
(334,204,cs),
(334,231,o),
(355,252,o),
(382,252,cs),
(409,252,o),
(430,231,o),
(430,204,cs)
);
},
{
closed = 1;
nodes = (
(123,153,l),
(142,66,o),
(220,0,o),
(313,0,cs),
(377,0,o),
(434,31,o),
(469,78,c),
(542,78,l),
(592,156,l),
(504,156,l),
(507,168,o),
(508,181,o),
(508,194,cs),
(508,204,ls),
(508,274,o),
(452,330,o),
(382,330,cs),
(326,330,o),
(278,294,o),
(262,243,cs),
(258,231,o),
(256,218,o),
(256,204,cs),
(256,146,o),
(294,98,o),
(347,83,c),
(336,80,o),
(325,78,o),
(313,78,cs),
(249,78,o),
(197,130,o),
(197,194,cs),
(197,232,o),
(214,265,o),
(241,286,c),
(209,358,l),
(164,330,o),
(134,285,o),
(122,231,c)
);
},
{
closed = 1;
nodes = (
(136,235,l),
(101,276,o),
(79,329,o),
(79,388,cs),
(79,516,o),
(183,621,o),
(311,621,cs),
(440,621,o),
(544,517,o),
(545,389,c),
(623,389,l),
(622,560,o),
(483,699,o),
(311,699,cs),
(140,699,o),
(1,559,o),
(1,388,cs),
(1,279,o),
(57,184,o),
(140,128,c)
);
}
);
width = 600;
}
);
unicode = 2850;
},
{
glyphname = "ddha-oriya.base";
layers = (
{
hints = (
{
horizontal = 1;
origin = (0,50);
place = (132, 43);
type = Stem;
},
{
horizontal = 1;
origin = (1,2);
target = (0,18);
type = Stem;
},
{
horizontal = 1;
place = (501, 44);
place = (501, 44);
type = Stem;
},
{
place = (138, 44);
place = (138, 44);
type = Stem;
},
{
origin = (0,24);
target = (1,12);
type = Stem;
},
{
origin = (1,5);
target = (0,40);
type = Stem;
}
);
layerId = m01;
shapes = (
{
closed = 1;
nodes = (
(387,-99,o),
(414,-148,o),
(457,-180,c),
(471,-225,o),
(512,-258,o),
(561,-258,cs),
(594,-258,o),
(624,-243,o),
(645,-220,c),
(691,-220,l),
(715,-159,l),
(672,-159,l),
(672,-156,o),
(672,-153,o),
(672,-150,cs),
(672,-149,ls),
(671,-110,o),
(641,-79,o),
(602,-79,cs),
(571,-79,o),
(544,-99,o),
(535,-128,cs),
(533,-135,o),
(532,-142,o),
(532,-150,cs),
(532,-169,o),
(540,-186,o),
(552,-199,c),
(529,-194,o),
(511,-173,o),
(511,-149,cs),
(511,-133,o),
(519,-118,o),
(531,-108,c),
(501,-59,l),
(486,-69,o),
(474,-82,o),
(465,-98,c),
(455,-81,o),
(449,-62,o),
(449,-41,cs),
(449,21,o),
(499,72,o),
(561,72,cs),
(623,72,o),
(672,23,o),
(673,-39,c),
(735,-41,l),
(734,53,o),
(657,132,o),
(561,132,cs),
(465,132,o),
(387,53,o),
(387,-43,cs)
);
},
{
closed = 1;
nodes = (
(596,-145,o),
(599,-141,o),
(604,-141,cs),
(609,-141,o),
(612,-145,o),
(612,-150,cs),
(612,-153,o),
(612,-155,o),
(611,-158,c),
(604,-158,ls),
(599,-158,o),
(596,-154,o),
(596,-150,cs)
);
}
);
width = 600;
}
);
},
{
glyphname = "nna-oriya";
layers = (
{
anchors = (
{
name = am;
pos = (680,659);
},
{
name = below;
pos = (496,-20);
},
{
name = bindu;
pos = (351,-96);
},
{
name = bottom;
pos = (635,17);
},
{
name = bottomtwo;
pos = (715,-146);
},
{
name = chanBin;
pos = (548,702);
},
{
name = hal;
pos = (686,703);
},
{
name = nukta;
pos = (351,-50);
},
{
name = reph2;
pos = (636,4);
},
{
name = reph3;
pos = (611,-258);
},
{
name = ru;
pos = (351,-7);
},
{
name = top;
pos = (351,754);
}
);
layerId = m01;
shapes = (
{
closed = 1;
nodes = (
(604,558,l),
(541,643,o),
(442,699,o),
(327,699,cs),
(244,699,ls),
(137,699,o),
(50,612,o),
(50,505,cs),
(50,440,o),
(81,383,o),
(129,348,c),
(83,312,o),
(54,257,o),
(54,194,cs),
(54,87,o),
(140,0,o),
(247,0,cs),
(376,0,ls),
(483,0,o),
(569,87,o),
(569,195,cs),
(569,314,o),
(498,392,o),
(385,379,cs),
(344,374,o),
(305,348,o),
(279,310,cs),
(251,269,o),
(240,213,o),
(261,154,cs),
(278,106,o),
(312,86,o),
(347,78,c),
(248,78,ls),
(184,78,o),
(132,130,o),
(132,194,cs),
(132,254,o),
(167,304,o),
(234,311,c),
(248,311,l),
(248,389,l),
(234,389,l),
(229,389,l),
(172,396,o),
(128,445,o),
(128,505,cs),
(128,569,o),
(180,621,o),
(244,621,cs),
(321,621,ls),
(473,621,o),
(593,501,o),
(593,349,cs),
(593,348,l),
(610,348,l)
);
},
{
closed = 1;
nodes = (
(313,214,o),
(331,291,o),
(395,300,cs),
(465,310,o),
(491,259,o),
(491,195,cs),
(491,153,o),
(470,117,o),
(438,96,c),
(396,98,o),
(350,109,o),
(334,154,cs)
);
},
{
closed = 1;
nodes = (
(593,0,l),
(671,0,l),
(671,700,l),
(593,700,l)
);
}
);
width = 722;
}
);
unicode = 2851;
},
{
glyphname = "nna-oriya.base";
layers = (
{
layerId = m01;
shapes = (
{
closed = 1;
nodes = (
(623,-258,l),
(683,-258,l),
(683,125,l),
(623,125,l)
);
},
{
closed = 1;
nodes = (
(475,-135,o),
(489,-115,o),
(511,-115,cs),
(530,-115,o),
(547,-132,o),
(547,-151,cs),
(547,-174,o),
(532,-194,o),
(511,-203,c),
(494,-203,o),
(474,-172,o),
(475,-157,cs)
);
},
{
closed = 1;
nodes = (
(634,65,l),
(602,101,o),
(557,125,o),
(505,125,cs),
(447,125,ls),
(388,125,o),
(339,77,o),
(339,16,cs),
(339,-17,o),
(354,-46,o),
(378,-66,c),
(354,-86,o),
(339,-116,o),
(339,-150,cs),
(339,-210,o),
(387,-258,o),
(447,-258,cs),
(494,-258,ls),
(550,-258,o),
(597,-210,o),
(598,-152,cs),
(598,-150,ls),
(597,-105,o),
(560,-69,o),
(515,-69,cs),
(469,-69,o),
(432,-106,o),
(432,-152,cs),
(432,-177,o),
(443,-196,o),
(462,-208,c),
(447,-208,ls),
(414,-208,o),
(390,-182,o),
(390,-150,cs),
(390,-120,o),
(411,-96,o),
(438,-92,c),
(448,-92,l),
(448,-48,l),
(448,-48,o),
(448,-41,o),
(447,-41,cs),
(416,-41,o),
(398,-15,o),
(398,16,cs),
(398,49,o),
(423,72,o),
(454,72,cs),
(505,72,ls),
(573,72,o),
(623,21,o),
(623,-48,c)
);
}
);
width = 600;
}
);
},
{
glyphname = "ta-oriya";
layers = (
{
anchors = (
{
name = am;
pos = (680,659);
},
{
name = below;
pos = (496,-20);
},
{
name = bindu;
pos = (351,-96);
},
{
name = bottom;
pos = (493,17);
},
{
name = bottomtwo;
pos = (715,-146);
},
{
name = chanBin;
pos = (548,702);
},
{
name = hal;
pos = (416,703);
},
{
name = nukta;
pos = (351,-50);
},
{
name = reph2;
pos = (613,4);
},
{
name = reph3;
pos = (611,-258);
},
{
name = ru;
pos = (351,-7);
},
{
name = top;
pos = (351,754);
}
);
guides = (
{
angle = 90;
pos = (360,234);
}
);
layerId = m01;
shapes = (
{
closed = 1;
nodes = (
(184,237,l),
(149,277,o),
(128,330,o),
(128,388,cs),
(128,516,o),
(232,621,o),
(360,621,cs),
(489,621,o),
(593,517,o),
(594,389,c),
(672,389,l),
(671,560,o),
(532,699,o),
(360,699,cs),
(189,699,o),
(50,559,o),
(50,388,cs),
(50,280,o),
(105,185,o),
(188,129,c)
);
},
{
closed = 1;
nodes = (
(170,155,l),
(175,138,o),
(179,126,o),
(185,112,cs),
(230,15,o),
(346,-27,o),
(443,18,cs),
(541,64,o),
(583,179,o),
(538,276,cs),
(517,320,o),
(483,352,o),
(443,371,c),
(410,300,l),
(434,289,o),
(455,270,o),
(467,243,cs),
(494,185,o),
(469,116,o),
(410,89,cs),
(352,62,o),
(283,87,o),
(256,145,cs),
(228,203,o),
(253,272,o),
(311,299,c),
(278,370,l),
(220,344,o),
(182,291,o),
(170,234,c)
);
}
);
width = 702;
}
);
unicode = 2852;
},
{
glyphname = "ta-oriya.base";
layers = (
{
layerId = m01;
shapes = (
{
closed = 1;
nodes = (
(474,-111,l),
(459,-91,o),
(449,-68,o),
(449,-41,cs),
(449,21,o),
(499,72,o),
(561,72,cs),
(623,72,o),
(672,23,o),
(673,-39,c),
(735,-41,l),
(734,53,o),
(657,132,o),
(561,132,cs),
(465,132,o),
(387,53,o),
(387,-43,cs),
(387,-105,o),
(420,-158,o),
(470,-189,c)
);
},
{
closed = 1;
nodes = (
(453,-164,l),
(462,-217,o),
(506,-258,o),
(561,-258,cs),
(621,-258,o),
(672,-209,o),
(672,-149,cs),
(672,-111,o),
(652,-78,o),
(622,-59,c),
(594,-109,l),
(605,-119,o),
(612,-133,o),
(612,-149,cs),
(612,-176,o),
(590,-200,o),
(561,-200,cs),
(534,-200,o),
(511,-176,o),
(511,-149,cs),
(511,-133,o),
(519,-118,o),
(531,-108,c),
(501,-59,l),
(482,-72,o),
(467,-90,o),
(458,-113,c)
);
}
);
width = 600;
}
);
},
{
glyphname = "tha-oriya";
layers = (
{
anchors = (
{
name = am;
pos = (730,659);
},
{
name = below;
pos = (546,-20);
},
{
name = bindu;
pos = (401,-96);
},
{
name = bottom;
pos = (636,17);
},
{
name = bottomtwo;
pos = (765,-146);
},
{
name = chanBin;
pos = (548,702);
},
{
name = hal;
pos = (686,703);
},
{
name = nukta;
pos = (401,-50);
},
{
name = reph2;
pos = (636,4);
},
{
name = reph3;
pos = (611,-258);
},
{
name = ru;
pos = (401,-7);
},
{
name = top;
pos = (401,754);
}
);
guides = (
{
angle = 90;
pos = (245,257);
},
{
angle = 90;
pos = (321,257);
}
);
layerId = m01;
shapes = (
{
closed = 1;
nodes = (
(51,466,o),
(64,429,o),
(85,399,c),
(150,443,l),
(136,461,o),
(128,484,o),
(128,508,cs),
(129,571,o),
(181,622,o),
(244,622,cs),
(281,622,ls),
(345,622,o),
(397,570,o),
(397,506,cs),
(397,441,o),
(345,389,o),
(281,389,cs),
(245,389,ls),
(138,389,o),
(51,302,o),
(51,194,cs),
(51,87,o),
(138,0,o),
(245,0,cs),
(321,0,l),
(321,78,l),
(245,78,ls),
(181,78,o),
(129,130,o),
(129,194,cs),
(129,259,o),
(181,311,o),
(245,311,cs),
(281,311,ls),
(388,311,o),
(475,398,o),
(475,506,cs),
(475,613,o),
(389,700,o),
(282,700,cs),
(243,700,ls),
(137,700,o),
(52,615,o),
(50,510,cs),
(50,505,ls)
);
},
{
pos = (-113,700);
ref = topright;
scale = (1,-1);
},
{
pos = (544,0);
ref = "aaMatra-oriya";
}
);
width = 722;
}
);
unicode = 2853;
},
{
glyphname = "tha-oriya.base";
layers = (
{
layerId = m01;
shapes = (
{
closed = 1;
nodes = (
(623,-87,l),
(623,-156,o),
(573,-199,o),
(505,-199,cs),
(454,-199,ls),
(423,-199,o),
(401,-184,o),
(401,-151,cs),
(401,-120,o),
(440,-100,o),
(454,-95,cs),
(470,-89,o),
(550,-86,o),
(553,21,cs),
(555,84,o),
(505,129,o),
(444,129,cs),
(377,129,o),
(336,84,o),
(336,21,cs),
(336,20,l),
(380,20,l),
(380,20,o),
(395,20,o),
(395,21,cs),
(395,50,o),
(413,68,o),
(442,68,cs),
(475,68,o),
(491,49,o),
(491,18,cs),
(491,-29,o),
(446,-40,o),
(446,-40,c),
(391,-55,o),
(339,-92,o),
(339,-151,cs),
(339,-212,o),
(388,-260,o),
(447,-260,cs),
(505,-260,ls),
(557,-260,o),
(602,-236,o),
(634,-200,c)
);
},
{
closed = 1;
nodes = (
(623,-258,l),
(683,-258,l),
(683,125,l),
(623,125,l)
);
}
);
width = 622;
}
);
},
{
glyphname = "da-oriya";
layers = (
{
anchors = (
{
name = am;
pos = (680,659);
},
{
name = below;
pos = (496,-20);
},
{
name = bindu;
pos = (351,-96);
},
{
name = bottom;
pos = (501,18);
},
{
name = bottomtwo;
pos = (715,-146);
},
{
name = chanBin;
pos = (548,702);
},
{
name = hal;
pos = (614,703);
},
{
name = nukta;
pos = (351,-50);
},
{
name = reph2;
pos = (613,4);
},
{
name = reph3;
pos = (611,-258);
},
{
name = ru;
pos = (351,-7);
},
{
name = top;
pos = (351,754);
}
);
layerId = m01;
shapes = (
{
closed = 1;
nodes = (
(165,235,l),
(130,276,o),
(108,329,o),
(108,388,cs),
(108,516,o),
(212,621,o),
(340,621,cs),
(469,621,o),
(573,517,o),
(574,389,c),
(652,389,l),
(651,560,o),
(512,699,o),
(340,699,cs),
(169,699,o),
(30,559,o),
(30,388,cs),
(30,279,o),
(86,184,o),
(169,128,c)
);
},
{
closed = 1;
nodes = (
(459,0,l),
(537,0,l),
(537,388,l),
(459,388,l)
);
},
{
closed = 1;
nodes = (
(295,383,l),
(222,365,o),
(166,306,o),
(151,231,c),
(152,153,l),
(171,66,o),
(249,0,o),
(342,0,cs),
(392,0,o),
(436,18,o),
(471,49,c),
(459,194,l),
(459,130,o),
(407,78,o),
(342,78,cs),
(278,78,o),
(226,130,o),
(226,194,cs),
(226,259,o),
(278,311,o),
(341,311,c)
);
}
);
width = 682;
}
);
unicode = 2854;
},
{
glyphname = "da-oriya.base";
layers = (
{
layerId = m01;
shapes = (
{
closed = 1;
nodes = (
(491,-126,l),
(465,-106,o),
(449,-75,o),
(449,-41,cs),
(449,21,o),
(499,72,o),
(561,72,c),
(623,72,o),
(672,23,o),
(673,-39,c),
(735,-41,l),
(734,53,o),
(657,132,o),
(561,132,cs),
(465,132,o),
(387,53,o),
(387,-43,cs),
(387,-106,o),
(421,-160,o),
(475,-191,c)
);
},
{
closed = 1;
nodes = (
(612,-258,l),
(672,-258,l),
(672,-76,l),
(612,-76,l)
);
},
{
closed = 1;
nodes = (
(672,-149,o),
(612,-149,o),
(612,-149,cs),
(612,-176,o),
(590,-200,o),
(561,-200,cs),
(534,-200,o),
(511,-176,o),
(511,-149,cs),
(511,-133,o),
(519,-118,o),
(531,-108,c),
(501,-59,l),
(472,-78,o),
(453,-111,o),
(453,-149,cs),
(453,-209,o),
(502,-258,o),
(561,-258,cs),
(621,-258,o),
(672,-209,o),
(672,-149,cs)
);
}
);
width = 600;
}
);
},
{
glyphname = "dha-oriya";
layers = (
{
anchors = (
{
name = am;
pos = (680,659);
},
{
name = below;
pos = (496,-20);
},
{
name = bindu;
pos = (351,-96);
},
{
name = bottom;
pos = (636,19);
},
{
name = bottomtwo;
pos = (715,-146);
},
{
name = chanBin;
pos = (548,702);
},
{
name = hal;
pos = (686,703);
},
{
name = nukta;
pos = (351,-50);
},
{
name = reph2;
pos = (637,4);
},
{
name = reph3;
pos = (611,-258);
},
{
name = ru;
pos = (351,-7);
},
{
name = top;
pos = (351,754);
}
);
guides = (
{
angle = 180;
pos = (653,344);
}
);
layerId = m01;
shapes = (
{
closed = 1;
nodes = (
(595,0,l),
(673,0,l),
(673,700,l),
(595,700,l)
);
},
{
pos = (-112,700);
ref = topright;
scale = (1,-1);
},
{
closed = 1;
nodes = (
(191,381,l),
(111,357,o),
(52,283,o),
(52,194,cs),
(52,87,o),
(139,0,o),
(246,0,cs),
(329,0,l),
(329,78,l),
(246,78,ls),
(182,78,o),
(130,130,o),
(130,194,cs),
(130,259,o),
(182,311,o),
(246,311,cs),
(362,311,l),
(362,389,l),
(271,389,l),
(133,700,l),
(52,700,l)
);
}
);
width = 723;
}
);
unicode = 2855;
},
{
glyphname = "dha-oriya.base";
layers = (
{
layerId = m01;
shapes = (
{
closed = 1;
nodes = (
(535,-102,l),
(578,-59,l),
(385,132,l),
(342,89,l),
(427,4,l)
);
},
{
closed = 1;
nodes = (
(610,-251,l),
(672,-251,l),
(672,132,l),
(610,132,l)
);
},
{
closed = 1;
nodes = (
(610,-87,l),
(609,-149,o),
(560,-198,o),
(498,-198,cs),
(436,-198,o),
(386,-147,o),
(386,-85,cs),
(386,-46,o),
(408,-10,o),
(441,9,c),
(398,56,l),
(352,24,o),
(324,-25,o),
(324,-83,cs),
(324,-179,o),
(402,-258,o),
(498,-258,cs),
(547,-258,o),
(590,-238,o),
(621,-207,c)
);
}
);
width = 600;
}
);
},
{
glyphname = "na-oriya";
layers = (
{
anchors = (
{
name = am;
pos = (680,659);
},
{
name = below;
pos = (496,-20);
},
{
name = bindu;
pos = (351,-96);
},
{
name = bottom;
pos = (487,17);
},
{
name = bottomtwo;
pos = (715,-146);
},
{
name = chanBin;
pos = (548,702);
},
{
name = hal;
pos = (563,703);
},
{
name = nukta;
pos = (351,-50);
},
{
name = reph2;
pos = (613,4);
},
{
name = reph3;
pos = (611,-258);
},
{
name = ru;
pos = (351,-7);
},
{
name = top;
pos = (351,754);
}
);
guides = (
{
pos = (502,350);
}
);
layerId = m01;
shapes = (
{
closed = 1;
nodes = (
(114,-1,l),
(195,-1,l),
(349,346,l),
(286,305,l),
(491,305,l),
(446,350,l),
(446,0,l),
(524,0,l),
(524,383,l),
(283,383,l),
(283,381,l),
(281,383,l)
);
},
{
closed = 1;
nodes = (
(220,205,l),
(165,247,o),
(130,313,o),
(130,388,cs),
(130,516,o),
(234,621,o),
(362,621,cs),
(491,621,o),
(595,517,o),
(596,389,c),
(674,389,l),
(673,560,o),
(534,699,o),
(362,699,cs),
(191,699,o),
(52,559,o),
(52,388,cs),
(52,287,o),
(100,197,o),
(175,140,c),
(183,156,l)
);
}
);
width = 702;
}
);
unicode = 2856;
},
{
glyphname = "na-oriya.base";
layers = (
{
hints = (
{
horizontal = 1;
place = (0, 78);
place = (0, 78);
type = Stem;
},
{
horizontal = 1;
place = (621, 78);
place = (621, 78);
type = Stem;
},
{
place = (-116, 78);
place = (-116, 78);
type = Stem;
},
{
place = (8, 71);
place = (8, 71);
type = Stem;
},
{
place = (328, 62);
place = (328, 62);
type = Stem;
}
);
layerId = m01;
shapes = (
{
closed = 1;
nodes = (
(440,-136,l),
(428,-126,l),
(402,-106,o),
(386,-75,o),
(386,-41,cs),
(386,21,o),
(436,72,o),
(498,72,cs),
(560,72,o),
(609,23,o),
(610,-39,c),
(672,-41,l),
(671,53,o),
(594,132,o),
(498,132,cs),
(402,132,o),
(324,53,o),
(324,-43,cs),
(324,-100,o),
(351,-149,o),
(396,-181,c)
);
},
{
closed = 1;
nodes = (
(342,-212,l),
(385,-255,l),
(567,-75,l),
(535,-62,l),
(535,-258,l),
(595,-258,l),
(595,-21,l),
(535,-21,l)
);
}
);
width = 600;
}
);
},
{
glyphname = "pa-oriya";
layers = (
{
anchors = (
{
name = am;
pos = (680,659);
},
{
name = below;
pos = (496,-20);
},
{
name = bindu;
pos = (351,-96);
},
{
name = bottom;
pos = (634,17);
},
{
name = bottomtwo;
pos = (715,-146);
},
{
name = chanBin;
pos = (548,702);
},
{
name = hal;
pos = (686,703);
},
{
name = nukta;
pos = (351,-50);
},
{
name = reph2;
pos = (634,4);
},
{
name = reph3;
pos = (611,-258);
},
{
name = ru;
pos = (351,-7);
},
{
name = top;
pos = (351,754);
}
);
layerId = m01;
shapes = (
{
closed = 1;
nodes = (
(593,0,l),
(671,0,l),
(671,700,l),
(593,700,l)
);
},
{
closed = 1;
nodes = (
(50,87,o),
(137,0,o),
(244,0,cs),
(327,0,l),
(327,78,l),
(244,78,ls),
(180,78,o),
(128,130,o),
(128,194,cs),
(128,255,o),
(174,304,o),
(232,310,c),
(244,310,l),
(334,310,l),
(340,310,l),
(340,389,l),
(334,389,l),
(244,389,l),
(232,389,l),
(174,395,o),
(128,444,o),
(128,505,cs),
(128,569,o),
(180,621,o),
(244,621,cs),
(327,621,l),
(327,699,l),
(244,699,ls),
(137,699,o),
(50,612,o),
(50,505,cs),
(50,441,o),
(80,385,o),
(127,349,c),
(80,314,o),
(50,258,o),
(50,194,cs)
);
},
{
pos = (-114,-1);
ref = topright;
},
{
pos = (-114,700);
ref = topright;
scale = (1,-1);
}
);
width = 721;
}
);
unicode = 2858;
},
{
glyphname = "pa-oriya.base";
layers = (
{
layerId = m01;
shapes = (
{
closed = 1;
nodes = (
(619,-258,l),
(679,-258,l),
(679,125,l),
(619,125,l)
);
},
{
closed = 1;
nodes = (
(571,68,o),
(619,18,o),
(620,-49,c),
(677,-48,l),
(676,45,o),
(600,124,o),
(505,125,cs),
(447,125,ls),
(388,125,o),
(339,77,o),
(339,16,cs),
(339,-17,o),
(355,-48,o),
(379,-67,c),
(355,-87,o),
(339,-118,o),
(339,-151,cs),
(339,-212,o),
(388,-260,o),
(447,-260,cs),
(505,-260,ls),
(600,-259,o),
(676,-180,o),
(677,-87,c),
(620,-86,l),
(619,-153,o),
(571,-203,o),
(505,-203,cs),
(456,-203,ls),
(425,-203,o),
(401,-181,o),
(401,-149,cs),
(401,-119,o),
(419,-93,o),
(449,-93,c),
(449,-42,l),
(419,-42,o),
(401,-16,o),
(401,14,cs),
(401,46,o),
(425,68,o),
(456,68,cs),
(505,68,ls)
);
}
);
width = 600;
}
);
},
{
glyphname = "pha-oriya";
layers = (
{
anchors = (
{
name = am;
pos = (680,659);
},
{
name = below;
pos = (496,-20);
},
{
name = bindu;
pos = (351,-96);
},
{
name = bottom;
pos = (634,17);
},
{
name = bottomtwo;
pos = (715,-146);
},
{
name = chanBin;
pos = (548,702);
},
{
name = hal;
pos = (686,703);
},
{
name = nukta;
pos = (351,-50);
},
{
name = reph2;
pos = (635,4);
},
{
name = reph3;
pos = (611,-258);
},
{
name = ru;
pos = (351,-7);
},
{
name = top;
pos = (351,754);
}
);
layerId = m01;
shapes = (
{
ref = "pa-oriya";
},
{
closed = 1;
nodes = (
(812,415,o),
(876,479,o),
(876,557,cs),
(876,635,o),
(812,699,o),
(734,699,cs),
(656,699,o),
(592,635,o),
(592,557,cs),
(592,479,o),
(656,415,o),
(734,415,cs)
);
},
{
closed = 1;
nodes = (
(670,592,o),
(699,621,o),
(734,621,cs),
(769,621,o),
(798,592,o),
(798,557,cs),
(798,522,o),
(769,493,o),
(734,493,cs),
(699,493,o),
(670,522,o),
(670,557,cs)
);
}
);
width = 906;
}
);
unicode = 2859;
},
{
glyphname = "pha-oriya.base";
layers = (
{
layerId = m01;
shapes = (
{
closed = 1;
nodes = (
(623,76,l),
(592,106,o),
(551,124,o),
(505,125,cs),
(503,125,l),
(447,125,ls),
(388,125,o),
(339,77,o),
(339,16,cs),
(339,-17,o),
(355,-48,o),
(379,-67,c),
(355,-87,o),
(339,-118,o),
(339,-151,cs),
(339,-212,o),
(388,-260,o),
(447,-260,cs),
(503,-260,l),
(505,-260,ls),
(551,-259,o),
(592,-241,o),
(623,-211,c),
(623,-258,l),
(683,-258,l),
(683,-3,l),
(690,-6,o),
(697,-7,o),
(705,-7,cs),
(741,-7,o),
(773,23,o),
(773,60,cs),
(773,97,o),
(741,126,o),
(705,126,cs),
(697,126,o),
(690,125,o),
(683,122,c),
(683,125,l),
(623,125,l)
);
},
{
closed = 1;
nodes = (
(398,-120,o),
(416,-94,o),
(447,-94,c),
(447,-94,o),
(448,-93,o),
(448,-92,cs),
(448,-43,ls),
(448,-42,o),
(447,-41,o),
(447,-41,c),
(416,-41,o),
(398,-15,o),
(398,16,cs),
(398,49,o),
(423,72,o),
(454,72,cs),
(505,72,ls),
(573,72,o),
(622,21,o),
(623,-48,cs),
(623,-87,ls),
(622,-156,o),
(573,-207,o),
(505,-207,cs),
(454,-207,ls),
(423,-207,o),
(398,-184,o),
(398,-151,cs)
);
},
{
closed = 1;
nodes = (
(507,-260,l),
(505,-260,l)
);
},
{
closed = 1;
nodes = (
(507,125,l),
(505,125,l)
);
},
{
closed = 1;
nodes = (
(683,72,o),
(693,83,o),
(705,83,cs),
(717,83,o),
(727,72,o),
(727,60,cs),
(727,48,o),
(717,37,o),
(705,37,cs),
(693,37,o),
(683,48,o),
(683,60,cs)
);
}
);
width = 721;
}
);
},
{
glyphname = "ba-oriya";
layers = (
{
anchors = (
{
name = am;
pos = (680,659);
},
{
name = below;
pos = (496,-20);
},
{
name = bindu;
pos = (351,-96);
},
{
name = bottom;
pos = (500,18);
},
{
name = bottomtwo;
pos = (715,-146);
},
{
name = chanBin;
pos = (548,702);
},
{
name = hal;
pos = (576,703);
},
{
name = nukta;
pos = (351,-50);
},
{
name = reph2;
pos = (605,4);
},
{
name = reph3;
pos = (611,-258);
},
{
name = ru;
pos = (351,-7);
},
{
name = top;
pos = (351,754);
}
);
layerId = m01;
shapes = (
{
closed = 1;
nodes = (
(458,130,o),
(407,78,o),
(342,78,cs),
(278,78,o),
(226,130,o),
(226,194,cs),
(226,259,o),
(278,311,o),
(342,311,cs),
(407,311,o),
(459,259,o),
(459,194,cs)
);
},
{
closed = 1;
nodes = (
(152,153,l),
(171,66,o),
(249,0,o),
(342,0,cs),
(392,0,o),
(432,19,o),
(459,50,c),
(459,0,l),
(537,0,l),
(537,194,ls),
(537,302,o),
(450,389,o),
(342,389,cs),
(247,389,o),
(169,321,o),
(151,231,c)
);
},
{
closed = 1;
nodes = (
(165,235,l),
(130,276,o),
(108,329,o),
(108,388,cs),
(108,516,o),
(212,621,o),
(340,621,cs),
(469,621,o),
(573,517,o),
(574,389,c),
(652,389,l),
(651,560,o),
(512,699,o),
(340,699,cs),
(169,699,o),
(30,559,o),
(30,388,cs),
(30,279,o),
(86,184,o),
(169,128,c)
);
}
);
width = 682;
}
);
unicode = 2860;
},
{
glyphname = "ba-oriya.base";
layers = (
{
layerId = m01;
shapes = (
{
closed = 1;
nodes = (
(621,-258,o),
(672,-209,o),
(672,-149,cs),
(672,-88,o),
(621,-41,o),
(561,-41,cs),
(502,-41,o),
(453,-88,o),
(453,-149,cs),
(453,-209,o),
(502,-258,o),
(561,-258,cs)
);
},
{
closed = 1;
nodes = (
(534,-200,o),
(511,-176,o),
(511,-149,cs),
(511,-121,o),
(534,-97,o),
(561,-97,cs),
(590,-97,o),
(612,-121,o),
(612,-149,cs),
(612,-176,o),
(590,-200,o),
(561,-200,cs)
);
},
{
closed = 1;
nodes = (
(491,-126,l),
(465,-106,o),
(449,-75,o),
(449,-41,cs),
(449,21,o),
(499,72,o),
(561,72,c),
(623,72,o),
(672,23,o),
(673,-39,c),
(735,-41,l),
(734,53,o),
(657,132,o),
(561,132,cs),
(465,132,o),
(387,53,o),
(387,-43,cs),
(387,-106,o),
(421,-160,o),
(475,-191,c)
);
},
{
closed = 1;
nodes = (
(621,-258,o),
(672,-209,o),
(672,-149,cs),
(672,-88,o),
(621,-41,o),
(561,-41,cs),
(502,-41,o),
(453,-88,o),
(453,-149,cs),
(453,-209,o),
(502,-258,o),
(561,-258,cs)
);
},
{
closed = 1;
nodes = (
(534,-200,o),
(511,-176,o),
(511,-149,cs),
(511,-121,o),
(534,-97,o),
(561,-97,cs),
(590,-97,o),
(612,-121,o),
(612,-149,cs),
(612,-176,o),
(590,-200,o),
(561,-200,cs)
);
},
{
closed = 1;
nodes = (
(491,-126,l),
(465,-106,o),
(449,-75,o),
(449,-41,cs),
(449,21,o),
(499,72,o),
(561,72,c),
(623,72,o),
(672,23,o),
(673,-39,c),
(735,-41,l),
(734,53,o),
(657,132,o),
(561,132,cs),
(465,132,o),
(387,53,o),
(387,-43,cs),
(387,-106,o),
(421,-160,o),
(475,-191,c)
);
},
{
closed = 1;
nodes = (
(610,-258,l),
(668,-258,l),
(672,-149,l),
(614,-149,l)
);
}
);
width = 600;
}
);
},
{
glyphname = "bha-oriya";
layers = (
{
anchors = (
{
name = am;
pos = (680,659);
},
{
name = below;
pos = (496,-20);
},
{
name = bindu;
pos = (351,-96);
},
{
name = bottom;
pos = (613,17);
},
{
name = bottomtwo;
pos = (715,-146);
},
{
name = chanBin;
pos = (548,702);
},
{
name = hal;
pos = (436,703);
},
{
name = nukta;
pos = (351,-50);
},
{
name = reph2;
pos = (635,4);
},
{
name = reph3;
pos = (611,-258);
},
{
name = ru;
pos = (351,-7);
},
{
name = top;
pos = (351,754);
}
);
layerId = m01;
shapes = (
{
closed = 1;
nodes = (
(57,88,o),
(144,8,o),
(252,1,cs),
(399,-9,o),
(487,80,o),
(519,187,cs),
(526,210,o),
(529,244,o),
(531,275,c),
(532,279,o),
(532,283,o),
(532,287,cs),
(532,291,ls),
(532,326,o),
(533,354,o),
(533,354,c),
(532,354,l),
(532,389,l),
(455,389,l),
(455,344,l),
(455,344,o),
(454,318,o),
(454,284,c),
(450,260,o),
(411,240,o),
(388,240,cs),
(361,241,o),
(322,261,o),
(322,288,cs),
(322,312,o),
(323,352,o),
(323,389,c),
(244,390,l),
(243,390,ls),
(179,390,o),
(128,441,o),
(128,505,cs),
(128,541,o),
(144,574,o),
(170,595,cs),
(190,612,o),
(216,622,o),
(244,622,cs),
(392,622,l),
(392,700,l),
(244,700,ls),
(194,700,o),
(148,681,o),
(113,649,cs),
(74,613,o),
(50,562,o),
(50,505,cs),
(50,441,o),
(81,385,o),
(128,350,c),
(84,314,o),
(57,258,o),
(57,195,cs)
);
},
{
closed = 1;
nodes = (
(135,257,o),
(183,312,o),
(244,312,c),
(244,287,ls),
(244,219,o),
(318,163,o),
(387,162,cs),
(407,162,o),
(429,167,o),
(448,176,c),
(430,119,o),
(355,70,o),
(252,79,cs),
(187,84,o),
(135,131,o),
(135,195,cs)
);
},
{
pos = (-45,0);
ref = right;
}
);
width = 790;
}
);
unicode = 2861;
},
{
glyphname = "bha-oriya.base";
layers = (
{
layerId = m01;
shapes = (
{
closed = 1;
nodes = (
(447,125,ls),
(388,125,o),
(339,77,o),
(339,16,cs),
(339,-17,o),
(354,-47,o),
(378,-67,c),
(354,-86,o),
(339,-116,o),
(339,-149,cs),
(339,-208,o),
(387,-252,o),
(447,-256,cs),
(527,-261,o),
(576,-213,o),
(593,-154,cs),
(602,-124,o),
(601,-62,o),
(601,-62,c),
(546,-77,l),
(546,-77,o),
(545,-113,o),
(545,-144,cs),
(545,-176,o),
(506,-208,o),
(450,-203,cs),
(419,-201,o),
(394,-178,o),
(394,-148,cs),
(394,-117,o),
(416,-92,o),
(447,-92,cs),
(448,-92,l),
(448,-48,l),
(448,-48,o),
(448,-41,o),
(447,-41,cs),
(416,-41,o),
(398,-15,o),
(398,16,cs),
(398,49,o),
(423,71,o),
(454,71,cs),
(539,71,ls),
(617,71,o),
(684,10,o),
(684,-68,cs),
(684,-134,o),
(647,-194,o),
(615,-207,c),
(624,-252,l),
(684,-236,o),
(741,-152,o),
(731,-51,cs),
(724,47,o),
(643,124,o),
(542,125,cs)
);
},
{
closed = 1;
nodes = (
(624,-261,l),
(718,-261,l),
(707,-207,l),
(613,-207,l)
);
},
{
closed = 1;
nodes = (
(546,-88,o),
(547,-91,o),
(547,-101,cs),
(547,-110,o),
(530,-119,o),
(521,-119,c),
(510,-118,o),
(495,-110,o),
(494,-100,cs),
(494,-91,o),
(495,-74,o),
(495,-60,cs),
(495,-60,o),
(496,-41,o),
(496,-41,c),
(440,-41,l),
(440,-41,o),
(440,-48,o),
(440,-48,cs),
(440,-85,o),
(440,-55,o),
(440,-105,cs),
(440,-143,o),
(482,-174,o),
(520,-174,c),
(558,-174,o),
(601,-143,o),
(601,-105,cs),
(601,-53,o),
(602,-98,o),
(601,-41,c),
(546,-41,l)
);
}
);
width = 726;
}
);
},
{
glyphname = "ma-oriya";
layers = (
{
anchors = (
{
name = am;
pos = (680,659);
},
{
name = below;
pos = (496,-20);
},
{
name = bindu;
pos = (351,-96);
},
{
name = bottom;
pos = (636,17);
},
{
name = bottomtwo;
pos = (715,-146);
},
{
name = chanBin;
pos = (548,702);
},
{
name = hal;
pos = (686,703);
},
{
name = nukta;
pos = (351,-50);
},
{
name = reph2;
pos = (636,4);
},
{
name = reph3;
pos = (611,-258);
},
{
name = ru;
pos = (351,-7);
},
{
name = top;
pos = (351,754);
}
);
guides = (
{
angle = 65;
pos = (340,427);
}
);
layerId = m01;
shapes = (
{
closed = 1;
nodes = (
(673,-1,l),
(673,699,l),
(595,699,l),
(595,-1,l)
);
},
{
closed = 1;
nodes = (
(133,-1,l),
(271,310,l),
(362,310,l),
(362,388,l),
(246,388,ls),
(182,388,o),
(130,440,o),
(130,505,cs),
(130,569,o),
(182,621,o),
(246,621,cs),
(329,621,l),
(329,699,l),
(246,699,ls),
(139,699,o),
(52,612,o),
(52,505,cs),
(52,416,o),
(111,342,o),
(191,318,c),
(52,-1,l)
);
},
{
closed = 1;
nodes = (
(363,310,l),
(362,310,l)
);
},
{
closed = 1;
nodes = (
(363,388,l),
(362,388,l)
);
},
{
pos = (-112,-1);
ref = topright;
}
);
width = 723;
}
);
unicode = 2862;
},
{
glyphname = "ma-oriya.base";
layers = (
{
layerId = m01;
shapes = (
{
closed = 1;
nodes = (
(342,-215,l),
(385,-258,l),
(578,-67,l),
(535,-24,l),
(427,-130,l)
);
},
{
closed = 1;
nodes = (
(610,-258,l),
(672,-258,l),
(672,125,l),
(610,125,l)
);
},
{
closed = 1;
nodes = (
(441,-135,l),
(408,-116,o),
(386,-80,o),
(386,-41,cs),
(386,21,o),
(436,72,o),
(498,72,cs),
(560,72,o),
(609,23,o),
(610,-39,c),
(621,81,l),
(590,112,o),
(547,132,o),
(498,132,cs),
(402,132,o),
(324,53,o),
(324,-43,cs),
(324,-101,o),
(352,-150,o),
(398,-182,c)
);
}
);
width = 600;
}
);
},
{
glyphname = "ya-oriya";
layers = (
{
anchors = (
{
name = am;
pos = (760,659);
},
{
name = below;
pos = (576,-20);
},
{
name = bindu;
pos = (431,-96);
},
{
name = bottom;
pos = (714,17);
},
{
name = bottomtwo;
pos = (795,-146);
},
{
name = chanBin;
pos = (628,702);
},
{
name = hal;
pos = (766,703);
},
{
name = nukta;
pos = (431,-50);
},
{
name = reph2;
pos = (715,4);
},
{
name = reph3;
pos = (691,-258);
},
{
name = ru;
pos = (431,-7);
},
{
name = top;
pos = (431,754);
}
);
layerId = m01;
shapes = (
{
pos = (80,0);
ref = "pa-oriya";
},
{
closed = 1;
nodes = (
(410,311,l),
(410,389,l),
(40,389,l),
(40,311,l)
);
}
);
width = 801;
}
);
unicode = 2863;
},
{
glyphname = "ya-oriya.base";
layers = (
{
layerId = m01;
shapes = (
{
closed = 1;
nodes = (
(619,-258,l),
(683,-258,l),
(683,125,l),
(619,125,l)
);
},
{
closed = 1;
nodes = (
(461,-42,l),
(424,-48,o),
(401,-20,o),
(401,14,cs),
(401,46,o),
(425,68,o),
(456,68,cs),
(505,68,ls),
(572,68,o),
(621,16,o),
(620,-51,c),
(630,69,l),
(599,102,o),
(555,124,o),
(505,125,cs),
(447,125,ls),
(388,125,o),
(339,77,o),
(339,16,cs),
(339,-11,o),
(349,-36,o),
(366,-53,c)
);
},
{
closed = 1;
nodes = (
(360,-89,l),
(346,-106,o),
(339,-129,o),
(339,-151,cs),
(339,-212,o),
(388,-260,o),
(447,-260,cs),
(505,-260,ls),
(555,-259,o),
(599,-237,o),
(630,-204,c),
(620,-84,l),
(621,-151,o),
(572,-203,o),
(505,-203,cs),
(456,-203,ls),
(425,-203,o),
(401,-181,o),
(401,-149,cs),
(401,-124,o),
(413,-103,o),
(435,-96,c)
);
},
{
closed = 1;
nodes = (
(405,-103,l),
(519,-103,l),
(519,-42,l),
(317,-41,l),
(317,-102,l),
(367,-102,l)
);
}
);
width = 600;
}
);
},
{
glyphname = "ra-oriya";
layers = (
{
anchors = (
{
name = am;
pos = (680,659);
},
{
name = below;
pos = (496,-20);
},
{
name = bindu;
pos = (351,-96);
},
{
name = bottom;
pos = (383,17);
},
{
name = bottomtwo;
pos = (715,-146);
},
{
name = chanBin;
pos = (548,702);
},
{
name = hal;
pos = (416,703);
},
{
name = nukta;
pos = (351,-50);
},
{
name = reph2;
pos = (575,4);
},
{
name = reph3;
pos = (611,-258);
},
{
name = ru;
pos = (351,-7);
},
{
name = top;
pos = (291,754);
}
);
layerId = m01;
shapes = (
{
closed = 1;
nodes = (
(244,389,l),
(180,389,o),
(128,441,o),
(128,505,cs),
(128,570,o),
(180,622,o),
(244,622,cs),
(277,622,l),
(327,622,l),
(327,700,l),
(277,700,l),
(244,700,ls),
(137,700,o),
(50,613,o),
(50,505,cs),
(50,436,o),
(86,375,o),
(140,341,c)
);
},
{
closed = 1;
nodes = (
(128,259,o),
(180,311,o),
(244,311,cs),
(309,311,o),
(361,259,o),
(361,194,cs),
(361,130,o),
(309,78,o),
(244,78,cs),
(180,78,o),
(128,130,o),
(128,194,cs)
);
},
{
pos = (-110,0);
ref = right;
},
{
closed = 1;
nodes = (
(140,359,l),
(86,324,o),
(50,264,o),
(50,194,cs),
(50,87,o),
(137,0,o),
(244,0,cs),
(352,0,o),
(439,87,o),
(439,194,cs),
(439,302,o),
(353,389,o),
(245,389,cs),
(244,389,l)
);
}
);
width = 726;
}
);
unicode = 2864;
},
{
glyphname = "la-oriya";
layers = (
{
anchors = (
{
name = am;
pos = (680,659);
},
{
name = below;
pos = (496,-20);
},
{
name = bindu;
pos = (351,-96);
},
{
name = bottom;
pos = (509,19);
},
{
name = bottomtwo;
pos = (715,-146);
},
{
name = chanBin;
pos = (548,702);
},
{
name = hal;
pos = (416,703);
},
{
name = nukta;
pos = (351,-50);
},
{
name = reph2;
pos = (509,6);
},
{
name = reph3;
pos = (611,-258);
},
{
name = ru;
pos = (351,-7);
},
{
name = top;
pos = (351,754);
}
);
guides = (
{
pos = (1053,350);
}
);
hints = (
{
horizontal = 1;
place = (-700, 78);
place = (-700, 78);
type = Stem;
},
{
horizontal = 1;
place = (-389, 78);
place = (-389, 78);
type = Stem;
},
{
horizontal = 1;
place = (622, 78);
place = (622, 78);
type = Stem;
},
{
place = (-16, 46);
place = (-16, 46);
type = Stem;
},
{
place = (447, 50);
place = (447, 50);
type = Stem;
}
);
layerId = m01;
shapes = (
{
closed = 1;
nodes = (
(121,376,l),
(80,354,o),
(50,313,o),
(50,268,cs),
(50,2,l),
(128,2,l),
(128,267,ls),
(128,284,o),
(146,315,o),
(195,315,cs),
(227,315,o),
(259,293,o),
(259,268,cs),
(259,2,l),
(337,2,l),
(337,267,ls),
(337,284,o),
(355,315,o),
(404,315,cs),
(449,315,o),
(468,283,o),
(468,268,cs),
(468,2,l),
(546,2,l),
(546,268,ls),
(546,337,o),
(481,393,o),
(403,393,cs),
(362,392,o),
(325,377,o),
(298,353,c),
(273,377,o),
(239,392,o),
(200,392,c)
);
},
{
pos = (5,0);
ref = right;
},
{
closed = 1;
nodes = (
(234,384,l),
(172,407,o),
(128,444,o),
(128,505,cs),
(128,570,o),
(180,622,o),
(244,622,cs),
(447,622,l),
(447,700,l),
(244,700,ls),
(137,700,o),
(50,613,o),
(50,505,cs),
(50,445,o),
(77,392,o),
(118,357,c)
);
}
);
width = 835;
}
);
unicode = 2866;
},
{
glyphname = "la-oriya.base";
layers = (
{
layerId = m01;
shapes = (
{
closed = 1;
nodes = (
(603,125,l),
(599,125,l)
);
},
{
closed = 1;
nodes = (
(364,-56,l),
(346,-71,o),
(333,-89,o),
(333,-110,cs),
(333,-250,l),
(333,-257,l),
(387,-257,l),
(387,-155,l),
(387,-115,l),
(388,-105,o),
(403,-97,o),
(414,-96,cs),
(423,-96,o),
(440,-105,o),
(440,-114,cs),
(440,-257,l),
(494,-257,l),
(495,-201,o),
(494,-244,o),
(494,-115,c),
(495,-105,o),
(510,-97,o),
(521,-96,cs),
(530,-96,o),
(547,-105,o),
(547,-114,cs),
(547,-257,l),
(601,-257,l),
(602,-200,o),
(601,-245,o),
(601,-110,cs),
(601,-72,o),
(558,-41,o),
(520,-41,cs),
(501,-41,o),
(482,-48,o),
(467,-60,c),
(449,-47,o),
(424,-37,o),
(403,-42,c)
);
},
{
closed = 1;
nodes = (
(599,125,l),
(599,125,o),
(603,125,o),
(603,125,cs),
(603,125,o),
(598,125,o),
(418,125,cs),
(359,125,o),
(310,77,o),
(310,16,cs),
(310,-43,o),
(359,-92,o),
(418,-92,c),
(419,-41,l),
(387,-41,o),
(369,-15,o),
(369,16,cs),
(369,49,o),
(394,71,o),
(425,71,cs),
(458,71,o),
(599,71,o),
(599,71,cs),
(599,71,o),
(599,82,o),
(599,82,c)
);
}
);
width = 600;
}
);
},
{
glyphname = "lla-oriya";
layers = (
{
anchors = (
{
name = am;
pos = (680,659);
},
{
name = below;
pos = (496,-20);
},
{
name = bindu;
pos = (351,-96);
},
{
name = bottom;
pos = (573,19);
},
{
name = bottomtwo;
pos = (715,-146);
},
{
name = chanBin;
pos = (548,702);
},
{
name = hal;
pos = (416,703);
},
{
name = nukta;
pos = (351,-50);
},
{
name = reph2;
pos = (575,4);
},
{
name = reph3;
pos = (611,-258);
},
{
name = ru;
pos = (351,-7);
},
{
name = top;
pos = (351,754);
}
);
layerId = m01;
shapes = (
{
closed = 1;
nodes = (
(140,313,l),
(133,337,o),
(128,361,o),
(128,388,cs),
(128,516,o),
(232,621,o),
(360,621,cs),
(489,621,o),
(593,517,o),
(594,389,c),
(672,389,l),
(671,560,o),
(532,699,o),
(360,699,cs),
(189,699,o),
(50,559,o),
(50,388,cs),
(50,311,o),
(77,242,o),
(123,188,c)
);
},
{
closed = 1;
nodes = (
(113,247,l),
(113,17,o),
(112,68,o),
(113,2,c),
(193,2,l),
(194,39,o),
(190,239,o),
(192,263,c),
(191,290,o),
(231,310,o),
(258,311,cs),
(278,311,o),
(311,296,o),
(321,276,c),
(320,272,o),
(320,268,o),
(320,264,cs),
(320,15,o),
(319,69,o),
(320,2,c),
(402,2,l),
(403,104,o),
(402,11,o),
(402,264,cs),
(402,268,o),
(402,271,o),
(401,275,c),
(410,296,o),
(442,310,o),
(465,311,cs),
(489,311,o),
(531,289,o),
(531,264,cs),
(531,239,o),
(533,55,o),
(532,2,c),
(609,2,l),
(610,104,o),
(609,11,o),
(609,264,cs),
(609,333,o),
(532,389,o),
(464,389,cs),
(427,388,o),
(389,372,o),
(361,347,c),
(333,373,o),
(294,389,o),
(257,389,cs),
(207,388,o),
(152,358,o),
(128,315,c)
);
}
);
width = 722;
}
);
unicode = 2867;
},
{
glyphname = "lla-oriya.base";
layers = (
{
layerId = m01;
shapes = (
{
closed = 1;
nodes = (
(603,125,l),
(599,125,l)
);
},
{
closed = 1;
nodes = (
(364,-56,l),
(346,-71,o),
(333,-89,o),
(333,-110,cs),
(333,-250,l),
(333,-257,l),
(387,-257,l),
(387,-155,l),
(387,-115,l),
(388,-105,o),
(403,-97,o),
(414,-96,cs),
(423,-96,o),
(440,-105,o),
(440,-114,cs),
(440,-257,l),
(494,-257,l),
(495,-201,o),
(494,-244,o),
(494,-115,c),
(495,-105,o),
(510,-97,o),
(521,-96,cs),
(530,-96,o),
(547,-105,o),
(547,-114,cs),
(547,-257,l),
(601,-257,l),
(602,-200,o),
(601,-245,o),
(601,-110,cs),
(601,-72,o),
(558,-41,o),
(520,-41,cs),
(501,-41,o),
(482,-48,o),
(467,-60,c),
(449,-47,o),
(424,-37,o),
(403,-42,c)
);
},
{
closed = 1;
nodes = (
(599,125,l),
(599,125,o),
(603,125,o),
(603,125,cs),
(603,125,o),
(598,125,o),
(418,125,cs),
(359,125,o),
(310,77,o),
(310,16,cs),
(310,-43,o),
(359,-92,o),
(418,-92,c),
(419,-41,l),
(387,-41,o),
(369,-15,o),
(369,16,cs),
(369,49,o),
(394,71,o),
(425,71,cs),
(458,71,o),
(599,71,o),
(599,71,cs),
(599,71,o),
(599,82,o),
(599,82,c)
);
}
);
width = 600;
}
);
},
{
glyphname = "va-oriya";
layers = (
{
anchors = (
{
name = am;
pos = (680,659);
},
{
name = below;
pos = (496,-20);
},
{
name = bindu;
pos = (351,-96);
},
{
name = bottom;
pos = (502,18);
},
{
name = bottomtwo;
pos = (715,-146);
},
{
name = chanBin;
pos = (548,702);
},
{
name = hal;
pos = (566,703);
},
{
name = nukta;
pos = (351,-50);
},
{
name = reph2;
pos = (635,4);
},
{
name = reph3;
pos = (611,-258);
},
{
name = ru;
pos = (351,-7);
},
{
name = top;
pos = (351,754);
}
);
layerId = m01;
shapes = (
{
ref = "ba-oriya";
},
{
closed = 1;
nodes = (
(304,130,o),
(275,159,o),
(275,194,cs),
(275,230,o),
(304,259,o),
(339,259,cs),
(375,259,o),
(404,230,o),
(404,194,cs),
(404,159,o),
(375,130,o),
(339,130,cs)
);
}
);
width = 682;
}
);
unicode = 2869;
},
{
glyphname = "va-oriya.base";
layers = (
{
layerId = m01;
shapes = (
{
closed = 1;
nodes = (
(621,-258,o),
(672,-209,o),
(672,-149,cs),
(672,-88,o),
(621,-41,o),
(561,-41,cs),
(502,-41,o),
(453,-88,o),
(453,-149,cs),
(453,-209,o),
(502,-258,o),
(561,-258,cs)
);
},
{
closed = 1;
nodes = (
(534,-200,o),
(511,-176,o),
(511,-149,cs),
(511,-121,o),
(534,-97,o),
(561,-97,cs),
(590,-97,o),
(612,-121,o),
(612,-149,cs),
(612,-176,o),
(590,-200,o),
(561,-200,cs)
);
},
{
closed = 1;
nodes = (
(491,-126,l),
(465,-106,o),
(449,-75,o),
(449,-41,cs),
(449,21,o),
(499,72,o),
(561,72,c),
(623,72,o),
(672,23,o),
(673,-39,c),
(735,-41,l),
(734,53,o),
(657,132,o),
(561,132,cs),
(465,132,o),
(387,53,o),
(387,-43,cs),
(387,-106,o),
(421,-160,o),
(475,-191,c)
);
},
{
closed = 1;
nodes = (
(621,-258,o),
(672,-209,o),
(672,-149,cs),
(672,-88,o),
(621,-41,o),
(561,-41,cs),
(502,-41,o),
(453,-88,o),
(453,-149,cs),
(453,-209,o),
(502,-258,o),
(561,-258,cs)
);
},
{
closed = 1;
nodes = (
(534,-200,o),
(511,-176,o),
(511,-149,cs),
(511,-121,o),
(534,-97,o),
(561,-97,cs),
(590,-97,o),
(612,-121,o),
(612,-149,cs),
(612,-176,o),
(590,-200,o),
(561,-200,cs)
);
},
{
closed = 1;
nodes = (
(491,-126,l),
(465,-106,o),
(449,-75,o),
(449,-41,cs),
(449,21,o),
(499,72,o),
(561,72,c),
(623,72,o),
(672,23,o),
(673,-39,c),
(735,-41,l),
(734,53,o),
(657,132,o),
(561,132,cs),
(465,132,o),
(387,53,o),
(387,-43,cs),
(387,-106,o),
(421,-160,o),
(475,-191,c)
);
},
{
closed = 1;
nodes = (
(610,-258,l),
(668,-258,l),
(672,-149,l),
(614,-149,l)
);
}
);
width = 600;
}
);
},
{
glyphname = "sha-oriya";
layers = (
{
anchors = (
{
name = am;
pos = (680,659);
},
{
name = below;
pos = (496,-20);
},
{
name = bindu;
pos = (351,-96);
},
{
name = bottom;
pos = (625,17);
},
{
name = bottomtwo;
pos = (715,-146);
},
{
name = chanBin;
pos = (548,702);
},
{
name = hal;
pos = (686,703);
},
{
name = nukta;
pos = (351,-50);
},
{
name = reph2;
pos = (625,4);
},
{
name = reph3;
pos = (611,-258);
},
{
name = ru;
pos = (351,-7);
},
{
name = top;
pos = (351,754);
}
);
layerId = m01;
shapes = (
{
closed = 1;
nodes = (
(154,296,l),
(126,316,o),
(108,349,o),
(108,387,cs),
(108,452,o),
(160,504,o),
(224,504,cs),
(249,504,o),
(267,497,o),
(286,484,c),
(321,557,l),
(293,572,o),
(262,581,o),
(229,582,c),
(254,605,o),
(286,621,o),
(322,621,c),
(322,699,l),
(229,699,o),
(178,637,o),
(142,564,c),
(76,533,o),
(30,466,o),
(30,387,cs),
(30,316,o),
(68,255,o),
(123,221,c)
);
},
{
closed = 1;
nodes = (
(185,259,o),
(237,311,o),
(301,311,cs),
(366,311,o),
(418,259,o),
(418,194,cs),
(418,130,o),
(366,78,o),
(301,78,cs),
(237,78,o),
(185,130,o),
(185,194,cs)
);
},
{
closed = 1;
nodes = (
(662,0,l),
(662,694,l),
(584,694,l),
(584,0,l)
);
},
{
pos = (-123,0);
ref = topright;
},
{
closed = 1;
nodes = (
(113,246,l),
(109,229,o),
(107,211,o),
(107,194,cs),
(107,87,o),
(194,0,o),
(301,0,cs),
(409,0,o),
(496,87,o),
(496,194,cs),
(496,302,o),
(409,389,o),
(301,389,cs),
(229,389,o),
(167,350,o),
(134,293,c)
);
}
);
width = 693;
}
);
unicode = 2870;
},
{
glyphname = "sha-oriya.base";
layers = (
{
layerId = m01;
shapes = (
{
closed = 1;
nodes = (
(623,-258,l),
(683,-258,l),
(683,125,l),
(623,125,l)
);
},
{
closed = 1;
nodes = (
(397,-121,o),
(420,-97,o),
(447,-97,cs),
(476,-97,o),
(498,-121,o),
(498,-149,cs),
(498,-176,o),
(476,-200,o),
(447,-200,cs),
(420,-200,o),
(397,-176,o),
(397,-149,cs)
);
},
{
closed = 1;
nodes = (
(355,-91,l),
(346,-108,o),
(339,-127,o),
(339,-149,cs),
(339,-209,o),
(388,-258,o),
(447,-258,cs),
(507,-258,o),
(558,-209,o),
(558,-149,cs),
(558,-88,o),
(507,-41,o),
(447,-41,cs),
(419,-41,o),
(393,-51,o),
(375,-70,cs)
);
},
{
closed = 1;
nodes = (
(436,79,l),
(372,82,o),
(320,33,o),
(320,-30,cs),
(320,-63,o),
(335,-92,o),
(359,-113,c),
(395,-71,l),
(382,-61,o),
(374,-46,o),
(374,-30,cs),
(374,0,o),
(396,22,o),
(425,22,cs),
(436,22,o),
(444,19,o),
(452,14,c),
(482,65,l)
);
},
{
closed = 1;
nodes = (
(634,65,l),
(602,101,o),
(556,125,o),
(503,125,cs),
(458,125,o),
(432,100,o),
(412,66,c),
(468,61,l),
(476,67,o),
(488,72,o),
(505,72,cs),
(573,72,o),
(623,21,o),
(623,-48,c)
);
}
);
width = 600;
}
);
},
{
glyphname = "ssa-oriya";
layers = (
{
anchors = (
{
name = am;
pos = (680,659);
},
{
name = below;
pos = (496,-20);
},
{
name = bindu;
pos = (351,-96);
},
{
name = bottom;
pos = (634,17);
},
{
name = bottomtwo;
pos = (715,-146);
},
{
name = chanBin;
pos = (548,702);
},
{
name = hal;
pos = (686,703);
},
{
name = nukta;
pos = (351,-50);
},
{
name = reph2;
pos = (635,4);
},
{
name = reph3;
pos = (611,-258);
},
{
name = ru;
pos = (351,-7);
},
{
name = top;
pos = (351,754);
}
);
layerId = m01;
shapes = (
{
ref = "pa-oriya";
},
{
closed = 1;
nodes = (
(448,48,l),
(521,74,l),
(263,676,l),
(190,650,l)
);
}
);
width = 721;
}
);
unicode = 2871;
},
{
glyphname = "ssa-oriya.base";
layers = (
{
layerId = m01;
shapes = (
{
closed = 1;
nodes = (
(623,-258,l),
(683,-258,l),
(683,125,l),
(623,125,l)
);
},
{
closed = 1;
nodes = (
(447,125,ls),
(388,125,o),
(339,77,o),
(339,16,cs),
(339,-17,o),
(355,-48,o),
(379,-67,c),
(355,-87,o),
(339,-118,o),
(339,-151,cs),
(339,-212,o),
(388,-260,o),
(447,-260,cs),
(505,-260,ls),
(600,-259,o),
(676,-180,o),
(677,-87,c),
(623,-87,l),
(622,-156,o),
(573,-207,o),
(505,-207,cs),
(454,-207,ls),
(423,-207,o),
(398,-184,o),
(398,-151,cs),
(398,-120,o),
(416,-94,o),
(447,-94,c),
(447,-94,o),
(448,-93,o),
(448,-92,cs),
(448,-43,l),
(445,-33,o),
(457,-41,o),
(447,-41,cs),
(416,-41,o),
(398,-15,o),
(398,16,cs),
(398,49,o),
(423,72,o),
(454,72,cs),
(505,72,ls),
(573,72,o),
(622,21,o),
(623,-48,c),
(677,-48,l),
(676,45,o),
(600,124,o),
(505,125,cs)
);
},
{
closed = 1;
nodes = (
(628,-210,l),
(670,-167,l),
(399,103,l),
(357,61,l)
);
}
);
width = 600;
}
);
},
{
glyphname = "sa-oriya";
layers = (
{
anchors = (
{
name = am;
pos = (680,659);
},
{
name = below;
pos = (496,-20);
},
{
name = bindu;
pos = (351,-96);
},
{
name = bottom;
pos = (605,17);
},
{
name = bottomtwo;
pos = (715,-146);
},
{
name = chanBin;
pos = (548,702);
},
{
name = hal;
pos = (686,703);
},
{
name = nukta;
pos = (351,-50);
},
{
name = reph2;
pos = (606,4);
},
{
name = reph3;
pos = (611,-258);
},
{
name = ru;
pos = (351,-7);
},
{
name = top;
pos = (351,754);
}
);
guides = (
{
angle = 65;
pos = (198,427);
}
);
layerId = m01;
shapes = (
{
closed = 1;
nodes = (
(217,310,l),
(244,310,l),
(360,310,l),
(360,388,l),
(244,388,ls),
(180,388,o),
(128,440,o),
(128,505,cs),
(128,569,o),
(180,621,o),
(244,621,cs),
(297,621,l),
(297,699,l),
(244,699,ls),
(137,699,o),
(50,612,o),
(50,505,cs),
(50,422,o),
(102,351,o),
(173,324,c)
);
},
{
closed = 1;
nodes = (
(361,310,l),
(360,310,l)
);
},
{
closed = 1;
nodes = (
(361,388,l),
(360,388,l)
);
},
{
pos = (-143,-1);
ref = topright;
},
{
closed = 1;
nodes = (
(166,344,l),
(67,136,l),
(69,134,l),
(67,134,l),
(67,53,l),
(563,0,l),
(641,0,l),
(641,699,l),
(563,699,l),
(563,33,l),
(608,73,l),
(145,125,l),
(240,324,l)
);
}
);
width = 691;
}
);
unicode = 2872;
},
{
glyphname = "sa-oriya.base";
layers = (
{
layerId = m01;
shapes = (
{
closed = 1;
nodes = (
(420,-75,l),
(367,-160,l),
(346,-191,l),
(620,-257,l),
(620,-258,l),
(682,-258,l),
(682,125,l),
(620,125,l),
(620,-196,l),
(444,-152,l),
(490,-77,l),
(445,-34,l),
(434,-53,l)
);
},
{
closed = 1;
nodes = (
(507,125,l),
(505,125,l)
);
},
{
closed = 1;
nodes = (
(452,-42,l),
(419,-46,o),
(401,-18,o),
(401,14,cs),
(401,46,o),
(425,68,o),
(456,68,cs),
(505,68,ls),
(571,68,o),
(619,18,o),
(620,-49,c),
(631,68,l),
(600,102,o),
(555,125,o),
(505,125,cs),
(503,125,l),
(447,125,ls),
(388,125,o),
(339,77,o),
(339,16,cs),
(339,-36,o),
(376,-80,o),
(426,-89,c)
);
}
);
width = 600;
}
);
},
{
glyphname = "ha-oriya";
layers = (
{
anchors = (
{
name = am;
pos = (700,659);
},
{
name = below;
pos = (186,-37);
},
{
name = bindu;
pos = (321,-216);
},
{
name = bottom;
pos = (611,-59);
},
{
name = bottomtwo;
pos = (735,-146);
},
{
name = chanBin;
pos = (568,702);
},
{
name = hal;
pos = (376,553);
},
{
name = nukta;
pos = (323,-100);
},
{
name = reph2;
pos = (625,4);
},
{
name = reph3;
pos = (497,0);
},
{
name = ru;
pos = (421,97);
},
{
name = top;
pos = (371,754);
}
);
layerId = m01;
shapes = (
{
ref = "da-oriya";
},
{
closed = 1;
nodes = (
(239,91,l),
(104,-47,l),
(103,-47,l),
(315,-254,l),
(315,-149,l),
(211,-45,l),
(291,35,l)
);
}
);
width = 702;
}
);
unicode = 2873;
},
{
glyphname = "ha-oriya.base";
layers = (
{
layerId = m01;
shapes = (
{
closed = 1;
nodes = (
(438,-142,l),
(381,-234,l),
(356,-271,l),
(634,-338,l),
(677,-295,l),
(449,-237,l),
(477,-192,l)
);
},
{
closed = 1;
nodes = (
(612,-258,l),
(672,-258,l),
(672,-76,l),
(612,-76,l)
);
},
{
closed = 1;
nodes = (
(474,-111,l),
(459,-91,o),
(449,-68,o),
(449,-41,cs),
(449,21,o),
(499,72,o),
(561,72,cs),
(623,72,o),
(672,23,o),
(673,-39,c),
(735,-41,l),
(734,53,o),
(657,132,o),
(561,132,cs),
(465,132,o),
(387,53,o),
(387,-43,cs),
(387,-97,o),
(412,-145,o),
(453,-176,c)
);
},
{
closed = 1;
nodes = (
(431,-154,l),
(462,-191,l),
(478,-231,o),
(516,-258,o),
(561,-258,cs),
(584,-258,o),
(608,-250,o),
(625,-239,c),
(612,-149,l),
(612,-176,o),
(590,-200,o),
(561,-200,cs),
(534,-200,o),
(511,-176,o),
(511,-149,cs),
(511,-133,o),
(519,-118,o),
(531,-108,c),
(501,-59,l),
(482,-72,o),
(467,-90,o),
(458,-113,c)
);
}
);
width = 600;
}
);
},
{
glyphname = "rra-oriya";
layers = (
{
anchors = (
{
name = am;
pos = (680,659);
},
{
name = below;
pos = (496,-20);
},
{
name = bindu;
pos = (351,-96);
},
{
name = bottom;
pos = (495,17);
},
{
name = bottomtwo;
pos = (715,-146);
},
{
name = chanBin;
pos = (548,702);
},
{
name = hal;
pos = (416,703);
},
{
name = nukta;
pos = (351,-50);
},
{
name = reph2;
pos = (595,4);
},
{
name = reph3;
pos = (611,-258);
},
{
name = ru;
pos = (351,-7);
},
{
name = top;
pos = (351,754);
}
);
layerId = m01;
shapes = (
{
closed = 1;
nodes = (
(368,316,o),
(350,297,o),
(318,265,c),
(373,210,l),
(452,290,l),
(458,283,o),
(462,275,o),
(466,267,cs),
(493,209,o),
(449,116,o),
(390,89,cs),
(332,62,o),
(263,87,o),
(236,145,cs),
(208,203,o),
(233,272,o),
(291,299,c),
(258,370,l),
(205,346,o),
(169,300,o),
(154,249,c),
(125,287,o),
(108,336,o),
(108,388,cs),
(108,516,o),
(212,621,o),
(340,621,cs),
(469,621,o),
(573,517,o),
(574,389,c),
(652,389,l),
(651,560,o),
(512,699,o),
(340,699,cs),
(169,699,o),
(30,559,o),
(30,388,cs),
(30,286,o),
(79,195,o),
(155,138,c),
(158,129,o),
(161,121,o),
(165,112,cs),
(210,15,o),
(326,-27,o),
(423,18,cs),
(521,64,o),
(563,179,o),
(518,276,cs),
(509,294,o),
(499,310,o),
(486,324,c),
(496,334,l),
(441,389,l),
(423,371,ls)
);
},
{
closed = 1;
nodes = (
(266,-60,o),
(295,-31,o),
(330,-31,cs),
(366,-31,o),
(395,-60,o),
(395,-96,cs),
(395,-131,o),
(366,-160,o),
(330,-160,cs),
(295,-160,o),
(266,-131,o),
(266,-96,cs)
);
}
);
width = 682;
}
);
unicode = 2908;
},
{
glyphname = "wa-oriya";
layers = (
{
anchors = (
{
name = am;
pos = (680,659);
},
{
name = below;
pos = (496,-20);
},
{
name = bindu;
pos = (351,-96);
},
{
name = bottom;
pos = (531,17);
},
{
name = bottomtwo;
pos = (715,-146);
},
{
name = chanBin;
pos = (548,702);
},
{
name = hal;
pos = (416,703);
},
{
name = nukta;
pos = (351,-50);
},
{
name = reph2;
pos = (534,4);
},
{
name = reph3;
pos = (611,-258);
},
{
name = ru;
pos = (351,-7);
},
{
name = top;
pos = (351,754);
}
);
guides = (
{
pos = (719,350);
}
);
layerId = m01;
shapes = (
{
closed = 1;
nodes = (
(568,0,l),
(568,243,ls),
(568,287,o),
(567,302,o),
(567,322,c),
(654,355,o),
(715,416,o),
(715,510,cs),
(715,574,ls),
(715,643,o),
(650,699,o),
(572,699,cs),
(531,698,o),
(493,683,o),
(467,659,c),
(441,683,o),
(403,699,o),
(362,699,cs),
(283,698,o),
(218,642,o),
(218,574,cs),
(218,514,l),
(296,514,l),
(296,573,ls),
(296,590,o),
(314,621,o),
(363,621,cs),
(408,621,o),
(427,589,o),
(427,574,cs),
(427,514,l),
(506,514,l),
(506,573,ls),
(506,590,o),
(524,621,o),
(573,621,cs),
(618,621,o),
(637,589,o),
(637,574,cs),
(637,513,ls),
(637,421,o),
(503,370,o),
(370,370,cs),
(344,370,o),
(319,372,o),
(295,376,cs),
(197,392,o),
(119,443,o),
(113,545,cs),
(111,572,o),
(111,657,o),
(114,696,c),
(32,697,l),
(27,640,o),
(33,556,o),
(33,547,cs),
(34,412,o),
(112,340,o),
(217,309,c),
(218,284,o),
(218,254,o),
(218,207,cs),
(218,110,o),
(296,32,o),
(393,32,cs),
(429,32,o),
(462,43,o),
(490,61,c),
(490,0,l)
);
},
{
closed = 1;
nodes = (
(296,293,l),
(319,290,o),
(343,289,o),
(367,289,cs),
(409,289,o),
(451,293,o),
(489,300,c),
(490,271,o),
(490,240,o),
(490,207,cs),
(490,153,o),
(447,110,o),
(393,110,cs),
(339,110,o),
(296,153,o),
(296,207,cs)
);
}
);
width = 745;
}
);
unicode = 2929;
},
{
glyphname = "rha-oriya";
layers = (
{
anchors = (
{
name = am;
pos = (709,659);
},
{
name = below;
pos = (525,-20);
},
{
name = bindu;
pos = (380,-96);
},
{
name = bottom;
pos = (522,17);
},
{
name = bottomtwo;
pos = (744,-146);
},
{
name = chanBin;
pos = (577,702);
},
{
name = hal;
pos = (416,703);
},
{
name = nukta;
pos = (380,-50);
},
{
name = reph2;
pos = (642,4);
},
{
name = reph3;
pos = (611,-258);
},
{
name = ru;
pos = (380,-7);
},
{
name = top;
pos = (380,754);
}
);
layerId = m01;
shapes = (
{
closed = 1;
nodes = (
(459,194,ls),
(459,181,o),
(457,168,o),
(453,156,c),
(411,156,ls),
(384,156,o),
(363,177,o),
(363,204,cs),
(363,231,o),
(384,252,o),
(411,252,cs),
(438,252,o),
(459,231,o),
(459,204,cs)
);
},
{
closed = 1;
nodes = (
(152,153,l),
(171,66,o),
(249,0,o),
(342,0,cs),
(406,0,o),
(463,31,o),
(498,78,c),
(571,78,l),
(621,156,l),
(533,156,l),
(536,168,o),
(537,181,o),
(537,194,cs),
(537,204,ls),
(537,274,o),
(481,330,o),
(411,330,cs),
(355,330,o),
(307,294,o),
(291,243,cs),
(287,231,o),
(285,218,o),
(285,204,cs),
(285,146,o),
(323,98,o),
(376,83,c),
(365,80,o),
(354,78,o),
(342,78,cs),
(278,78,o),
(226,130,o),
(226,194,cs),
(226,232,o),
(243,265,o),
(270,286,c),
(238,358,l),
(193,330,o),
(163,285,o),
(151,231,c)
);
},
{
closed = 1;
nodes = (
(295,-60,o),
(324,-31,o),
(359,-31,cs),
(395,-31,o),
(424,-60,o),
(424,-96,cs),
(424,-131,o),
(395,-160,o),
(359,-160,cs),
(324,-160,o),
(295,-131,o),
(295,-96,cs)
);
},
{
closed = 1;
nodes = (
(165,235,l),
(130,276,o),
(108,329,o),
(108,388,cs),
(108,516,o),
(212,621,o),
(340,621,cs),
(469,621,o),
(573,517,o),
(574,389,c),
(652,389,l),
(651,560,o),
(512,699,o),
(340,699,cs),
(169,699,o),
(30,559,o),
(30,388,cs),
(30,279,o),
(86,184,o),
(169,128,c)
);
}
);
width = 702;
}
);
unicode = 2909;
},
{
glyphname = "yya-oriya";
layers = (
{
anchors = (
{
name = am;
pos = (680,659);
},
{
name = below;
pos = (496,-20);
},
{
name = bindu;
pos = (351,-96);
},
{
name = bottom;
pos = (413,17);
},
{
name = bottomtwo;
pos = (715,-146);
},
{
name = chanBin;
pos = (548,702);
},
{
name = hal;
pos = (686,543);
},
{
name = nukta;
pos = (351,-50);
},
{
name = reph2;
pos = (618,4);
},
{
name = reph3;
pos = (611,-258);
},
{
name = ru;
pos = (351,-7);
},
{
name = top;
pos = (351,754);
}
);
layerId = m01;
shapes = (
{
closed = 1;
nodes = (
(583,559,l),
(520,643,o),
(421,699,o),
(307,699,cs),
(224,699,ls),
(117,699,o),
(30,612,o),
(30,505,cs),
(30,441,o),
(60,385,o),
(107,349,c),
(60,314,o),
(30,258,o),
(30,194,cs),
(30,87,o),
(117,0,o),
(224,0,cs),
(307,0,ls),
(421,0,o),
(520,56,o),
(583,140,c),
(573,350,l)
);
},
{
closed = 1;
nodes = (
(108,255,o),
(154,304,o),
(212,310,c),
(320,310,l),
(320,389,l),
(212,389,l),
(154,395,o),
(108,444,o),
(108,505,cs),
(108,569,o),
(160,621,o),
(224,621,cs),
(301,621,ls),
(453,621,o),
(573,501,o),
(573,350,cs),
(573,198,o),
(453,78,o),
(301,78,cs),
(224,78,ls),
(160,78,o),
(108,130,o),
(108,194,cs)
);
},
{
closed = 1;
nodes = (
(571,92,l),
(588,92,ls),
(652,92,o),
(704,81,o),
(704,46,cs),
(704,-9,o),
(652,-11,o),
(588,-11,cs),
(571,-11,l),
(571,-89,l),
(791,-304,l),
(791,-199,l),
(673,-81,l),
(737,-67,o),
(782,-31,o),
(782,46,cs),
(782,132,o),
(726,160,o),
(649,167,c),
(649,699,l),
(571,699,l)
);
}
);
width = 722;
}
);
unicode = 2911;
},
{
glyphname = "yya-oriya.post";
layers = (
{
layerId = m01;
shapes = (
{
closed = 1;
nodes = (
(294,526,l),
(294,472,o),
(251,429,o),
(197,429,cs),
(143,429,o),
(100,472,o),
(100,526,cs),
(100,580,o),
(99,652,o),
(99,703,cs),
(99,700,l),
(20,700,l),
(20,645,o),
(22,621,o),
(22,526,cs),
(22,429,o),
(100,351,o),
(197,351,cs),
(239,351,o),
(276,366,o),
(307,389,c)
);
},
{
closed = 1;
nodes = (
(20,703,l),
(20,700,l)
);
},
{
closed = 1;
nodes = (
(294,396,l),
(294,0,l),
(372,0,l),
(372,700,l),
(293,700,l),
(293,661,o),
(294,580,o),
(294,526,cs)
);
}
);
width = 422;
}
);
},
{
glyphname = "nya-oriya.base";
layers = (
{
hints = (
{
horizontal = 1;
place = (3, 78);
place = (3, 78);
type = Stem;
},
{
horizontal = 1;
place = (318, 71);
place = (318, 71);
type = Stem;
},
{
horizontal = 1;
place = (620, 80);
place = (620, 80);
type = Stem;
},
{
horizontal = 1;
place = (190, 187);
place = (190, 187);
type = Stem;
},
{
horizontal = 1;
place = (311, 66);
place = (311, 66);
type = Stem;
},
{
horizontal = 1;
place = (618, 81);
place = (618, 81);
type = Stem;
},
{
horizontal = 1;
place = (440, 192);
place = (440, 192);
type = Stem;
},
{
place = (37, 86);
place = (37, 86);
type = Stem;
},
{
place = (225, 80);
place = (225, 80);
type = Stem;
},
{
place = (398, 69);
place = (398, 69);
type = Stem;
},
{
place = (576, 78);
place = (576, 78);
type = Stem;
}
);
layerId = m01;
shapes = (
{
closed = 1;
nodes = (
(732,-52,l),
(746,-37,o),
(754,-18,o),
(755,6,cs),
(756,63,o),
(755,18,o),
(755,63,cs),
(755,101,o),
(712,132,o),
(674,132,cs),
(655,132,o),
(636,125,o),
(621,113,c),
(605,125,o),
(586,132,o),
(567,132,cs),
(529,132,o),
(487,101,o),
(487,63,cs),
(487,6,l),
(542,6,l),
(542,51,l),
(543,61,o),
(557,69,o),
(568,70,cs),
(577,70,o),
(594,61,o),
(594,52,cs),
(594,6,l),
(648,6,l),
(649,55,o),
(648,15,o),
(648,52,cs),
(649,62,o),
(664,70,o),
(675,71,cs),
(684,71,o),
(701,62,o),
(701,53,cs),
(701,14,l),
(700,-1,o),
(696,-14,o),
(683,-24,c)
);
},
{
closed = 1;
nodes = (
(710,-15,l),
(695,-14,o),
(684,-11,o),
(674,-11,cs),
(655,-11,o),
(636,-18,o),
(621,-30,c),
(605,-18,o),
(586,-11,o),
(567,-11,cs),
(529,-11,o),
(487,-42,o),
(487,-80,cs),
(487,-137,l),
(541,-137,l),
(541,-94,l),
(542,-84,o),
(557,-76,o),
(568,-75,cs),
(577,-75,o),
(594,-84,o),
(594,-93,cs),
(594,-137,l),
(648,-137,l),
(649,-89,o),
(648,-129,o),
(648,-92,cs),
(649,-82,o),
(660,-74,o),
(671,-73,cs),
(680,-73,o),
(691,-79,o),
(691,-88,cs),
(691,-127,ls),
(691,-174,o),
(631,-195,o),
(562,-195,cs),
(495,-195,o),
(418,-147,o),
(414,-81,cs),
(412,-39,o),
(414,29,o),
(458,112,c),
(399,131,l),
(338,-3,o),
(352,-75,o),
(352,-85,cs),
(353,-193,o),
(465,-259,o),
(561,-259,cs),
(663,-259,o),
(753,-223,o),
(755,-137,cs),
(756,-80,o),
(755,-125,o),
(755,-80,cs),
(755,-61,o),
(744,-44,o),
(730,-32,cs)
);
}
);
width = 600;
}
);
},
{
glyphname = "ka_ka-oriya";
layers = (
{
anchors = (
{
name = am;
pos = (700,659);
},
{
name = bindu;
pos = (362,-331);
},
{
name = bottom;
pos = (734,-146);
},
{
name = chanBin;
pos = (568,702);
},
{
name = nukta;
pos = (362,-285);
},
{
name = reph2;
pos = (736,-164);
},
{
name = ru;
pos = (362,-245);
},
{
name = top;
pos = (363,754);
}
);
layerId = m01;
shapes = (
{
closed = 1;
nodes = (
(295,0,o),
(334,19,o),
(361,50,c),
(361,0,l),
(439,0,l),
(439,356,l),
(394,311,l),
(637,311,l),
(592,356,l),
(592,0,l),
(670,0,l),
(670,389,l),
(439,389,l),
(404,389,l),
(361,389,l),
(361,339,l),
(334,370,o),
(295,389,o),
(245,389,cs),
(244,389,ls),
(180,389,o),
(128,441,o),
(128,505,cs),
(128,570,o),
(180,622,o),
(244,622,cs),
(296,622,l),
(414,622,l),
(476,622,ls),
(540,622,o),
(592,570,o),
(592,505,c),
(670,505,l),
(670,613,o),
(583,700,o),
(476,700,cs),
(414,700,l),
(296,700,l),
(244,700,ls),
(137,700,o),
(50,613,o),
(50,505,cs),
(50,442,o),
(80,385,o),
(127,350,c),
(80,314,o),
(50,258,o),
(50,194,cs),
(50,87,o),
(137,0,o),
(244,0,cs)
);
},
{
closed = 1;
nodes = (
(128,259,o),
(180,311,o),
(244,311,cs),
(309,311,o),
(361,259,o),
(361,194,cs),
(361,130,o),
(309,78,o),
(244,78,cs),
(180,78,o),
(128,130,o),
(128,194,cs)
);
},
{
closed = 1;
nodes = (
(328,-204,o),
(381,-257,o),
(445,-257,cs),
(467,-257,o),
(488,-251,o),
(506,-240,c),
(506,-258,l),
(568,-258,l),
(568,-41,l),
(523,-86,l),
(653,-86,l),
(608,-41,l),
(608,-258,l),
(670,-258,l),
(670,-17,l),
(506,-17,l),
(506,-38,l),
(488,-28,o),
(467,-22,o),
(445,-22,cs),
(381,-22,o),
(328,-73,o),
(328,-139,cs)
);
},
{
closed = 1;
nodes = (
(391,-109,o),
(416,-83,o),
(445,-83,cs),
(476,-83,o),
(500,-109,o),
(500,-139,cs),
(500,-168,o),
(476,-194,o),
(445,-194,cs),
(416,-194,o),
(391,-168,o),
(391,-139,cs)
);
}
);
width = 720;
}
);
metricRight = "ka-oriya";
},
{
glyphname = "ka_tta-oriya";
layers = (
{
anchors = (
{
name = bindu;
pos = (296,-81);
},
{
name = bottom;
pos = (734,-146);
},
{
name = chanBin;
pos = (568,702);
},
{
name = nukta;
pos = (292,-35);
},
{
name = reph2;
pos = (736,-164);
},
{
name = ru;
pos = (292,5);
},
{
name = top;
pos = (371,754);
}
);
layerId = m01;
shapes = (
{
closed = 1;
nodes = (
(670,91,l),
(670,389,l),
(439,389,l),
(404,389,l),
(361,389,l),
(361,339,l),
(334,370,o),
(295,389,o),
(245,389,cs),
(244,389,ls),
(180,389,o),
(128,441,o),
(128,505,cs),
(128,570,o),
(180,622,o),
(244,622,cs),
(296,622,l),
(414,622,l),
(476,622,ls),
(540,622,o),
(592,570,o),
(592,505,c),
(670,505,l),
(670,613,o),
(583,700,o),
(476,700,cs),
(414,700,l),
(296,700,l),
(244,700,ls),
(137,700,o),
(50,613,o),
(50,505,cs),
(50,442,o),
(80,385,o),
(127,350,c),
(80,314,o),
(50,258,o),
(50,194,cs),
(50,87,o),
(137,0,o),
(244,0,cs),
(295,0,o),
(334,19,o),
(361,50,c),
(361,0,l),
(439,0,l),
(439,356,l),
(394,311,l),
(637,311,l),
(592,356,l),
(592,116,l)
);
},
{
closed = 1;
nodes = (
(128,259,o),
(180,311,o),
(244,311,cs),
(309,311,o),
(361,259,o),
(361,194,cs),
(361,130,o),
(309,78,o),
(244,78,cs),
(180,78,o),
(128,130,o),
(128,194,cs)
);
},
{
closed = 1;
nodes = (
(531,-121,o),
(554,-97,o),
(581,-97,cs),
(610,-97,o),
(632,-121,o),
(632,-149,cs),
(632,-176,o),
(610,-200,o),
(581,-200,cs),
(554,-200,o),
(531,-176,o),
(531,-149,cs)
);
},
{
closed = 1;
nodes = (
(581,132,ls),
(516,132,o),
(461,97,o),
(430,45,c),
(416,16,l),
(411,-4,o),
(407,-22,o),
(407,-43,cs),
(407,-99,o),
(434,-148,o),
(477,-180,c),
(491,-225,o),
(532,-258,o),
(581,-258,cs),
(641,-258,o),
(692,-209,o),
(692,-149,cs),
(692,-88,o),
(641,-41,o),
(581,-41,cs),
(540,-41,o),
(504,-64,o),
(486,-98,c),
(475,-81,o),
(469,-62,o),
(469,-41,cs),
(469,21,o),
(519,72,o),
(581,72,cs),
(638,72,o),
(685,30,o),
(692,-25,c),
(692,-39,l),
(693,-39,l),
(755,-41,l),
(755,109,l),
(692,137,l),
(692,91,l),
(675,106,o),
(658,114,o),
(625,132,c)
);
}
);
width = 785;
}
);
metricRight = "tta-oriya";
},
{
glyphname = "ka_ta-oriya";
layers = (
{
anchors = (
{
name = bindu;
pos = (342,-331);
},
{
name = bottom;
pos = (714,-146);
},
{
name = chanBin;
pos = (548,702);
},
{
name = nukta;
pos = (342,-285);
},
{
name = reph2;
pos = (716,-164);
},
{
name = ru;
pos = (139,-117);
},
{
name = top;
pos = (351,754);
}
);
layerId = m01;
shapes = (
{
closed = 1;
nodes = (
(295,0,o),
(334,19,o),
(361,50,c),
(361,0,l),
(439,0,l),
(439,356,l),
(394,311,l),
(637,311,l),
(592,356,l),
(592,0,l),
(670,0,l),
(670,389,l),
(361,389,l),
(361,339,l),
(334,370,o),
(295,389,o),
(245,389,cs),
(244,389,ls),
(180,389,o),
(128,441,o),
(128,505,cs),
(128,570,o),
(180,622,o),
(244,622,cs),
(476,622,ls),
(540,622,o),
(592,570,o),
(592,505,c),
(670,505,l),
(670,613,o),
(583,700,o),
(476,700,cs),
(244,700,ls),
(137,700,o),
(50,613,o),
(50,505,cs),
(50,442,o),
(80,385,o),
(127,350,c),
(80,314,o),
(50,258,o),
(50,194,cs),
(50,87,o),
(137,0,o),
(244,0,cs)
);
},
{
closed = 1;
nodes = (
(128,259,o),
(180,311,o),
(244,311,cs),
(309,311,o),
(361,259,o),
(361,194,cs),
(361,130,o),
(309,78,o),
(244,78,cs),
(180,78,o),
(128,130,o),
(128,194,cs)
);
},
{
pos = (106,20);
ref = "ta-oriya.below";
}
);
width = 720;
}
);
},
{
glyphname = "ka_ssa-oriya";
layers = (
{
anchors = (
{
name = bindu;
pos = (401,-96);
},
{
name = bottom;
pos = (707,17);
},
{
name = chanBin;
pos = (598,702);
},
{
name = nukta;
pos = (401,-50);
},
{
name = reph2;
pos = (401,-23);
},
{
name = top;
pos = (401,754);
}
);
layerId = m01;
shapes = (
{
closed = 1;
nodes = (
(666,571,l),
(603,648,o),
(508,697,o),
(400,699,cs),
(395,699,l),
(317,699,ls),
(210,699,o),
(123,612,o),
(123,505,cs),
(123,461,o),
(137,421,o),
(161,389,c),
(40,389,l),
(40,311,l),
(162,311,l),
(137,278,o),
(123,238,o),
(123,194,cs),
(123,87,o),
(210,0,o),
(317,0,cs),
(395,0,l),
(400,0,ls),
(508,2,o),
(603,51,o),
(666,128,c),
(666,0,l),
(744,0,l),
(744,700,l),
(666,700,l)
);
},
{
closed = 1;
nodes = (
(511,104,l),
(475,87,o),
(437,78,o),
(394,78,cs),
(317,78,ls),
(253,78,o),
(201,130,o),
(201,194,cs),
(201,255,o),
(247,304,o),
(305,310,c),
(317,310,l),
(409,310,l),
(503,83,l),
(570,121,l),
(358,636,l),
(277,631,l),
(377,389,l),
(360,389,l),
(302,389,l),
(245,396,o),
(201,445,o),
(201,505,cs),
(201,563,o),
(244,612,o),
(299,619,c),
(348,621,l),
(394,621,ls),
(546,621,o),
(666,501,o),
(666,350,cs),
(666,256,o),
(621,176,o),
(552,127,c)
);
}
);
width = 794;
}
);
},
{
glyphname = "ka_sa-oriya";
layers = (
{
anchors = (
{
name = bindu;
pos = (351,-96);
},
{
name = bottom;
pos = (714,-146);
},
{
name = chanBin;
pos = (548,702);
},
{
name = nukta;
pos = (351,-50);
},
{
name = reph2;
pos = (716,-164);
},
{
name = top;
pos = (351,754);
}
);
layerId = m01;
shapes = (
{
closed = 1;
nodes = (
(670,77,l),
(670,389,l),
(439,389,l),
(404,389,l),
(361,389,l),
(361,339,l),
(334,370,o),
(295,389,o),
(245,389,cs),
(244,389,ls),
(180,389,o),
(128,441,o),
(128,505,cs),
(128,570,o),
(180,622,o),
(244,622,cs),
(296,622,l),
(414,622,l),
(476,622,ls),
(540,622,o),
(592,570,o),
(592,505,c),
(670,505,l),
(670,613,o),
(583,700,o),
(476,700,cs),
(414,700,l),
(296,700,l),
(244,700,ls),
(137,700,o),
(50,613,o),
(50,505,cs),
(50,442,o),
(80,385,o),
(127,350,c),
(80,314,o),
(50,258,o),
(50,194,cs),
(50,87,o),
(137,0,o),
(244,0,cs),
(295,0,o),
(334,19,o),
(361,50,c),
(361,0,l),
(439,0,l),
(439,356,l),
(394,311,l),
(637,311,l),
(592,356,l),
(592,124,l)
);
},
{
closed = 1;
nodes = (
(128,259,o),
(180,311,o),
(244,311,cs),
(309,311,o),
(361,259,o),
(361,194,cs),
(361,130,o),
(309,78,o),
(244,78,cs),
(180,78,o),
(128,130,o),
(128,194,cs)
);
},
{
closed = 1;
nodes = (
(612,134,o),
(580,147,o),
(540,147,cs),
(537,147,l),
(510,147,ls),
(477,147,o),
(448,132,o),
(428,109,c),
(402,16,l),
(413,-31,o),
(448,-63,o),
(493,-73,c),
(576,-73,l),
(576,-29,l),
(575,-18,l),
(520,-18,ls),
(490,-18,o),
(466,7,o),
(466,37,cs),
(466,67,o),
(490,91,o),
(520,91,cs),
(536,91,l),
(540,91,l),
(542,91,ls),
(611,91,o),
(679,48,o),
(679,-22,cs),
(679,-234,l),
(724,-194,l),
(431,-161,l),
(456,-206,l),
(529,-59,l),
(467,-47,l),
(409,-158,l),
(410,-218,l),
(679,-247,l),
(679,-248,l),
(742,-248,l),
(742,147,l),
(679,147,l),
(679,37,l),
(707,47,l),
(643,126,l)
);
}
);
width = 792;
}
);
},
{
glyphname = "ga_ga-oriya";
layers = (
{
anchors = (
{
name = bindu;
pos = (351,-96);
},
{
name = bottom;
pos = (714,-146);
},
{
name = chanBin;
pos = (548,702);
},
{
name = nukta;
pos = (351,-50);
},
{
name = reph2;
pos = (716,-164);
},
{
name = top;
pos = (351,754);
}
);
layerId = m01;
shapes = (
{
closed = 1;
nodes = (
(594,73,l),
(672,73,l),
(672,700,l),
(594,700,l),
(594,350,l)
);
},
{
closed = 1;
nodes = (
(129,255,o),
(174,304,o),
(233,310,c),
(244,310,l),
(244,311,l),
(245,311,ls),
(250,311,o),
(255,311,o),
(260,310,cs),
(318,303,o),
(362,254,o),
(362,194,cs),
(362,130,o),
(310,78,o),
(245,78,cs),
(181,78,o),
(129,130,o),
(129,194,cs)
);
},
{
closed = 1;
nodes = (
(260,310,ls),
(244,310,ls)
);
},
{
closed = 1;
nodes = (
(361,388,l),
(265,388,ls)
);
},
{
pos = (30,0);
ref = "ga-oriya.base";
},
{
closed = 1;
nodes = (
(604,559,l),
(540,645,o),
(438,700,o),
(321,700,cs),
(320,700,l),
(320,699,l),
(244,699,ls),
(137,699,o),
(50,612,o),
(50,505,cs),
(50,441,o),
(80,385,o),
(127,349,c),
(81,314,o),
(51,257,o),
(51,194,cs),
(51,87,o),
(138,0,o),
(245,0,cs),
(353,0,o),
(440,87,o),
(440,194,cs),
(440,295,o),
(364,378,o),
(265,388,cs),
(258,389,o),
(252,389,o),
(245,389,cs),
(232,389,l),
(174,394,o),
(128,444,o),
(128,505,cs),
(128,569,o),
(180,621,o),
(244,621,cs),
(327,621,l),
(327,622,l),
(482,619,o),
(602,491,o),
(592,333,c)
);
}
);
width = 760;
}
);
metricLeft = "ga-oriya";
metricRight = "ga-oriya";
},
{
glyphname = "ga_da-oriya";
layers = (
{
anchors = (
{
name = bindu;
pos = (351,-96);
},
{
name = bottom;
pos = (714,-146);
},
{
name = chanBin;
pos = (548,702);
},
{
name = nukta;
pos = (351,-50);
},
{
name = reph2;
pos = (716,-164);
},
{
name = top;
pos = (351,754);
}
);
layerId = m01;
shapes = (
{
closed = 1;
nodes = (
(594,90,l),
(672,90,l),
(672,700,l),
(594,700,l)
);
},
{
closed = 1;
nodes = (
(129,255,o),
(174,304,o),
(233,310,c),
(244,310,l),
(244,311,l),
(245,311,ls),
(250,311,o),
(255,311,o),
(260,310,cs),
(318,303,o),
(362,254,o),
(362,194,cs),
(362,130,o),
(310,78,o),
(245,78,cs),
(181,78,o),
(129,130,o),
(129,194,cs)
);
},
{
closed = 1;
nodes = (
(260,310,ls),
(244,310,ls)
);
},
{
closed = 1;
nodes = (
(361,388,l),
(265,388,ls)
);
},
{
pos = (30,0);
ref = "da-oriya.base";
},
{
closed = 1;
nodes = (
(604,559,l),
(540,645,o),
(438,700,o),
(321,700,cs),
(320,700,l),
(320,699,l),
(244,699,ls),
(137,699,o),
(50,612,o),
(50,505,cs),
(50,441,o),
(80,385,o),
(127,349,c),
(81,314,o),
(51,257,o),
(51,194,cs),
(51,87,o),
(138,0,o),
(245,0,cs),
(353,0,o),
(440,87,o),
(440,194,cs),
(440,295,o),
(364,378,o),
(265,388,cs),
(258,389,o),
(252,389,o),
(245,389,cs),
(232,389,l),
(174,394,o),
(128,444,o),
(128,505,cs),
(128,569,o),
(180,621,o),
(244,621,cs),
(327,621,l),
(327,622,l),
(476,619,o),
(593,500,o),
(593,350,c),
(610,350,l)
);
}
);
width = 815;
}
);
metricLeft = "ga-oriya";
},
{
glyphname = "ga_dha-oriya";
layers = (
{
anchors = (
{
name = bindu;
pos = (351,-96);
},
{
name = bottom;
pos = (714,-146);
},
{
name = chanBin;
pos = (548,702);
},
{
name = nukta;
pos = (351,-50);
},
{
name = reph2;
pos = (716,-164);
},
{
name = top;
pos = (351,754);
}
);
layerId = m01;
shapes = (
{
closed = 1;
nodes = (
(594,0,l),
(672,0,l),
(672,700,l),
(594,700,l)
);
},
{
closed = 1;
nodes = (
(129,255,o),
(174,304,o),
(233,310,c),
(244,311,l),
(260,310,l),
(318,303,o),
(362,254,o),
(362,194,cs),
(362,130,o),
(310,78,o),
(245,78,cs),
(181,78,o),
(129,130,o),
(129,194,cs)
);
},
{
pos = (-1,-3);
ref = "dha-oriya.base";
},
{
closed = 1;
nodes = (
(604,559,l),
(540,645,o),
(438,700,o),
(321,700,cs),
(320,700,l),
(320,699,l),
(244,699,ls),
(137,699,o),
(50,612,o),
(50,505,cs),
(50,441,o),
(80,385,o),
(127,349,c),
(81,314,o),
(51,257,o),
(51,194,cs),
(51,87,o),
(138,0,o),
(245,0,cs),
(353,0,o),
(440,87,o),
(440,194,cs),
(440,295,o),
(364,378,o),
(265,388,c),
(245,389,l),
(232,389,l),
(174,394,o),
(128,444,o),
(128,505,cs),
(128,569,o),
(180,621,o),
(244,621,cs),
(327,621,l),
(327,622,l),
(476,619,o),
(593,500,o),
(593,350,c),
(610,350,l)
);
}
);
width = 722;
}
);
metricLeft = "ga-oriya";
metricRight = "dha-oriya";
},
{
glyphname = "nga_ka-oriya";
layers = (
{
anchors = (
{
name = bindu;
pos = (351,-96);
},
{
name = bottom;
pos = (722,17);
},
{
name = chanBin;
pos = (548,702);
},
{
name = nukta;
pos = (351,-50);
},
{
name = reph2;
pos = (351,-23);
},
{
name = top;
pos = (351,754);
}
);
guides = (
{
angle = 25;
pos = (615,551);
}
);
layerId = m01;
shapes = (
{
closed = 1;
nodes = (
(469,0,l),
(547,0,l),
(547,356,l),
(502,311,l),
(726,311,l),
(681,356,l),
(681,0,l),
(759,0,l),
(759,389,l),
(469,389,l)
);
},
{
closed = 1;
nodes = (
(548,574,l),
(559,526,o),
(600,490,o),
(651,490,cs),
(709,490,o),
(756,537,o),
(756,595,cs),
(756,653,o),
(709,700,o),
(651,700,cs),
(611,700,o),
(577,678,o),
(559,646,c)
);
},
{
closed = 1;
nodes = (
(624,610,o),
(636,622,o),
(651,622,cs),
(666,622,o),
(678,610,o),
(678,595,cs),
(678,580,o),
(666,568,o),
(651,568,cs),
(640,568,o),
(631,574,o),
(626,584,c),
(627,584,l),
(626,586,o),
(625,587,o),
(625,589,c),
(624,591,o),
(624,593,o),
(624,595,cs)
);
},
{
pos = (-64,0);
ref = circles.oriya;
},
{
closed = 1;
nodes = (
(580,649,l),
(545,681,o),
(500,700,o),
(449,700,cs),
(245,700,ls),
(138,700,o),
(51,613,o),
(51,505,cs),
(51,398,o),
(138,311,o),
(245,311,cs),
(246,311,l),
(244,382,l),
(177,403,o),
(129,441,o),
(129,505,cs),
(129,570,o),
(181,622,o),
(245,622,cs),
(449,622,ls),
(500,622,o),
(543,589,o),
(560,543,c)
);
}
);
width = 809;
}
);
},
{
glyphname = "nga_kha-oriya";
layers = (
{
anchors = (
{
name = bindu;
pos = (351,-96);
},
{
name = bottom;
pos = (733,17);
},
{
name = chanBin;
pos = (548,702);
},
{
name = nukta;
pos = (351,-50);
},
{
name = reph2;
pos = (351,-23);
},
{
name = top;
pos = (351,754);
}
);
layerId = m01;
shapes = (
{
closed = 1;
nodes = (
(692,514,l),
(692,489,o),
(650,467,o),
(626,467,cs),
(599,468,o),
(559,488,o),
(560,515,c),
(558,539,o),
(562,579,o),
(561,616,cs),
(561,700,l),
(481,700,l),
(461,700,l),
(244,700,ls),
(137,700,o),
(50,613,o),
(50,505,cs),
(50,398,o),
(137,311,o),
(244,311,cs),
(245,311,l),
(245,383,l),
(244,383,l),
(180,400,o),
(128,441,o),
(128,505,cs),
(128,570,o),
(180,622,o),
(244,622,cs),
(461,622,l),
(481,622,l),
(481,616,ls),
(480,549,o),
(481,603,o),
(481,514,cs),
(481,446,o),
(556,390,o),
(625,389,cs),
(653,389,o),
(681,398,o),
(708,414,c)
);
},
{
closed = 1;
nodes = (
(809,610,o),
(821,622,o),
(836,622,cs),
(851,622,o),
(863,610,o),
(863,595,cs),
(863,580,o),
(851,568,o),
(836,568,cs),
(821,568,o),
(809,580,o),
(809,595,cs)
);
},
{
pos = (-64,0);
ref = circles.oriya;
},
{
closed = 1;
nodes = (
(693,422,l),
(693,0,l),
(771,0,l),
(771,513,l),
(789,498,o),
(811,490,o),
(836,490,cs),
(894,490,o),
(941,537,o),
(941,595,cs),
(941,653,o),
(894,700,o),
(836,700,cs),
(811,700,o),
(789,692,o),
(771,677,c),
(771,700,l),
(693,700,l),
(693,609,ls),
(693,568,o),
(692,528,o),
(692,514,cs)
);
}
);
width = 911;
},
{
associatedMasterId = m01;
layerId = "8486DD6E-5E96-4319-B7B4-298A364C1554";
width = 600;
}
);
},
{
glyphname = "nga_ga-oriya";
layers = (
{
anchors = (
{
name = bindu;
pos = (351,-96);
},
{
name = bottom;
pos = (701,17);
},
{
name = chanBin;
pos = (548,702);
},
{
name = nukta;
pos = (351,-50);
},
{
name = reph2;
pos = (696,0);
},
{
name = top;
pos = (351,754);
}
);
layerId = m01;
shapes = (
{
closed = 1;
nodes = (
(673,559,l),
(609,645,o),
(508,700,o),
(391,700,cs),
(277,700,l),
(244,700,ls),
(137,700,o),
(50,613,o),
(50,505,cs),
(50,398,o),
(137,311,o),
(244,311,cs),
(245,311,l),
(243,382,l),
(176,403,o),
(128,441,o),
(128,505,cs),
(128,570,o),
(180,622,o),
(244,622,cs),
(277,622,l),
(390,622,ls),
(542,622,o),
(662,502,o),
(662,350,cs),
(662,349,l),
(679,349,l)
);
},
{
closed = 1;
nodes = (
(779,610,o),
(791,622,o),
(806,622,cs),
(821,622,o),
(833,610,o),
(833,595,cs),
(833,580,o),
(821,568,o),
(806,568,cs),
(791,568,o),
(779,580,o),
(779,595,cs)
);
},
{
pos = (-64,0);
ref = circles.oriya;
},
{
closed = 1;
nodes = (
(663,0,l),
(741,0,l),
(741,513,l),
(759,498,o),
(781,490,o),
(806,490,cs),
(864,490,o),
(911,537,o),
(911,595,cs),
(911,653,o),
(864,700,o),
(806,700,cs),
(781,700,o),
(759,692,o),
(741,677,c),
(741,700,l),
(663,700,l)
);
}
);
width = 881;
}
);
},
{
glyphname = "nga_gha-oriya";
layers = (
{
anchors = (
{
name = bindu;
pos = (451,-96);
},
{
name = bottom;
pos = (613,17);
},
{
name = chanBin;
pos = (648,702);
},
{
name = nukta;
pos = (451,-50);
},
{
name = reph2;
pos = (616,0);
},
{
name = top;
pos = (451,754);
}
);
layerId = m01;
shapes = (
{
closed = 1;
nodes = (
(581,559,l),
(517,644,o),
(416,699,o),
(300,699,cs),
(244,699,ls),
(137,699,o),
(50,612,o),
(50,505,cs),
(50,441,o),
(80,385,o),
(127,349,c),
(81,314,o),
(51,257,o),
(51,194,cs),
(51,87,o),
(138,0,o),
(245,0,cs),
(300,0,o),
(349,22,o),
(385,59,c),
(410,24,o),
(455,1,o),
(506,0,cs),
(529,0,o),
(551,5,o),
(571,14,c),
(571,0,l),
(649,0,l),
(649,509,l),
(666,497,o),
(687,490,o),
(709,490,cs),
(767,490,o),
(814,537,o),
(814,595,cs),
(814,653,o),
(767,700,o),
(709,700,cs),
(687,700,o),
(666,693,o),
(649,681,c),
(649,700,l),
(571,700,l),
(571,125,ls),
(571,110,o),
(552,78,o),
(507,78,cs),
(458,78,o),
(440,109,o),
(440,126,cs),
(440,310,l),
(362,310,l),
(362,194,ls),
(362,130,o),
(310,78,o),
(245,78,cs),
(181,78,o),
(129,130,o),
(129,194,cs),
(129,255,o),
(174,304,o),
(233,310,c),
(244,310,l),
(244,311,l),
(245,311,l),
(245,389,l),
(232,389,l),
(174,394,o),
(128,444,o),
(128,505,cs),
(128,569,o),
(180,621,o),
(244,621,cs),
(299,621,ls),
(451,621,o),
(571,501,o),
(571,349,c)
);
},
{
closed = 1;
nodes = (
(261,310,l),
(244,310,ls)
);
},
{
closed = 1;
nodes = (
(261,388,l),
(245,388,ls)
);
},
{
closed = 1;
nodes = (
(682,610,o),
(694,622,o),
(709,622,cs),
(724,622,o),
(736,610,o),
(736,595,cs),
(736,580,o),
(724,568,o),
(709,568,cs),
(694,568,o),
(682,580,o),
(682,595,cs)
);
}
);
width = 784;
}
);
},
{
glyphname = "ca_ca-oriya";
layers = (
{
anchors = (
{
name = bindu;
pos = (351,-96);
},
{
name = bottom;
pos = (613,17);
},
{
name = chanBin;
pos = (548,702);
},
{
name = nukta;
pos = (351,-50);
},
{
name = reph2;
pos = (614,-13);
},
{
name = top;
pos = (351,754);
}
);
layerId = m01;
shapes = (
{
closed = 1;
nodes = (
(152,285,l),
(137,316,o),
(128,351,o),
(128,388,cs),
(128,516,o),
(232,621,o),
(360,621,cs),
(489,621,o),
(593,517,o),
(594,389,c),
(672,389,l),
(671,560,o),
(532,699,o),
(360,699,cs),
(189,699,o),
(50,559,o),
(50,388,cs),
(50,319,o),
(72,255,o),
(110,203,c)
);
},
{
pos = (-6,0);
ref = circles.oriya;
}
);
width = 722;
}
);
},
{
glyphname = "ca_cha-oriya";
layers = (
{
anchors = (
{
name = bindu;
pos = (351,-96);
},
{
name = bottom;
pos = (613,17);
},
{
name = chanBin;
pos = (548,702);
},
{
name = nukta;
pos = (351,-50);
},
{
name = reph2;
pos = (666,-154);
},
{
name = top;
pos = (351,754);
}
);
layerId = m01;
shapes = (
{
closed = 1;
nodes = (
(135,344,l),
(133,359,o),
(131,372,o),
(131,388,cs),
(131,516,o),
(235,621,o),
(363,621,cs),
(492,621,o),
(596,517,o),
(597,389,c),
(675,389,l),
(674,560,o),
(535,699,o),
(363,699,cs),
(192,699,o),
(53,559,o),
(53,388,cs),
(53,316,o),
(84,266,o),
(126,228,c)
);
},
{
closed = 1;
nodes = (
(128,34,ls),
(128,79,o),
(160,98,o),
(175,98,cs),
(197,98,o),
(293,91,o),
(340,33,c),
(293,-25,o),
(197,-32,o),
(175,-32,cs),
(160,-32,o),
(128,-13,o),
(128,32,cs)
);
},
{
closed = 1;
nodes = (
(193,299,ls),
(193,316,o),
(211,347,o),
(260,347,cs),
(305,347,o),
(324,315,o),
(324,300,cs),
(324,217,ls),
(324,202,o),
(305,170,o),
(260,170,cs),
(211,170,o),
(193,201,o),
(193,218,cs)
);
},
{
closed = 1;
nodes = (
(350,120,o),
(357,126,o),
(364,132,c),
(379,120,l),
(371,111,o),
(364,101,o),
(359,90,c),
(355,99,o),
(349,108,o),
(342,116,c)
);
},
{
closed = 1;
nodes = (
(424,91,o),
(520,98,o),
(542,98,cs),
(557,98,o),
(589,79,o),
(589,34,cs),
(589,32,ls),
(589,-13,o),
(557,-32,o),
(542,-32,cs),
(520,-32,o),
(424,-25,o),
(377,33,c)
);
},
{
closed = 1;
nodes = (
(403,299,ls),
(403,316,o),
(421,347,o),
(470,347,cs),
(515,347,o),
(534,315,o),
(534,300,cs),
(534,217,ls),
(534,202,o),
(515,170,o),
(470,170,cs),
(421,170,o),
(403,201,o),
(403,218,cs)
);
},
{
closed = 1;
nodes = (
(115,217,ls),
(115,199,o),
(120,181,o),
(128,165,c),
(82,144,o),
(50,92,o),
(50,33,cs),
(50,-45,o),
(106,-110,o),
(175,-110,cs),
(267,-110,o),
(335,-75,o),
(359,-24,c),
(382,-75,o),
(450,-110,o),
(542,-110,cs),
(611,-110,o),
(667,-45,o),
(667,33,cs),
(667,89,o),
(638,138,o),
(597,161,c),
(607,178,o),
(612,197,o),
(612,217,cs),
(612,300,ls),
(612,369,o),
(547,425,o),
(469,425,cs),
(428,424,o),
(390,409,o),
(364,385,c),
(338,409,o),
(300,425,o),
(259,425,cs),
(173,423,o),
(104,358,o),
(115,281,c)
);
}
);
width = 725;
}
);
metricRight = "cha-oriya";
},
{
glyphname = "ca_nya-oriya";
layers = (
{
anchors = (
{
name = bindu;
pos = (311,-96);
},
{
name = bottom;
pos = (674,-186);
},
{
name = chanBin;
pos = (508,702);
},
{
name = nukta;
pos = (311,-50);
},
{
name = reph2;
pos = (676,-204);
},
{
name = top;
pos = (311,754);
}
);
layerId = m01;
shapes = (
{
closed = 1;
nodes = (
(165,235,l),
(130,276,o),
(108,329,o),
(108,388,cs),
(108,516,o),
(212,621,o),
(340,621,cs),
(469,621,o),
(573,517,o),
(574,389,c),
(652,389,l),
(651,560,o),
(512,699,o),
(340,699,cs),
(169,699,o),
(30,559,o),
(30,388,cs),
(30,279,o),
(86,184,o),
(169,128,c)
);
},
{
closed = 1;
nodes = (
(226,259,o),
(278,311,o),
(342,311,cs),
(407,311,o),
(459,259,o),
(459,194,cs),
(459,130,o),
(407,78,o),
(342,78,cs),
(278,78,o),
(226,130,o),
(226,194,cs)
);
},
{
pos = (40,0);
ref = "nya-oriya.base";
},
{
closed = 1;
nodes = (
(152,153,l),
(171,66,o),
(249,0,o),
(342,0,cs),
(450,0,o),
(537,87,o),
(537,194,cs),
(537,302,o),
(450,389,o),
(342,389,cs),
(247,389,o),
(169,321,o),
(151,231,c)
);
}
);
width = 757;
}
);
metricLeft = "ca-oriya";
},
{
glyphname = "ja_ja-oriya";
layers = (
{
anchors = (
{
name = bindu;
pos = (351,-96);
},
{
name = bottom;
pos = (697,-146);
},
{
name = chanBin;
pos = (548,702);
},
{
name = nukta;
pos = (351,-50);
},
{
name = reph2;
pos = (699,-164);
},
{
name = top;
pos = (351,754);
}
);
layerId = m01;
shapes = (
{
ref = "ja-oriya";
},
{
closed = 1;
nodes = (
(471,-119,ls),
(471,-142,o),
(451,-161,o),
(428,-161,cs),
(404,-161,o),
(385,-142,o),
(385,-119,cs),
(385,-95,o),
(404,-76,o),
(428,-76,c),
(428,-9,l),
(367,-9,o),
(318,-58,o),
(318,-119,cs),
(318,-179,o),
(367,-228,o),
(428,-228,cs),
(487,-228,o),
(537,-180,o),
(538,-121,cs),
(538,-35,l),
(494,-88,l),
(638,-62,l),
(594,-25,l),
(594,-228,l),
(668,-228,l),
(668,-9,l),
(594,-9,l),
(471,-31,l)
);
}
);
width = 778;
}
);
metricLeft = "ja-oriya";
},
{
glyphname = "ja_jha-oriya";
layers = (
{
anchors = (
{
name = bindu;
pos = (351,-96);
},
{
name = bottom;
pos = (714,-146);
},
{
name = chanBin;
pos = (548,702);
},
{
name = nukta;
pos = (351,-50);
},
{
name = reph2;
pos = (716,-164);
},
{
name = top;
pos = (351,754);
}
);
layerId = m01;
shapes = (
{
closed = 1;
nodes = (
(50,87,o),
(137,0,o),
(244,0,cs),
(351,0,o),
(439,85,o),
(439,190,cs),
(439,330,l),
(395,277,l),
(636,319,l),
(592,356,l),
(592,130,l),
(670,130,l),
(670,389,l),
(592,389,l),
(361,349,l),
(361,194,ls),
(361,130,o),
(309,78,o),
(244,78,cs),
(180,78,o),
(128,130,o),
(128,194,cs),
(128,259,o),
(180,311,o),
(244,311,cs),
(245,311,l),
(245,389,l),
(244,389,ls),
(180,389,o),
(128,441,o),
(128,505,cs),
(128,570,o),
(180,622,o),
(244,622,cs),
(476,622,ls),
(540,622,o),
(592,570,o),
(592,505,c),
(670,505,l),
(670,613,o),
(583,700,o),
(476,700,cs),
(244,700,ls),
(137,700,o),
(50,613,o),
(50,505,cs),
(50,442,o),
(80,385,o),
(127,350,c),
(80,314,o),
(50,258,o),
(50,194,cs)
);
},
{
pos = (58,-3);
ref = "jha-oriya.base";
}
);
width = 700;
}
);
metricLeft = "ja-oriya";
metricRight = "jha-oriya";
},
{
glyphname = "ja_nya-oriya";
layers = (
{
anchors = (
{
name = bindu;
pos = (351,-96);
},
{
name = bottom;
pos = (726,2);
},
{
name = chanBin;
pos = (548,702);
},
{
name = nukta;
pos = (351,-50);
},
{
name = reph2;
pos = (716,0);
},
{
name = top;
pos = (351,754);
}
);
layerId = m01;
shapes = (
{
closed = 1;
nodes = (
(494,0,l),
(572,0,l),
(572,356,l),
(527,311,l),
(721,311,l),
(676,356,l),
(676,0,l),
(754,0,l),
(754,389,l),
(494,389,l)
);
},
{
pos = (-40,0);
ref = circles.oriya;
},
{
closed = 1;
nodes = (
(708,379,l),
(748,409,o),
(773,453,o),
(773,513,cs),
(773,574,ls),
(773,643,o),
(708,699,o),
(630,699,cs),
(589,698,o),
(551,683,o),
(525,659,c),
(499,683,o),
(461,699,o),
(420,699,cs),
(341,698,o),
(276,642,o),
(276,574,cs),
(276,515,l),
(354,515,l),
(354,573,ls),
(354,590,o),
(372,621,o),
(421,621,cs),
(466,621,o),
(485,589,o),
(485,574,cs),
(485,515,l),
(564,515,l),
(564,573,ls),
(564,590,o),
(582,621,o),
(631,621,cs),
(676,621,o),
(695,589,o),
(695,574,cs),
(695,514,ls),
(692,422,o),
(561,397,o),
(428,397,cs),
(299,397,o),
(137,473,o),
(130,600,cs),
(128,627,o),
(136,668,o),
(151,699,c),
(69,699,l),
(52,650,o),
(50,611,o),
(50,602,cs),
(51,408,o),
(253,316,o),
(425,316,cs),
(453,316,o),
(483,318,o),
(509,319,c)
);
}
);
width = 824;
}
);
metricLeft = "ja-oriya";
metricRight = "nya-oriya";
},
{
glyphname = "nya_ca-oriya";
layers = (
{
anchors = (
{
name = bindu;
pos = (371,-96);
},
{
name = bottom;
pos = (680,17);
},
{
name = chanBin;
pos = (568,702);
},
{
name = nukta;
pos = (371,-50);
},
{
name = reph2;
pos = (681,0);
},
{
name = top;
pos = (411,754);
}
);
hints = (
{
horizontal = 1;
place = (3, 78);
place = (3, 78);
type = Stem;
},
{
horizontal = 1;
place = (318, 71);
place = (318, 71);
type = Stem;
},
{
horizontal = 1;
place = (620, 80);
place = (620, 80);
type = Stem;
},
{
horizontal = 1;
place = (190, 187);
place = (190, 187);
type = Stem;
},
{
horizontal = 1;
place = (311, 66);
place = (311, 66);
type = Stem;
},
{
horizontal = 1;
place = (618, 81);
place = (618, 81);
type = Stem;
},
{
horizontal = 1;
place = (440, 192);
place = (440, 192);
type = Stem;
},
{
place = (37, 86);
place = (37, 86);
type = Stem;
},
{
place = (225, 80);
place = (225, 80);
type = Stem;
},
{
place = (398, 69);
place = (398, 69);
type = Stem;
},
{
place = (576, 78);
place = (576, 78);
type = Stem;
}
);
layerId = m01;
shapes = (
{
closed = 1;
nodes = (
(203,383,l),
(141,372,o),
(98,344,o),
(98,281,cs),
(98,244,l),
(176,244,l),
(176,281,ls),
(176,317,o),
(228,325,o),
(292,325,cs),
(331,325,l),
(358,320,o),
(385,317,o),
(412,316,c),
(432,310,o),
(445,299,o),
(445,281,cs),
(445,243,o),
(393,231,o),
(329,231,cs),
(293,231,ls),
(186,231,o),
(99,196,o),
(99,108,cs),
(99,18,o),
(186,0,o),
(293,0,cs),
(294,0,l),
(369,0,l),
(370,0,ls),
(503,0,o),
(601,29,o),
(649,82,c),
(641,188,l),
(640,105,o),
(517,67,o),
(369,67,cs),
(368,67,l),
(294,67,l),
(293,67,ls),
(229,67,o),
(177,73,o),
(177,108,cs),
(177,155,o),
(229,164,o),
(293,164,cs),
(329,164,ls),
(436,164,o),
(523,199,o),
(523,281,cs),
(523,301,o),
(515,316,o),
(500,333,c)
);
},
{
closed = 1;
nodes = (
(494,318,l),
(558,322,o),
(619,333,o),
(666,355,c),
(641,390,l),
(641,0,l),
(719,0,l),
(719,388,l),
(753,418,o),
(773,458,o),
(773,513,cs),
(773,574,ls),
(773,643,o),
(708,699,o),
(630,699,cs),
(589,698,o),
(551,683,o),
(525,659,c),
(499,683,o),
(461,699,o),
(420,699,cs),
(341,698,o),
(276,642,o),
(276,574,cs),
(276,515,l),
(354,515,l),
(354,573,ls),
(354,590,o),
(372,621,o),
(421,621,cs),
(466,621,o),
(485,589,o),
(485,574,cs),
(485,515,l),
(564,515,l),
(564,573,ls),
(564,590,o),
(582,621,o),
(631,621,cs),
(676,621,o),
(695,589,o),
(695,574,cs),
(695,514,ls),
(692,422,o),
(561,397,o),
(428,397,cs),
(299,397,o),
(137,473,o),
(130,600,cs),
(128,627,o),
(136,668,o),
(151,699,c),
(69,699,l),
(52,650,o),
(50,611,o),
(50,602,cs),
(51,494,o),
(114,417,o),
(199,371,c)
);
}
);
width = 823;
}
);
},
{
glyphname = "nya_cha-oriya";
layers = (
{
anchors = (
{
name = bindu;
pos = (432,-62);
},
{
name = bottom;
pos = (435,-92);
},
{
name = chanBin;
pos = (507,702);
},
{
name = nukta;
pos = (431,-79);
},
{
name = reph2;
pos = (695,-214);
},
{
name = top;
pos = (430,754);
}
);
layerId = m01;
shapes = (
{
pos = (20,0);
ref = "nya_ca-oriya";
},
{
closed = 1;
nodes = (
(737,5,o),
(681,70,o),
(612,70,cs),
(520,70,o),
(452,35,o),
(429,-16,c),
(405,35,o),
(337,70,o),
(245,70,cs),
(176,70,o),
(120,5,o),
(120,-73,cs),
(120,-151,o),
(176,-216,o),
(245,-216,cs),
(337,-216,o),
(405,-181,o),
(429,-130,c),
(452,-181,o),
(520,-216,o),
(612,-216,cs),
(681,-216,o),
(737,-151,o),
(737,-73,cs)
);
},
{
closed = 1;
nodes = (
(198,-73,l),
(198,-72,ls),
(198,-27,o),
(230,-8,o),
(245,-8,cs),
(267,-8,o),
(363,-15,o),
(410,-73,c),
(363,-131,o),
(267,-138,o),
(245,-138,cs),
(230,-138,o),
(198,-119,o),
(198,-74,cs)
);
},
{
closed = 1;
nodes = (
(494,-15,o),
(590,-8,o),
(612,-8,cs),
(627,-8,o),
(659,-27,o),
(659,-72,cs),
(659,-73,l),
(659,-74,ls),
(659,-119,o),
(627,-138,o),
(612,-138,cs),
(590,-138,o),
(494,-131,o),
(447,-73,c)
);
}
);
width = 803;
}
);
},
{
glyphname = "nya_ja-oriya";
layers = (
{
anchors = (
{
name = bindu;
pos = (351,-96);
},
{
name = bottom;
pos = (833,19);
},
{
name = chanBin;
pos = (548,702);
},
{
name = nukta;
pos = (351,-50);
},
{
name = reph2;
pos = (832,0);
},
{
name = top;
pos = (461,754);
}
);
guides = (
{
pos = (878,351);
}
);
layerId = m01;
shapes = (
{
closed = 1;
nodes = (
(718,392,l),
(791,466,l),
(791,2,l),
(869,2,l),
(869,578,l),
(793,578,l),
(792,579,l),
(791,578,ls),
(782,568,o),
(712,497,o),
(674,458,c)
);
},
{
closed = 1;
nodes = (
(663,469,ls),
(667,484,o),
(667,497,o),
(667,513,cs),
(667,574,ls),
(667,643,o),
(602,699,o),
(524,699,cs),
(483,698,o),
(445,683,o),
(419,659,c),
(393,683,o),
(355,699,o),
(314,699,cs),
(235,698,o),
(170,642,o),
(170,574,cs),
(170,515,l),
(248,515,l),
(248,573,ls),
(248,590,o),
(266,621,o),
(315,621,cs),
(360,621,o),
(379,589,o),
(379,574,cs),
(379,515,l),
(458,515,l),
(458,573,ls),
(458,590,o),
(476,621,o),
(525,621,cs),
(570,621,o),
(589,589,o),
(589,574,cs),
(589,513,ls),
(594,417,o),
(533,372,o),
(392,377,cs),
(348,379,o),
(267,404,o),
(211,433,c),
(190,352,l),
(242,326,o),
(338,296,o),
(389,296,cs),
(528,296,o),
(615,331,o),
(650,415,c)
);
},
{
closed = 1;
nodes = (
(696,457,l),
(687,474,o),
(668,485,o),
(653,491,c),
(635,410,l),
(649,401,o),
(659,383,o),
(659,354,cs),
(659,309,o),
(627,290,o),
(612,290,cs),
(553,290,l),
(553,211,l),
(611,211,ls),
(628,211,o),
(659,193,o),
(659,144,cs),
(659,99,o),
(627,80,o),
(612,80,cs),
(551,80,l),
(381,80,l),
(380,80,ls),
(230,80,o),
(111,197,o),
(108,347,cs),
(108,395,o),
(118,443,o),
(133,484,c),
(67,529,l),
(45,477,o),
(32,416,o),
(32,351,c),
(30,351,l),
(30,331,o),
(32,311,o),
(35,291,cs),
(35,290,ls),
(63,125,o),
(205,3,o),
(378,2,cs),
(380,2,l),
(381,2,l),
(612,2,ls),
(681,2,o),
(737,67,o),
(737,145,cs),
(736,186,o),
(721,224,o),
(697,250,c),
(721,276,o),
(737,314,o),
(737,355,cs),
(737,378,o),
(732,398,o),
(723,417,c)
);
}
);
width = 919;
}
);
},
{
glyphname = "nya_jha-oriya";
layers = (
{
anchors = (
{
name = bindu;
pos = (351,-96);
},
{
name = bottom;
pos = (683,17);
},
{
name = chanBin;
pos = (548,702);
},
{
name = nukta;
pos = (351,-50);
},
{
name = reph2;
pos = (683,0);
},
{
name = top;
pos = (431,754);
}
);
layerId = m01;
shapes = (
{
pos = (20,0);
ref = "nya_ca-oriya";
},
{
closed = 1;
nodes = (
(827,78,l),
(882,133,l),
(742,353,l),
(882,573,l),
(827,628,l),
(652,353,l)
);
}
);
width = 932;
}
);
},
{
glyphname = "tta_tta-oriya";
layers = (
{
anchors = (
{
name = bindu;
pos = (351,-96);
},
{
name = bottom;
pos = (613,17);
},
{
name = chanBin;
pos = (548,702);
},
{
name = nukta;
pos = (351,-50);
},
{
name = reph2;
pos = (611,0);
},
{
name = top;
pos = (351,754);
}
);
layerId = m01;
shapes = (
{
closed = 1;
nodes = (
(152,285,l),
(137,316,o),
(128,351,o),
(128,388,cs),
(128,516,o),
(232,621,o),
(360,621,cs),
(489,621,o),
(593,517,o),
(594,389,c),
(672,389,l),
(672,653,l),
(594,703,l),
(594,593,l),
(537,658,o),
(453,699,o),
(360,699,cs),
(189,699,o),
(50,559,o),
(50,388,cs),
(50,319,o),
(72,255,o),
(110,203,c)
);
},
{
pos = (-6,0);
ref = circles.oriya;
}
);
width = 722;
}
);
},
{
glyphname = "nna_tta-oriya";
layers = (
{
anchors = (
{
name = bindu;
pos = (351,-96);
},
{
name = bottom;
pos = (814,-146);
},
{
name = chanBin;
pos = (548,702);
},
{
name = nukta;
pos = (351,-50);
},
{
name = reph2;
pos = (812,-149);
},
{
name = top;
pos = (351,754);
}
);
layerId = m01;
shapes = (
{
pos = (100,0);
ref = "tta-oriya.base";
},
{
closed = 1;
nodes = (
(604,558,l),
(541,643,o),
(442,699,o),
(327,699,cs),
(322,699,l),
(244,699,ls),
(137,699,o),
(50,612,o),
(50,505,cs),
(50,440,o),
(81,383,o),
(129,348,c),
(83,312,o),
(54,257,o),
(54,194,cs),
(54,87,o),
(140,0,o),
(247,0,cs),
(248,0,l),
(375,0,l),
(376,0,ls),
(483,0,o),
(569,87,o),
(569,195,cs),
(569,314,o),
(498,392,o),
(385,379,cs),
(344,374,o),
(305,348,o),
(279,310,cs),
(251,269,o),
(240,213,o),
(261,154,cs),
(278,106,o),
(312,86,o),
(347,78,c),
(248,78,ls),
(184,78,o),
(132,130,o),
(132,194,cs),
(132,254,o),
(177,304,o),
(235,310,c),
(244,310,l),
(244,311,l),
(248,311,l),
(248,389,l),
(243,389,o),
(238,389,o),
(234,388,c),
(232,389,o),
(230,389,o),
(229,389,cs),
(172,396,o),
(128,445,o),
(128,505,cs),
(128,569,o),
(180,621,o),
(244,621,cs),
(321,621,ls),
(473,621,o),
(593,501,o),
(593,349,cs),
(593,348,l),
(610,348,l)
);
},
{
closed = 1;
nodes = (
(279,310,ls),
(244,310,ls)
);
},
{
closed = 1;
nodes = (
(361,388,l),
(248,388,ls)
);
},
{
closed = 1;
nodes = (
(313,214,o),
(331,291,o),
(395,300,cs),
(465,310,o),
(491,259,o),
(491,195,cs),
(491,153,o),
(470,117,o),
(438,96,c),
(396,98,o),
(350,109,o),
(334,154,cs)
);
},
{
closed = 1;
nodes = (
(593,100,l),
(671,100,l),
(671,700,l),
(593,700,l)
);
}
);
width = 885;
}
);
},
{
glyphname = "nna_ttha-oriya";
layers = (
{
anchors = (
{
name = bindu;
pos = (351,-96);
},
{
name = bottom;
pos = (714,-186);
},
{
name = chanBin;
pos = (548,702);
},
{
name = nukta;
pos = (351,-50);
},
{
name = reph2;
pos = (712,-189);
},
{
name = top;
pos = (351,754);
}
);
layerId = m01;
shapes = (
{
pos = (27,0);
ref = "ttha-oriya.base";
},
{
closed = 1;
nodes = (
(584,558,l),
(521,643,o),
(422,697,o),
(307,699,cs),
(302,699,l),
(224,699,ls),
(117,699,o),
(30,612,o),
(30,505,cs),
(30,440,o),
(61,383,o),
(109,348,c),
(63,312,o),
(34,257,o),
(34,194,cs),
(34,87,o),
(120,1,o),
(227,0,cs),
(228,0,l),
(355,0,l),
(356,0,ls),
(463,1,o),
(549,87,o),
(549,195,cs),
(549,314,o),
(478,392,o),
(365,379,cs),
(324,374,o),
(285,348,o),
(259,310,cs),
(231,269,o),
(220,213,o),
(241,154,cs),
(258,106,o),
(292,86,o),
(327,78,c),
(228,78,ls),
(164,78,o),
(112,130,o),
(112,194,cs),
(112,254,o),
(157,304,o),
(215,310,c),
(224,310,l),
(224,311,l),
(228,311,l),
(228,389,l),
(223,389,o),
(218,389,o),
(214,388,c),
(212,389,o),
(210,389,o),
(209,389,cs),
(152,396,o),
(108,445,o),
(108,505,cs),
(108,569,o),
(160,621,o),
(224,621,cs),
(301,621,ls),
(453,621,o),
(573,501,o),
(573,349,cs),
(573,348,l),
(590,348,l)
);
},
{
closed = 1;
nodes = (
(259,310,ls),
(224,310,ls)
);
},
{
closed = 1;
nodes = (
(341,388,l),
(228,388,ls)
);
},
{
closed = 1;
nodes = (
(293,214,o),
(311,291,o),
(375,300,cs),
(445,310,o),
(471,259,o),
(471,195,cs),
(471,153,o),
(450,117,o),
(418,96,c),
(376,98,o),
(330,109,o),
(314,154,cs)
);
},
{
closed = 1;
nodes = (
(574,100,l),
(652,100,l),
(652,700,l),
(574,700,l)
);
}
);
width = 882;
}
);
metricLeft = "sha-oriya";
metricRight = "ttha-oriya";
},
{
glyphname = "nna_dda-oriya";
layers = (
{
anchors = (
{
name = bindu;
pos = (351,-96);
},
{
name = bottom;
pos = (714,-146);
},
{
name = chanBin;
pos = (548,702);
},
{
name = nukta;
pos = (351,-50);
},
{
name = reph2;
pos = (711,-120);
},
{
name = top;
pos = (351,754);
}
);
layerId = m01;
shapes = (
{
closed = 1;
nodes = (
(590,40,l),
(529,26,o),
(492,-36,o),
(508,-96,cs),
(522,-146,o),
(567,-177,o),
(616,-176,c),
(606,-182,o),
(595,-188,o),
(582,-191,cs),
(522,-207,o),
(461,-170,o),
(445,-110,cs),
(436,-78,o),
(443,-43,o),
(463,-17,c),
(442,21,l),
(505,53,o),
(549,119,o),
(549,195,cs),
(549,314,o),
(478,392,o),
(365,379,cs),
(324,374,o),
(285,348,o),
(259,310,c),
(224,310,l),
(259,310,l),
(231,269,o),
(220,213,o),
(241,154,cs),
(258,106,o),
(292,86,o),
(327,78,c),
(228,78,ls),
(164,78,o),
(112,130,o),
(112,194,cs),
(112,254,o),
(157,304,o),
(215,310,c),
(224,310,l),
(224,311,l),
(228,311,l),
(228,388,l),
(341,388,l),
(228,388,l),
(228,389,l),
(223,389,o),
(218,389,o),
(214,388,c),
(212,389,o),
(210,389,o),
(209,389,cs),
(152,396,o),
(108,445,o),
(108,505,cs),
(108,569,o),
(160,621,o),
(224,621,cs),
(301,621,ls),
(453,621,o),
(574,501,o),
(574,349,cs),
(574,348,l),
(590,348,l),
(584,558,l),
(521,643,o),
(422,699,o),
(307,699,cs),
(302,699,l),
(224,699,ls),
(117,699,o),
(30,612,o),
(30,505,cs),
(30,440,o),
(61,383,o),
(109,348,c),
(63,312,o),
(34,257,o),
(34,194,cs),
(34,87,o),
(120,0,o),
(227,0,cs),
(228,0,l),
(355,0,l),
(356,0,ls),
(372,0,o),
(388,2,o),
(403,6,c),
(380,-33,o),
(372,-79,o),
(384,-125,cs),
(409,-217,o),
(505,-273,o),
(598,-249,cs),
(683,-226,o),
(735,-143,o),
(723,-58,c),
(723,-52,o),
(722,-46,o),
(720,-39,cs),
(708,1,o),
(676,30,o),
(637,39,c)
);
},
{
closed = 1;
nodes = (
(293,214,o),
(311,291,o),
(375,300,cs),
(445,310,o),
(471,259,o),
(471,195,cs),
(471,153,o),
(450,117,o),
(418,96,c),
(376,98,o),
(330,109,o),
(314,154,cs)
);
},
{
closed = 1;
nodes = (
(557,-54,o),
(573,-25,o),
(599,-18,cs),
(627,-11,o),
(655,-28,o),
(662,-54,c),
(662,-55,o),
(662,-56,o),
(663,-56,c),
(668,-83,o),
(653,-110,o),
(626,-118,cs),
(600,-125,o),
(571,-108,o),
(564,-81,cs)
);
},
{
closed = 1;
nodes = (
(652,18,l),
(652,700,l),
(574,700,l),
(574,19,l)
);
}
);
width = 755;
}
);
metricLeft = "sha-oriya";
metricRight = "dda-oriya";
},
